<svg width="389" height="176" viewBox="0 0 389 176" fill="none" xmlns="http://www.w3.org/2000/svg">
<g filter="url(#filter0_d_304_438)">
<path d="M73.9818 46.0918C68.0335 53.8704 61.7038 62.3354 54.9928 71.4867C48.2818 80.6381 42.6385 90.0182 38.0629 99.6271H73.9818V46.0918ZM107.384 4.45329V99.6271H124.314V127.539H107.384V163H73.9818V127.539H5.57566V102.601C8.93115 95.8903 13.1255 88.3404 18.1587 79.9517C23.192 71.4105 28.759 62.7167 34.8599 53.8704C41.1133 44.8716 47.6718 36.1016 54.5353 27.5604C61.3987 19.0192 68.2622 11.3168 75.1257 4.45329H107.384Z" fill="#3BEAA8"/>
<path d="M253.201 83.3835C253.201 110.075 248.092 130.589 237.873 144.926C227.806 159.111 213.851 166.203 196.005 166.203C178.16 166.203 164.128 159.111 153.909 144.926C143.843 130.589 138.81 110.075 138.81 83.3835C138.81 70.114 140.106 58.3698 142.699 48.1509C145.444 37.9319 149.334 29.3144 154.367 22.2984C159.4 15.2824 165.425 9.94408 172.441 6.28354C179.457 2.62302 187.312 0.792751 196.005 0.792751C213.851 0.792751 227.806 7.96129 237.873 22.2984C248.092 36.4829 253.201 56.8446 253.201 83.3835ZM218.426 83.3835C218.426 75.4523 218.045 68.2838 217.282 61.8779C216.52 55.3194 215.299 49.6761 213.622 44.9479C211.944 40.2197 209.656 36.5592 206.758 33.9663C203.86 31.3734 200.276 30.077 196.005 30.077C191.735 30.077 188.151 31.3734 185.253 33.9663C182.507 36.5592 180.219 40.2197 178.389 44.9479C176.711 49.6761 175.491 55.3194 174.729 61.8779C173.966 68.2838 173.585 75.4523 173.585 83.3835C173.585 91.3146 173.966 98.5594 174.729 105.118C175.491 111.676 176.711 117.32 178.389 122.048C180.219 126.776 182.507 130.437 185.253 133.029C188.151 135.622 191.735 136.919 196.005 136.919C200.276 136.919 203.86 135.622 206.758 133.029C209.656 130.437 211.944 126.776 213.622 122.048C215.299 117.32 216.52 111.676 217.282 105.118C218.045 98.5594 218.426 91.3146 218.426 83.3835Z" fill="#F6F6F9"/>
<path d="M334.044 46.0918C328.096 53.8704 321.766 62.3354 315.055 71.4867C308.344 80.6381 302.701 90.0182 298.125 99.6271H334.044V46.0918ZM367.446 4.45329V99.6271H384.376V127.539H367.446V163H334.044V127.539H265.638V102.601C268.993 95.8903 273.188 88.3404 278.221 79.9517C283.254 71.4105 288.821 62.7167 294.922 53.8704C301.175 44.8716 307.734 36.1016 314.597 27.5604C321.461 19.0192 328.324 11.3168 335.188 4.45329H367.446Z" fill="#2F2E41"/>
</g>
<defs>
<filter id="filter0_d_304_438" x="0.989173" y="0.792725" width="387.973" height="174.583" filterUnits="userSpaceOnUse" color-interpolation-filters="sRGB">
<feFlood flood-opacity="0" result="BackgroundImageFix"/>
<feColorMatrix in="SourceAlpha" type="matrix" values="0 0 0 0 0 0 0 0 0 0 0 0 0 0 0 0 0 0 127 0" result="hardAlpha"/>
<feOffset dy="4.58651"/>
<feGaussianBlur stdDeviation="2.29326"/>
<feComposite in2="hardAlpha" operator="out"/>
<feColorMatrix type="matrix" values="0 0 0 0 0 0 0 0 0 0 0 0 0 0 0 0 0 0 0.25 0"/>
<feBlend mode="normal" in2="BackgroundImageFix" result="effect1_dropShadow_304_438"/>
<feBlend mode="normal" in="SourceGraphic" in2="effect1_dropShadow_304_438" result="shape"/>
</filter>
</defs>
</svg>
