<svg width="541" height="526" viewBox="0 0 541 526" fill="none" xmlns="http://www.w3.org/2000/svg">
<g clip-path="url(#clip0_48_429)">
<path d="M479.821 464.961C479.821 464.961 480.234 456.307 488.701 457.313L479.821 464.961Z" fill="#3F3D56"/>
<path d="M477.429 456.726C479.769 456.726 481.667 454.829 481.667 452.488C481.667 450.148 479.769 448.251 477.429 448.251C475.089 448.251 473.191 450.148 473.191 452.488C473.191 454.829 475.089 456.726 477.429 456.726Z" fill="#3BEAA8"/>
<path d="M477.935 459.624H476.739V467.997H477.935V459.624Z" fill="#3F3D56"/>
<path d="M196.139 216.016C196.139 218.136 196.07 220.237 195.933 222.321C195.163 234.339 192.126 246.103 186.984 256.992C186.944 257.085 186.898 257.172 186.858 257.258C186.619 257.763 186.373 258.268 186.12 258.766C184.591 261.846 182.895 264.84 181.038 267.735C172.559 281.023 160.938 292.018 147.201 299.749C133.464 307.48 118.034 311.708 102.275 312.059L103.225 366.694L115.615 360.17L117.827 364.376L103.318 372.015L105.092 473.486L105.112 474.841L95.5319 476.974L95.5517 475.612L98.5678 312.066C85.8832 311.884 73.3612 309.184 61.7288 304.122C50.0963 299.061 39.5852 291.74 30.8057 282.583C30.2013 281.958 29.6032 281.314 29.0186 280.676C28.9921 280.649 28.9722 280.623 28.9521 280.603C21.6372 272.626 15.7213 263.471 11.4537 253.525C11.5468 253.631 11.6463 253.731 11.7395 253.837C2.09451 231.283 1.44036 205.894 9.91106 182.873C18.3818 159.852 35.3359 140.942 57.2992 130.018C57.6314 129.852 57.9704 129.693 58.3026 129.527C80.0283 119.062 104.893 117.142 127.968 124.147C151.043 131.152 170.643 146.571 182.885 167.347C183.47 168.33 184.035 169.334 184.579 170.343C192.184 184.364 196.157 200.066 196.139 216.016Z" fill="#E5E5E5"/>
<path d="M179.207 251.835C248.749 251.835 305.124 195.46 305.124 125.918C305.124 56.3752 248.749 0 179.207 0C109.664 0 53.2891 56.3752 53.2891 125.918C53.2891 195.46 109.664 251.835 179.207 251.835Z" fill="#3BEAA8"/>
<path opacity="0.2" d="M86.2331 41.8147C58.8947 105.764 88.5737 179.767 152.523 207.106C176.785 217.478 203.693 219.967 229.446 214.221C255.199 208.474 278.497 194.784 296.049 175.082C268.714 239.033 194.711 268.716 130.76 241.381C66.8089 214.045 37.126 140.043 64.4614 76.0919C69.8165 63.5636 77.1693 51.9874 86.2331 41.8147Z" fill="black"/>
<path d="M186.02 476.7L173.159 473.093L173.185 471.711L177.038 262.259L177.231 251.816L177.238 251.511L177.909 214.919L178.885 161.879V161.872L179.55 125.918H179.902L180.579 164.868L181.463 215.563L182.094 251.537V251.803L182.121 253.284V253.291L183.343 323.411L183.469 330.38L185.994 475.305L186.02 476.7Z" fill="#3F3D56"/>
<path d="M199.579 314.862L178.765 325.821L181.665 331.33L202.48 320.372L199.579 314.862Z" fill="#3F3D56"/>
<path d="M176.74 502.048H117.367V503.377H176.74V502.048Z" fill="#CBCBCB"/>
<path d="M285.691 524.636H226.318V525.964H285.691V524.636Z" fill="#CBCBCB"/>
<path d="M455.096 507.363H395.723V508.692H455.096V507.363Z" fill="#CBCBCB"/>
<path d="M427.978 453.302V414.655C427.978 414.655 443.039 442.054 427.978 453.302Z" fill="#F1F1F1"/>
<path d="M428.908 453.295L400.438 427.159C400.438 427.159 430.807 434.594 428.908 453.295Z" fill="#F1F1F1"/>
<path d="M133.677 462.603V423.956C133.677 423.956 148.738 451.355 133.677 462.603Z" fill="#F1F1F1"/>
<path d="M134.608 462.596L106.138 436.46C106.138 436.46 136.507 443.894 134.608 462.596Z" fill="#F1F1F1"/>
<path d="M235.985 490.505V442.447C235.985 442.447 254.714 476.518 235.985 490.505Z" fill="#F1F1F1"/>
<path d="M237.142 490.496L201.74 457.996C201.74 457.996 239.504 467.241 237.142 490.496Z" fill="#F1F1F1"/>
<path d="M540.31 484.625L539.944 485.908L428.449 454.152L344.457 472.667L237.041 491.016L236.895 490.977L186.02 476.7L173.159 473.093L133.877 462.065L101.112 469.366L91.532 471.498L70.7051 476.142L70.4194 474.846L91.5519 470.136L101.092 468.01L133.917 460.696L134.076 460.736L173.185 471.711L185.994 475.305L237.108 489.654L344.198 471.365L428.489 452.784L428.655 452.824L540.31 484.625Z" fill="#CBCBCB"/>
<path d="M340.838 80.6747L349.338 73.8763C342.735 73.1478 340.021 76.7491 338.911 79.5996C333.752 77.4575 328.136 80.2648 328.136 80.2648L345.143 86.439C344.285 84.1473 342.792 82.1478 340.838 80.6747Z" fill="#3F3D56"/>
<path d="M28.6005 78.0174L37.1005 71.219C30.4972 70.4905 27.784 74.0918 26.6736 76.9422C21.5149 74.8001 15.8989 77.6075 15.8989 77.6075L32.906 83.7816C32.048 81.49 30.5545 79.4904 28.6005 78.0174Z" fill="#3F3D56"/>
<path d="M322.236 207.563L330.736 200.764C324.133 200.036 321.42 203.637 320.309 206.488C315.151 204.345 309.535 207.153 309.535 207.153L326.542 213.327C325.684 211.035 324.19 209.036 322.236 207.563Z" fill="#3F3D56"/>
<path d="M264.509 499.964L271.005 502.377L283.406 478.468L273.818 474.906L264.509 499.964Z" fill="#FFB7B7"/>
<path d="M263.639 497.226L276.433 501.98L276.434 501.98C278.596 502.784 280.351 504.413 281.312 506.51C282.272 508.607 282.361 511 281.558 513.163L281.459 513.428L260.512 505.645L263.639 497.226Z" fill="#2F2E41"/>
<path d="M328.442 506.71L335.372 506.709L338.669 479.978L328.44 479.978L328.442 506.71Z" fill="#FFB7B7"/>
<path d="M327.239 504.447L340.887 504.446H340.888C343.195 504.447 345.407 505.363 347.038 506.994C348.669 508.625 349.586 510.837 349.586 513.144V513.427L327.239 513.428L327.239 504.447Z" fill="#2F2E41"/>
<path d="M296.712 321.314L298.973 316.792L318.193 326.402L317.628 330.359L321.302 335.164C321.302 335.164 327.521 338.556 326.39 349.862L325.259 360.603L323.846 374.452L333.739 408.653L338.827 453.876L342.501 490.338L324.694 489.49L308.301 430.134L279.47 494.012L259.685 488.925L286.819 425.612L290.211 399.043C290.211 399.043 287.95 384.91 298.691 375.3L296.995 370.213V363.943L291.342 334.034L296.712 321.314Z" fill="#2F2E41"/>
<path opacity="0.2" d="M296.183 385.951L295.544 386.131L307.98 430.224L308.62 430.044L296.183 385.951Z" fill="black"/>
<path d="M297.277 377.279H324.977V374.452H297.277V377.279Z" fill="#3F3D56"/>
<path d="M324.977 378.975C325.601 378.975 326.107 377.709 326.107 376.148C326.107 374.587 325.601 373.322 324.977 373.322C324.352 373.322 323.846 374.587 323.846 376.148C323.846 377.709 324.352 378.975 324.977 378.975Z" fill="#3F3D56"/>
<path d="M325.707 308.009C329.698 300.707 327.015 291.552 319.713 287.56C312.41 283.568 303.255 286.252 299.263 293.554C295.272 300.856 297.955 310.012 305.257 314.003C312.559 317.995 321.715 315.311 325.707 308.009Z" fill="#FFB7B7"/>
<path d="M289.427 295.403C296.789 295.403 302.757 289.434 302.757 282.072C302.757 274.71 296.789 268.742 289.427 268.742C282.065 268.742 276.097 274.71 276.097 282.072C276.097 289.434 282.065 295.403 289.427 295.403Z" fill="#2F2E41"/>
<path d="M272.511 280.644C271.985 282.411 271.831 284.267 272.059 286.095C272.286 287.924 272.891 289.686 273.834 291.269C274.777 292.852 276.038 294.223 277.537 295.294C279.036 296.366 280.742 297.115 282.545 297.494C284.348 297.873 286.211 297.874 288.015 297.497C289.819 297.12 291.525 296.373 293.025 295.304C294.526 294.234 295.789 292.865 296.733 291.283C297.678 289.7 298.285 287.939 298.515 286.111C297.56 289.318 295.433 292.048 292.558 293.76C289.683 295.472 286.27 296.04 282.995 295.352C279.721 294.664 276.825 292.769 274.883 290.044C272.94 287.32 272.094 283.964 272.511 280.644Z" fill="#2F2E41"/>
<path d="M325.174 296.598C325.565 300.044 324.809 303.523 323.022 306.495C321.236 309.467 318.519 311.768 315.293 313.039C312.066 314.311 308.511 314.483 305.177 313.529C301.843 312.575 298.916 310.547 296.851 307.761C294.786 304.975 293.698 301.586 293.755 298.119C293.811 294.651 295.01 291.299 297.165 288.582C299.32 285.865 302.311 283.935 305.674 283.09C309.037 282.245 312.586 282.533 315.769 283.91C318.401 281.787 321.665 282.445 324.318 284.685C327.319 287.219 328.209 288.959 330.536 293.125C328.248 293.447 327.462 296.277 325.174 296.598Z" fill="#2F2E41"/>
<path d="M269.786 341.913C269.954 346.379 270.289 355.169 270.289 355.617C270.289 356.09 276.952 369.887 279.831 375.825V375.828C280.036 376.247 280.219 376.626 280.382 376.961C280.605 377.422 280.955 377.809 281.391 378.077C281.827 378.345 282.331 378.482 282.842 378.472L295.423 378.246C296.114 378.235 296.775 377.956 297.266 377.469C297.757 376.982 298.04 376.324 298.058 375.633L299.461 320.284C299.466 320.101 299.434 319.92 299.367 319.75C299.301 319.58 299.201 319.425 299.073 319.294C298.946 319.163 298.794 319.059 298.625 318.988C298.457 318.917 298.277 318.881 298.094 318.881H281.87C281.184 318.881 280.513 319.074 279.932 319.439C279.352 319.803 278.886 320.323 278.587 320.94L270.801 337.05C270.07 338.564 269.722 340.234 269.786 341.913V341.913Z" fill="#3BEAA8"/>
<path d="M298.276 371.835C301.505 369.878 304.406 367.427 306.873 364.57C312.605 358.123 316.091 349.99 316.808 341.392C317.448 334.037 315.988 328.569 312.47 325.141C307.998 320.784 301.911 321.417 301.654 321.446L301.381 321.477L297.257 324.966L298.424 326.345L302.114 323.223C303.244 323.167 307.855 323.154 311.224 326.449C314.324 329.482 315.598 334.457 315.008 341.236C314.326 349.422 311.015 357.167 305.569 363.316C303.22 366.034 300.466 368.373 297.404 370.252L298.276 371.835Z" fill="#3BEAA8"/>
<path d="M274.865 350.806L274.744 351.396L296.726 355.911L296.847 355.321L274.865 350.806Z" fill="#3F3D56"/>
<path d="M289.354 318.868L287.926 353.846L288.528 353.871L289.956 318.893L289.354 318.868Z" fill="#3F3D56"/>
<path d="M269.786 341.913C269.954 346.379 270.288 355.169 270.288 355.617C270.288 356.09 276.952 369.887 279.831 375.825L274.465 344.669C274.257 343.47 273.735 342.348 272.952 341.417C272.168 340.486 271.151 339.781 270.005 339.372C269.825 340.206 269.751 341.06 269.786 341.913Z" fill="#3F3D56"/>
<path d="M302.754 407.21C302.279 406.597 301.943 405.888 301.772 405.133C301.601 404.377 301.597 403.593 301.761 402.835C301.926 402.078 302.254 401.366 302.723 400.749C303.193 400.133 303.792 399.627 304.478 399.266L303.387 387.202L310.557 384.752L311.858 401.81C312.386 403.003 312.459 404.348 312.062 405.591C311.665 406.834 310.826 407.888 309.704 408.553C308.582 409.219 307.254 409.45 305.973 409.202C304.692 408.954 303.547 408.245 302.754 407.21Z" fill="#FFB7B7"/>
<path d="M298.061 334.399C297.921 332.567 298.395 330.74 299.408 329.207C300.421 327.675 301.916 326.523 303.656 325.933C305.19 325.427 306.847 325.428 308.381 325.938C310.022 326.497 311.446 327.558 312.451 328.97C313.457 330.383 313.993 332.075 313.984 333.809L314.521 395.075L301.817 395.536L298.061 334.399Z" fill="#CBCBCB"/>
</g>
<defs>
<clipPath id="clip0_48_429">
<rect width="540.31" height="525.964" fill="white"/>
</clipPath>
</defs>
</svg>
