<svg width="159" height="51" viewBox="0 0 159 51" fill="none" xmlns="http://www.w3.org/2000/svg">
<path d="M23.995 22.9851V19.1818H41.9141V22.9851H35.2344V41H30.6747V22.9851H23.995ZM44.8651 41V19.1818H53.473C55.1207 19.1818 56.527 19.4766 57.6918 20.0661C58.8636 20.6484 59.755 21.4759 60.3658 22.5483C60.9837 23.6136 61.2926 24.8672 61.2926 26.3089C61.2926 27.7578 60.9801 29.0043 60.3551 30.0483C59.7301 31.0852 58.8246 31.8807 57.6385 32.4347C56.4595 32.9886 55.032 33.2656 53.3558 33.2656H47.5923V29.5582H52.6101C53.4908 29.5582 54.2223 29.4375 54.8047 29.196C55.3871 28.9545 55.8203 28.5923 56.1044 28.1094C56.3956 27.6264 56.5412 27.0263 56.5412 26.3089C56.5412 25.5845 56.3956 24.9737 56.1044 24.4766C55.8203 23.9794 55.3835 23.603 54.794 23.3473C54.2116 23.0845 53.4766 22.9531 52.5888 22.9531H49.478V41H44.8651ZM56.6477 31.071L62.0703 41H56.978L51.6726 31.071H56.6477ZM69.1655 19.1818V41H64.5526V19.1818H69.1655ZM72.9608 41V19.1818H77.5737V37.1967H86.9274V41H72.9608ZM89.9822 41V19.1818H94.5952V28.1839H103.96V19.1818H108.562V41H103.96V31.9872H94.5952V41H89.9822ZM116.126 41H111.183L118.714 19.1818H124.659L132.18 41H127.237L121.772 24.1676H121.602L116.126 41ZM115.817 32.424H127.493V36.0249H115.817V32.424ZM146.144 25.4567C146.059 24.5973 145.693 23.9297 145.047 23.4538C144.401 22.978 143.524 22.7401 142.416 22.7401C141.663 22.7401 141.027 22.8466 140.509 23.0597C139.99 23.2656 139.593 23.5533 139.316 23.9226C139.046 24.2919 138.911 24.7109 138.911 25.1797C138.896 25.5703 138.978 25.9112 139.156 26.2024C139.34 26.4936 139.593 26.7457 139.912 26.9588C140.232 27.1648 140.601 27.3459 141.02 27.5021C141.439 27.6513 141.887 27.7791 142.362 27.8857L144.323 28.3544C145.274 28.5675 146.148 28.8516 146.943 29.2067C147.739 29.5618 148.428 29.9986 149.01 30.517C149.593 31.0355 150.044 31.6463 150.363 32.3494C150.69 33.0526 150.857 33.8587 150.864 34.7678C150.857 36.103 150.516 37.2607 149.841 38.2408C149.173 39.2138 148.208 39.9702 146.943 40.5099C145.686 41.0426 144.17 41.3089 142.394 41.3089C140.633 41.3089 139.099 41.0391 137.792 40.4993C136.492 39.9595 135.477 39.1605 134.745 38.1023C134.021 37.0369 133.641 35.7195 133.605 34.1499H138.069C138.119 34.8814 138.328 35.4922 138.698 35.9822C139.074 36.4652 139.575 36.831 140.2 37.0795C140.832 37.321 141.546 37.4418 142.341 37.4418C143.122 37.4418 143.801 37.3281 144.376 37.1009C144.958 36.8736 145.409 36.5575 145.729 36.1527C146.048 35.7479 146.208 35.2827 146.208 34.7571C146.208 34.267 146.063 33.8551 145.771 33.5213C145.487 33.1875 145.068 32.9034 144.514 32.669C143.968 32.4347 143.296 32.2216 142.501 32.0298L140.125 31.4332C138.286 30.9858 136.833 30.2862 135.768 29.3345C134.703 28.3828 134.173 27.1009 134.181 25.4886C134.173 24.1676 134.525 23.0135 135.235 22.0263C135.953 21.0391 136.936 20.2685 138.186 19.7145C139.436 19.1605 140.857 18.8835 142.448 18.8835C144.067 18.8835 145.48 19.1605 146.688 19.7145C147.902 20.2685 148.847 21.0391 149.521 22.0263C150.196 23.0135 150.544 24.157 150.566 25.4567H146.144Z" fill="#2FBB86"/>
<path d="M24.1452 13V4.27273H27.5884C28.2504 4.27273 28.8143 4.39915 29.2802 4.65199C29.7461 4.90199 30.1012 5.25 30.3455 5.69602C30.5927 6.1392 30.7163 6.65057 30.7163 7.23011C30.7163 7.80966 30.5913 8.32102 30.3413 8.7642C30.0913 9.20739 29.729 9.55256 29.2546 9.79972C28.783 10.0469 28.212 10.1705 27.5415 10.1705H25.3469V8.69176H27.2433C27.5984 8.69176 27.891 8.63068 28.1211 8.50852C28.354 8.38352 28.5273 8.21165 28.641 7.9929C28.7575 7.77131 28.8157 7.51705 28.8157 7.23011C28.8157 6.94034 28.7575 6.6875 28.641 6.47159C28.5273 6.25284 28.354 6.08381 28.1211 5.96449C27.8881 5.84233 27.5927 5.78125 27.2347 5.78125H25.9904V13H24.1452ZM31.9148 13V4.27273H35.358C36.017 4.27273 36.5795 4.39062 37.0455 4.62642C37.5142 4.85937 37.8707 5.19034 38.1151 5.61932C38.3622 6.04545 38.4858 6.54687 38.4858 7.12358C38.4858 7.70312 38.3608 8.2017 38.1108 8.61932C37.8608 9.03409 37.4986 9.35227 37.0241 9.57386C36.5526 9.79545 35.9815 9.90625 35.3111 9.90625H33.0057V8.4233H35.0128C35.3651 8.4233 35.6577 8.375 35.8906 8.27841C36.1236 8.18182 36.2969 8.03693 36.4105 7.84375C36.527 7.65057 36.5852 7.41051 36.5852 7.12358C36.5852 6.83381 36.527 6.58949 36.4105 6.39062C36.2969 6.19176 36.1222 6.04119 35.8864 5.93892C35.6534 5.83381 35.3594 5.78125 35.0043 5.78125H33.7599V13H31.9148ZM36.6278 9.02841L38.7969 13H36.7599L34.6378 9.02841H36.6278ZM47.8097 8.63636C47.8097 9.58807 47.6293 10.3977 47.2685 11.0653C46.9105 11.733 46.4219 12.2429 45.8026 12.5952C45.1861 12.9446 44.4929 13.1193 43.723 13.1193C42.9474 13.1193 42.2514 12.9432 41.6349 12.5909C41.0185 12.2386 40.5313 11.7287 40.1733 11.0611C39.8153 10.3935 39.6364 9.58523 39.6364 8.63636C39.6364 7.68466 39.8153 6.875 40.1733 6.20739C40.5313 5.53977 41.0185 5.03125 41.6349 4.68182C42.2514 4.32955 42.9474 4.15341 43.723 4.15341C44.4929 4.15341 45.1861 4.32955 45.8026 4.68182C46.4219 5.03125 46.9105 5.53977 47.2685 6.20739C47.6293 6.875 47.8097 7.68466 47.8097 8.63636ZM45.9389 8.63636C45.9389 8.01989 45.8466 7.5 45.6619 7.0767C45.4801 6.65341 45.223 6.33239 44.8906 6.11364C44.5582 5.89489 44.169 5.78551 43.723 5.78551C43.277 5.78551 42.8878 5.89489 42.5554 6.11364C42.223 6.33239 41.9645 6.65341 41.7798 7.0767C41.598 7.5 41.5071 8.01989 41.5071 8.63636C41.5071 9.25284 41.598 9.77273 41.7798 10.196C41.9645 10.6193 42.223 10.9403 42.5554 11.1591C42.8878 11.3778 43.277 11.4872 43.723 11.4872C44.169 11.4872 44.5582 11.3778 44.8906 11.1591C45.223 10.9403 45.4801 10.6193 45.6619 10.196C45.8466 9.77273 45.9389 9.25284 45.9389 8.63636ZM52.6708 4.27273H54.4947V10.358C54.4947 10.9205 54.3683 11.4091 54.1154 11.8239C53.8654 12.2386 53.5174 12.5582 53.0714 12.7827C52.6254 13.0071 52.1069 13.1193 51.516 13.1193C50.9904 13.1193 50.5131 13.027 50.0842 12.8423C49.658 12.6548 49.32 12.3707 49.07 11.9901C48.82 11.6065 48.6964 11.125 48.6992 10.5455H50.5359C50.5415 10.7756 50.5884 10.973 50.6765 11.1378C50.7674 11.2997 50.891 11.4247 51.0472 11.5128C51.2063 11.598 51.3938 11.6406 51.6097 11.6406C51.837 11.6406 52.0288 11.5923 52.185 11.4957C52.3441 11.3963 52.4648 11.2514 52.5472 11.0611C52.6296 10.8707 52.6708 10.6364 52.6708 10.358V4.27273ZM56.0202 13V4.27273H61.9009V5.79403H57.8654V7.87358H61.5984V9.39489H57.8654V11.4787H61.918V13H56.0202ZM63.0355 5.79403V4.27273H70.2031V5.79403H67.5312V13H65.7074V5.79403H63.0355ZM79.005 8.63636C79.005 9.58807 78.8246 10.3977 78.4638 11.0653C78.1058 11.733 77.6172 12.2429 76.9979 12.5952C76.3814 12.9446 75.6882 13.1193 74.9183 13.1193C74.1428 13.1193 73.4467 12.9432 72.8303 12.5909C72.2138 12.2386 71.7266 11.7287 71.3686 11.0611C71.0107 10.3935 70.8317 9.58523 70.8317 8.63636C70.8317 7.68466 71.0107 6.875 71.3686 6.20739C71.7266 5.53977 72.2138 5.03125 72.8303 4.68182C73.4467 4.32955 74.1428 4.15341 74.9183 4.15341C75.6882 4.15341 76.3814 4.32955 76.9979 4.68182C77.6172 5.03125 78.1058 5.53977 78.4638 6.20739C78.8246 6.875 79.005 7.68466 79.005 8.63636ZM77.1342 8.63636C77.1342 8.01989 77.0419 7.5 76.8572 7.0767C76.6754 6.65341 76.4183 6.33239 76.0859 6.11364C75.7536 5.89489 75.3643 5.78551 74.9183 5.78551C74.4723 5.78551 74.0831 5.89489 73.7507 6.11364C73.4183 6.33239 73.1598 6.65341 72.9751 7.0767C72.7933 7.5 72.7024 8.01989 72.7024 8.63636C72.7024 9.25284 72.7933 9.77273 72.9751 10.196C73.1598 10.6193 73.4183 10.9403 73.7507 11.1591C74.0831 11.3778 74.4723 11.4872 74.9183 11.4872C75.3643 11.4872 75.7536 11.3778 76.0859 11.1591C76.4183 10.9403 76.6754 10.6193 76.8572 10.196C77.0419 9.77273 77.1342 9.25284 77.1342 8.63636Z" fill="#455A64"/>
<path d="M9.6258 41.391H8.18193V0.671374C8.18193 0.493315 8.25799 0.322548 8.39338 0.196641C8.52877 0.0707345 8.7124 0 8.90387 0C9.0952 0.00041236 9.27857 0.0712788 9.41386 0.197096C9.54915 0.322914 9.62536 0.493441 9.6258 0.671374V41.391Z" fill="#263238"/>
<path d="M1.0124 21.1521L5.60265 20.7264L16.9502 26.8346L16.1912 28.2427L14.76 28.2369L15.7135 29.1326L14.6753 31.0608L3.40095 24.9931L1.0124 21.1521Z" fill="#3BEAA8"/>
<path opacity="0.3" d="M1.0124 21.1521L5.60265 20.7264L16.9502 26.8346L16.1912 28.2427L14.76 28.2369L15.7135 29.1326L14.6753 31.0608L3.40095 24.9931L1.0124 21.1521Z" fill="black"/>
<path d="M0.871771 20.5685L4.11173 20.268C4.47634 20.2338 4.84293 20.3082 5.16538 20.4818L16.0179 26.3222L15.2589 27.7322H13.8277L14.7812 28.6279L13.743 30.5542L2.90589 24.7215C2.62051 24.5675 2.38018 24.3417 2.20859 24.0666L0.503857 21.3159C0.459429 21.2452 0.433835 21.1643 0.429512 21.0809C0.425189 20.9975 0.442282 20.9144 0.479161 20.8395C0.516041 20.7646 0.571479 20.7003 0.640202 20.6529C0.708924 20.6055 0.788644 20.5764 0.871771 20.5685Z" fill="#3BEAA8"/>
<g opacity="0.2">
<path opacity="0.2" d="M13.2768 30.3154C13.2374 30.1503 13.1724 29.9923 13.0842 29.8473C12.8123 29.4723 12.4678 29.1559 12.071 28.9169C10.8156 28.0378 9.47533 27.2866 8.07017 26.6748C7.24766 26.3146 6.43863 26.0333 5.71051 25.756C5.06023 25.52 4.42415 25.2467 3.80545 24.9373C3.38851 24.7269 2.99138 24.4793 2.61888 24.1976C2.48597 24.0994 2.39158 24.005 2.32416 23.9568C2.28865 23.9298 2.25634 23.8988 2.22785 23.8644C2.22785 23.8644 2.37425 23.9761 2.64199 24.1649C3.0204 24.4339 3.42051 24.671 3.83819 24.8737C4.45825 25.1734 5.09422 25.439 5.74326 25.6693C6.47138 25.9409 7.28425 26.2202 8.11062 26.5823C9.52198 27.1969 10.8638 27.9601 12.1134 28.8591C12.5124 29.1061 12.855 29.4342 13.1189 29.8223C13.1848 29.9324 13.2316 30.0529 13.2576 30.1786C13.266 30.2108 13.2712 30.2437 13.273 30.2769C13.2768 30.3038 13.2787 30.3154 13.2768 30.3154Z" fill="black"/>
<path opacity="0.2" d="M1.25702 20.5936C1.20681 20.7994 1.20155 21.0136 1.24161 21.2216C1.29134 21.4642 1.39106 21.6938 1.5344 21.8958C1.72887 22.16 1.95974 22.3954 2.22015 22.595C2.89555 23.1257 3.6032 23.6139 4.33902 24.057C5.16924 24.5617 6.11117 25.0664 7.11089 25.5768L12.2309 28.1927C12.8762 28.5298 13.404 28.8014 13.7719 28.9959L14.1899 29.2194C14.239 29.2441 14.2866 29.2717 14.3324 29.3022C14.2797 29.2852 14.2288 29.2633 14.1802 29.2367L13.7545 29.0306L12.1923 28.2601L7.06852 25.6597C6.06879 25.1473 5.12493 24.6388 4.29472 24.1187C3.55642 23.6702 2.84858 23.1735 2.17584 22.6316C1.91254 22.4257 1.68085 22.1824 1.48817 21.9093C1.34432 21.6999 1.2471 21.4621 1.20309 21.212C1.17406 21.054 1.17406 20.8922 1.20309 20.7342C1.2169 20.6859 1.23494 20.6388 1.25702 20.5936Z" fill="black"/>
<path opacity="0.2" d="M5.71821 22.6913C5.68214 22.6486 5.64991 22.6028 5.6219 22.5545C5.53367 22.4207 5.43784 22.2921 5.33489 22.1692C4.95715 21.7266 4.48792 21.371 3.95955 21.1271C3.78698 21.0443 3.60622 20.9797 3.4202 20.9345C3.22347 20.8847 3.0164 20.8941 2.82498 20.9615C2.72509 20.9955 2.63535 21.0541 2.564 21.1318C2.49264 21.2096 2.44196 21.304 2.41662 21.4064C2.39587 21.6347 2.46498 21.8621 2.60924 22.0402C3.164 22.8396 4.0443 23.4907 5.01898 24.0435C5.26362 24.1822 5.50825 24.3189 5.75096 24.4422C5.98168 24.5704 6.23863 24.6442 6.5022 24.658C6.62576 24.6641 6.74909 24.6418 6.86265 24.5927C6.97621 24.5436 7.07696 24.469 7.15712 24.3748C7.29618 24.1788 7.35288 23.936 7.31507 23.6987C7.27745 23.4685 7.19639 23.2475 7.07622 23.0476C6.96257 22.855 6.83736 22.6624 6.71601 22.4832C6.48797 22.1539 6.23004 21.8463 5.94551 21.5644C5.52927 21.1575 5.05147 20.8188 4.52971 20.5608C4.33709 20.4703 4.1984 20.4067 4.09631 20.3682C4.04494 20.3487 3.99477 20.3262 3.94606 20.3008C3.99999 20.3123 4.05284 20.3284 4.10402 20.3489C4.25475 20.4008 4.40263 20.4606 4.54705 20.5281C5.08079 20.7748 5.56969 21.1088 5.99367 21.5162C6.28684 21.7973 6.55258 22.1056 6.78728 22.437C6.91056 22.6161 7.03769 22.803 7.15519 23.0149C7.28207 23.2235 7.36834 23.4542 7.40946 23.6948C7.45164 23.9579 7.38868 24.2271 7.23417 24.4441C7.14514 24.55 7.03304 24.634 6.90649 24.6897C6.77994 24.7455 6.64229 24.7715 6.50412 24.7658C6.22391 24.7545 5.95019 24.678 5.70473 24.5424C5.45624 24.4172 5.21354 24.2804 4.96698 24.1417C3.98652 23.587 3.09466 22.9263 2.53219 22.1038C2.37835 21.9037 2.30918 21.6512 2.33957 21.4007C2.36843 21.2844 2.42608 21.1772 2.5072 21.089C2.58832 21.0008 2.69031 20.9345 2.8038 20.896C3.01113 20.8246 3.23491 20.8159 3.44716 20.871C3.63723 20.915 3.82195 20.9796 3.99807 21.0636C4.68199 21.3797 5.25656 21.892 5.64887 22.5352C5.67503 22.5858 5.69819 22.6379 5.71821 22.6913Z" fill="black"/>
<path opacity="0.2" d="M15.6904 26.9637C15.6904 26.9734 15.5344 26.8982 15.2397 26.8385C14.8192 26.7717 14.3908 26.7717 13.9703 26.8385C13.4367 26.8982 12.8145 27.0639 12.0806 27.0716C11.6992 27.0736 11.3203 27.0084 10.9615 26.879C10.5782 26.7396 10.2174 26.5449 9.89048 26.3011C9.26756 25.8248 8.7385 25.237 8.33022 24.5675C7.99856 24.0249 7.70009 23.4626 7.43643 22.8839C7.20336 22.3947 7.01266 22.0017 6.87011 21.7282L6.70831 21.42C6.68651 21.3857 6.66905 21.3488 6.6563 21.3102C6.68273 21.3412 6.70596 21.3747 6.72565 21.4103C6.76995 21.4778 6.82967 21.5779 6.90479 21.7089C7.05697 21.9728 7.25922 22.3619 7.5 22.8473C7.77104 23.4186 8.07394 23.9743 8.40726 24.5116C8.8137 25.1678 9.33582 25.7447 9.94826 26.2144C10.5591 26.6877 11.3061 26.9518 12.0787 26.9676C12.7876 26.9676 13.4271 26.8096 13.9606 26.7576C14.3882 26.6988 14.8227 26.7132 15.2455 26.8C15.3593 26.8259 15.4708 26.8614 15.5787 26.9059C15.6184 26.9201 15.656 26.9395 15.6904 26.9637Z" fill="black"/>
<path opacity="0.2" d="M11.7166 25.0239C11.6769 25.0132 11.6382 24.999 11.601 24.9815C11.5278 24.9507 11.4218 24.9025 11.2851 24.8332C11.1483 24.7638 10.9884 24.6752 10.8054 24.5596C10.713 24.5031 10.6167 24.4389 10.5165 24.367C10.4002 24.3004 10.3012 24.2074 10.2276 24.0954C10.2048 24.0592 10.1947 24.0165 10.1989 23.974C10.2031 23.9314 10.2213 23.8915 10.2507 23.8604C10.284 23.8343 10.3232 23.8168 10.3648 23.8094C10.4065 23.802 10.4493 23.805 10.4895 23.818C10.6398 23.8585 10.7804 23.9086 10.9326 23.9606C11.2331 24.0665 11.5509 24.1936 11.8764 24.3458C12.2172 24.5033 12.549 24.6795 12.8704 24.8736C13.0554 24.9666 13.2148 25.1035 13.3346 25.2723C13.3675 25.3206 13.389 25.3757 13.3975 25.4334C13.406 25.4912 13.4013 25.5501 13.3837 25.6058C13.366 25.6615 13.336 25.7124 13.2958 25.7547C13.2556 25.7971 13.2063 25.8297 13.1516 25.8502C12.9508 25.9202 12.7368 25.944 12.5256 25.9196C12.3254 25.9098 12.1264 25.8841 11.9304 25.8425C11.5589 25.7676 11.1997 25.6412 10.8632 25.4669C10.3862 25.2206 9.96347 24.8812 9.62002 24.4686C9.27658 24.056 9.01942 23.5786 8.86378 23.0649C8.82905 22.9537 8.80138 22.8405 8.78096 22.7258C8.77101 22.6862 8.76584 22.6454 8.76555 22.6045C8.77518 22.6045 8.806 22.7682 8.90231 23.0533C9.03758 23.4551 9.23238 23.8343 9.48019 24.1782C9.85178 24.6864 10.3382 25.0996 10.8998 25.3841C11.2296 25.552 11.5809 25.6738 11.9439 25.7462C12.1344 25.7852 12.3275 25.8097 12.5217 25.8194C12.7165 25.8431 12.9142 25.822 13.0996 25.7578C13.1418 25.7409 13.1798 25.7148 13.2108 25.6815C13.2417 25.6482 13.265 25.6085 13.2788 25.5651C13.2906 25.5233 13.2932 25.4793 13.2862 25.4364C13.2792 25.3934 13.2628 25.3526 13.2383 25.3167C13.1274 25.1614 12.9807 25.0352 12.8107 24.9487C12.4924 24.7562 12.1645 24.5801 11.8283 24.4209C11.5066 24.2688 11.1926 24.1397 10.896 24.0357C10.7477 23.9818 10.5993 23.9278 10.4645 23.8912C10.4361 23.8806 10.4056 23.8768 10.3755 23.8801C10.3454 23.8835 10.3165 23.8939 10.2911 23.9105C10.2727 23.9303 10.2615 23.9557 10.2594 23.9826C10.2573 24.0096 10.2644 24.0364 10.2796 24.0588C10.3473 24.1625 10.4384 24.2489 10.5454 24.3111C10.6417 24.3843 10.738 24.4479 10.8247 24.5038C11.0038 24.6213 11.1637 24.7157 11.2947 24.7889C11.4257 24.8621 11.5297 24.9179 11.601 24.9545C11.6424 24.9724 11.6813 24.9957 11.7166 25.0239Z" fill="black"/>
</g>
<path d="M18.9959 16.4521L18.9708 16.4309L15.7251 14.5047L2.8693 13.6051L2.75758 15.2L3.97111 15.9705L2.68823 16.219L2.53413 18.4034L14.577 19.2452C15.0494 19.2782 15.5222 19.1872 15.9485 18.9813L18.3313 17.8255C18.8321 17.5847 18.9959 17.0261 18.9959 16.4521Z" fill="#3BEAA8"/>
<path opacity="0.3" d="M18.9959 16.4521L18.9708 16.4309L15.7251 14.5047L2.8693 13.6051L2.75758 15.2L3.97111 15.9705L2.68823 16.219L2.53413 18.4034L14.577 19.2452C15.0494 19.2782 15.5222 19.1872 15.9485 18.9813L18.3313 17.8255C18.553 17.6752 18.7312 17.4691 18.8479 17.228C18.9646 16.9869 19.0156 16.7192 18.9959 16.4521Z" fill="black"/>
<path d="M18.8032 16.1939L16.2259 14.208C15.9362 13.983 15.5863 13.849 15.2204 13.8227L2.92516 12.9617L2.81343 14.5585L4.02698 15.3175L2.74409 15.566L2.58999 17.7503L14.8679 18.6114C15.1917 18.6338 15.5157 18.5714 15.8079 18.4303L18.7185 17.0222C18.7932 16.9854 18.8573 16.9303 18.9048 16.862C18.9523 16.7936 18.9817 16.7143 18.9902 16.6315C18.9986 16.5487 18.9859 16.4651 18.9532 16.3886C18.9205 16.312 18.8689 16.245 18.8032 16.1939Z" fill="#3BEAA8"/>
<g opacity="0.2">
<path opacity="0.2" d="M3.10238 17.8062C3.10238 17.8062 3.10238 17.7947 3.12164 17.7773C3.14127 17.7505 3.16318 17.7253 3.18713 17.7022C3.27714 17.6111 3.3812 17.535 3.49534 17.4768C3.92595 17.2867 4.39226 17.1908 4.86297 17.1956C6.3995 17.1013 7.94171 17.173 9.46286 17.4094C10.3547 17.5443 11.1965 17.7427 11.9516 17.9025C12.6234 18.0546 13.3031 18.1697 13.9876 18.2473C14.4487 18.2982 14.9132 18.3118 15.3764 18.2878C15.7039 18.2705 15.885 18.2435 15.8869 18.2551C15.8442 18.2678 15.8003 18.2762 15.7559 18.2801C15.6285 18.3026 15.4998 18.318 15.3707 18.3263C14.9055 18.3688 14.4374 18.3688 13.9722 18.3263C13.284 18.2572 12.6003 18.1486 11.9246 18.0008C11.1541 17.8448 10.3258 17.6502 9.43975 17.5154C7.92464 17.2834 6.3902 17.2027 4.85912 17.2746C4.39781 17.265 3.93928 17.3482 3.51074 17.5192C3.36052 17.5931 3.22274 17.6899 3.10238 17.8062Z" fill="black"/>
<path opacity="0.2" d="M18.4604 16.0033C18.4521 16.058 18.4379 16.1116 18.418 16.1632C18.3601 16.3128 18.2752 16.4506 18.1676 16.5696C17.9953 16.7564 17.786 16.9053 17.5531 17.0069C17.2455 17.1338 16.921 17.2156 16.59 17.2496C15.7314 17.3485 14.8671 17.3897 14.003 17.3729C13.0303 17.3613 11.9612 17.2881 10.842 17.1802L5.11915 16.6274L3.38553 16.4463L2.9136 16.3924C2.85905 16.3887 2.80492 16.3803 2.75179 16.3674C2.80625 16.3622 2.86106 16.3622 2.91552 16.3674L3.38938 16.402L5.12301 16.5504L10.8497 17.0743C11.967 17.1764 13.0322 17.2515 14.003 17.2669C14.8627 17.2885 15.723 17.2551 16.5784 17.1668C16.9085 17.1374 17.2327 17.0615 17.5415 16.9414C17.7704 16.8478 17.9771 16.7074 18.1483 16.5292C18.2879 16.3776 18.3942 16.1985 18.4604 16.0033Z" fill="black"/>
<path opacity="0.2" d="M13.5658 15.3927C13.6121 15.362 13.6603 15.3343 13.7102 15.3098C13.8536 15.2403 14.0009 15.1792 14.1513 15.1268C14.7087 14.9388 15.301 14.8776 15.885 14.9477C16.0815 14.969 16.2752 15.0109 16.4628 15.0729C16.6721 15.1392 16.857 15.2659 16.9945 15.437C17.0699 15.5304 17.1205 15.6413 17.1417 15.7595C17.1629 15.8776 17.154 15.9993 17.1158 16.1131C17.0057 16.3405 16.8106 16.5155 16.5726 16.6004C15.6557 16.9857 14.5501 17.0762 13.4232 17.0203C13.1401 17.0069 12.8627 16.9934 12.5872 16.9664C12.3081 16.9501 12.0366 16.8697 11.7936 16.7314C11.6735 16.6625 11.571 16.5669 11.4938 16.452C11.4166 16.3371 11.367 16.206 11.3486 16.0688C11.3345 15.803 11.4251 15.5423 11.601 15.3426C11.7638 15.1606 11.9599 15.0115 12.1788 14.9034C12.385 14.7955 12.5911 14.7108 12.7933 14.6183C13.1666 14.4641 13.5535 14.3454 13.9491 14.2639C14.5251 14.1452 15.1171 14.1244 15.7 14.2022C15.8582 14.2215 16.0151 14.2498 16.17 14.287C16.2252 14.297 16.2793 14.3118 16.3319 14.3313C16.2762 14.3263 16.2209 14.3179 16.1662 14.3063C16.0602 14.287 15.9004 14.2619 15.6962 14.2408C15.1171 14.1798 14.5319 14.211 13.9626 14.3332C13.5709 14.4189 13.188 14.5401 12.8184 14.6954C12.6257 14.782 12.4139 14.8745 12.2116 14.9804C12.0037 15.0853 11.8175 15.2284 11.6626 15.4023C11.5034 15.5829 11.4212 15.8187 11.4334 16.0591C11.4509 16.1819 11.4965 16.299 11.5666 16.4012C11.6368 16.5035 11.7296 16.5881 11.8379 16.6486C12.0677 16.7778 12.324 16.8529 12.5872 16.8682C12.8588 16.8932 13.1381 16.9067 13.4194 16.9202C14.5385 16.976 15.6307 16.8951 16.5245 16.5157C16.741 16.4418 16.92 16.2863 17.0234 16.0823C17.0574 15.9822 17.0655 15.8751 17.047 15.771C17.0285 15.6669 16.9839 15.5692 16.9174 15.487C16.7915 15.3277 16.6213 15.209 16.4282 15.1461C16.2479 15.0832 16.0612 15.0406 15.8715 15.019C15.2944 14.942 14.7075 14.9913 14.1513 15.1634C13.9587 15.2251 13.8085 15.2886 13.7083 15.3291C13.6625 15.354 13.6149 15.3752 13.5658 15.3927Z" fill="black"/>
<path opacity="0.2" d="M2.8539 13.6821C2.89468 13.6808 2.93545 13.6847 2.97525 13.6937C3.09071 13.7129 3.20419 13.7425 3.31427 13.7823C3.71764 13.9342 4.09219 14.1538 4.42186 14.4314C4.85142 14.7647 5.30216 15.2347 5.90122 15.6161C6.56287 16.0155 7.33558 16.1911 8.10485 16.1169C8.87708 16.0493 9.63045 15.8411 10.3277 15.5024C10.8967 15.2261 11.4498 14.918 11.9843 14.5798C12.4466 14.2985 12.8261 14.077 13.0938 13.9364C13.2287 13.8651 13.3346 13.8131 13.4059 13.7804C13.4417 13.7598 13.4798 13.7436 13.5195 13.7322C13.4874 13.7579 13.4525 13.7798 13.4155 13.7977L13.1131 13.9711C12.8511 14.1213 12.4794 14.3563 12.0228 14.6414C11.4907 14.989 10.9382 15.3041 10.3682 15.5853C9.66455 15.9335 8.90227 16.1477 8.12026 16.2171C7.71433 16.248 7.30605 16.2188 6.90865 16.1304C6.53711 16.0479 6.18304 15.9006 5.8627 15.6951C5.25208 15.3098 4.80711 14.8244 4.38719 14.4873C4.06631 14.2084 3.70277 13.9827 3.31042 13.8189C3.16087 13.765 3.00846 13.7193 2.8539 13.6821Z" fill="black"/>
<path opacity="0.2" d="M7.24573 14.1637C7.28609 14.1599 7.32673 14.1599 7.36709 14.1637C7.44607 14.1637 7.55971 14.1811 7.71381 14.1888C7.86791 14.1965 8.04898 14.2023 8.26279 14.1984C8.37066 14.1984 8.48431 14.1984 8.60567 14.183C8.72904 14.1854 8.85141 14.1604 8.96395 14.1098C8.9888 14.0993 9.00925 14.0805 9.02188 14.0566C9.03451 14.0328 9.03854 14.0053 9.03329 13.9788C9.02174 13.9287 8.96395 13.8921 8.89845 13.869C8.76362 13.8286 8.60952 13.7958 8.45735 13.7612C8.14722 13.6937 7.81398 13.6359 7.45955 13.5916C7.10512 13.5473 6.73335 13.5223 6.34617 13.5146C6.15678 13.4953 5.96556 13.5231 5.78949 13.5955C5.74927 13.6135 5.71346 13.6401 5.68452 13.6734C5.65559 13.7066 5.63422 13.7458 5.62191 13.7881C5.61186 13.8314 5.6113 13.8764 5.62028 13.92C5.62926 13.9635 5.64755 14.0046 5.67391 14.0405C5.79694 14.1935 5.95302 14.3166 6.13043 14.4007C6.30076 14.4975 6.47854 14.5806 6.66208 14.6492C7.00727 14.7819 7.36882 14.8675 7.73693 14.9034C8.36407 14.9619 8.9962 14.8722 9.58228 14.6414C9.97725 14.4849 10.3462 14.2692 10.6764 14.0019C10.9114 13.8093 11.025 13.6899 11.0308 13.6957C11.0366 13.7014 11.0077 13.7303 10.9538 13.79C10.8786 13.8795 10.7982 13.9644 10.713 14.0443C10.3076 14.3962 9.83554 14.6628 9.32489 14.8283C8.81424 14.9938 8.27549 15.0547 7.74078 15.0074C7.3631 14.974 6.99175 14.8891 6.63704 14.7551C6.44946 14.685 6.26781 14.6 6.09383 14.5008C5.90222 14.4126 5.73398 14.2807 5.60264 14.1156C5.56834 14.068 5.54473 14.0137 5.53342 13.9561C5.52212 13.8986 5.52339 13.8393 5.53715 13.7823C5.55329 13.7269 5.58129 13.6756 5.61921 13.632C5.65712 13.5885 5.70405 13.5536 5.75674 13.53C5.94718 13.4506 6.1543 13.4195 6.35966 13.4395C6.73526 13.4472 7.11016 13.4755 7.48267 13.5242C7.83902 13.5705 8.17611 13.6321 8.48624 13.7034C8.64419 13.74 8.78866 13.7727 8.93698 13.8189C8.97783 13.8298 9.01546 13.8503 9.04666 13.8788C9.07785 13.9073 9.10168 13.943 9.11612 13.9827C9.12474 14.0245 9.1192 14.0681 9.10037 14.1064C9.08154 14.1448 9.05049 14.1758 9.01211 14.1946C8.89108 14.2486 8.75932 14.2743 8.62686 14.2697C8.50358 14.2697 8.388 14.2697 8.28013 14.2697C8.06439 14.2697 7.87947 14.2562 7.72923 14.2427C7.57898 14.2292 7.46147 14.2138 7.3825 14.2003C7.33535 14.195 7.28926 14.1826 7.24573 14.1637Z" fill="black"/>
</g>
<path d="M0.619438 7.85515L4.54899 10.2668L17.426 9.80451L17.3701 8.20573L16.0834 7.57584L17.3335 7.19445L17.2545 5.00623L4.46038 5.46467L0.619438 7.85515Z" fill="#3BEAA8"/>
<path opacity="0.3" d="M0.619438 7.85515L4.54899 10.2668L17.426 9.80451L17.3701 8.20573L16.0834 7.57584L17.3335 7.19445L17.2545 5.00623L4.46038 5.46467L0.619438 7.85515Z" fill="black"/>
<path d="M0.234187 8.31758L3.00799 10.0185C3.31995 10.2107 3.68199 10.3059 4.04816 10.292L16.3646 9.85088L16.3068 8.25209L15.0201 7.62413L16.2702 7.23888L16.1932 5.05066L3.89406 5.4937C3.56927 5.50505 3.25313 5.60135 2.97717 5.773L0.232259 7.48159C0.161065 7.52575 0.102354 7.58739 0.0617015 7.66065C0.0210493 7.73391 -0.000191736 7.81634 1.30411e-06 7.90012C0.000194345 7.9839 0.0218114 8.06624 0.0628008 8.13931C0.10379 8.21237 0.162791 8.27374 0.234187 8.31758Z" fill="#3BEAA8"/>
<g opacity="0.2">
<path opacity="0.2" d="M15.6712 5.0564C15.6672 5.0676 15.6613 5.07803 15.6538 5.08722C15.6375 5.11572 15.6188 5.14279 15.598 5.16812C15.5175 5.26826 15.4219 5.35533 15.3148 5.42624C14.9064 5.65926 14.4536 5.80365 13.9857 5.85001C12.4672 6.10545 10.9258 6.19715 9.38772 6.12354C8.48624 6.08309 7.63484 5.97329 6.86049 5.89432C6.17631 5.81338 5.4883 5.76902 4.7994 5.7614C4.33563 5.75908 3.87244 5.79452 3.41442 5.86735C3.09081 5.91936 2.9136 5.96559 2.90974 5.95403C2.95138 5.93887 2.99383 5.92601 3.03688 5.91551C3.12163 5.89432 3.24492 5.85772 3.40672 5.82882C3.86586 5.74101 4.33195 5.6946 4.7994 5.69013C5.49109 5.68576 6.18247 5.72114 6.87011 5.79608C7.64061 5.8712 8.49587 5.97715 9.39158 6.0176C10.9234 6.08913 12.4586 6.00718 13.9741 5.77296C14.4353 5.73389 14.8839 5.6029 15.2936 5.38771C15.4352 5.29659 15.5624 5.18493 15.6712 5.0564Z" fill="black"/>
<path opacity="0.2" d="M0.588608 8.4717C0.589992 8.41628 0.598407 8.36126 0.61365 8.30796C0.655183 8.15326 0.725071 8.00761 0.81976 7.87841C0.97059 7.67365 1.1629 7.50299 1.38415 7.37758C1.6787 7.21827 1.99462 7.10215 2.32223 7.03279C3.16495 6.8487 4.01882 6.72001 4.87837 6.64754C5.84149 6.557 6.9202 6.51655 8.0432 6.49922L13.795 6.43565H15.5382H16.0121C16.0672 6.43112 16.1226 6.43112 16.1778 6.43565C16.123 6.44459 16.0676 6.4491 16.0121 6.44913L15.5382 6.46262L13.8046 6.49922L8.05476 6.58204C6.93175 6.59938 5.86461 6.63598 4.89763 6.72266C4.03705 6.79813 3.18205 6.92744 2.33764 7.10984C2.01503 7.17427 1.70312 7.28386 1.41111 7.43537C1.19347 7.55281 1.00259 7.71417 0.850575 7.90923C0.724372 8.07603 0.635077 8.26776 0.588608 8.4717Z" fill="black"/>
<path opacity="0.2" d="M5.51211 8.55441C5.47025 8.5912 5.42511 8.62408 5.37727 8.65265C5.24255 8.73832 5.10227 8.8149 4.95735 8.88187C4.42151 9.1292 3.83694 9.25296 3.24684 9.24401C3.05256 9.24247 2.85893 9.22118 2.66896 9.18044C2.45468 9.13643 2.25826 9.02985 2.10457 8.87417C2.0196 8.78906 1.95742 8.68392 1.92375 8.56846C1.89009 8.45299 1.88603 8.33091 1.91195 8.21347C1.99774 7.97586 2.17345 7.78147 2.40122 7.67219C3.26996 7.18485 4.36214 6.98644 5.48322 6.92095C5.76638 6.90554 6.04376 6.89013 6.32114 6.88628C6.60021 6.87355 6.87845 6.92563 7.13402 7.03845C7.2608 7.09403 7.37311 7.17799 7.46228 7.28387C7.55146 7.38974 7.61511 7.51469 7.64832 7.64908C7.69029 7.91216 7.62735 8.18121 7.47303 8.39839C7.32957 8.59614 7.1498 8.76479 6.94331 8.89536C6.75069 9.02634 6.55806 9.13807 6.36544 9.24401C6.00888 9.43752 5.63481 9.59682 5.24822 9.71979C4.68797 9.89738 4.10213 9.9807 3.51459 9.96635C3.35548 9.96344 3.19665 9.95186 3.03881 9.93168C2.98347 9.92817 2.92862 9.91914 2.87507 9.90471C2.93023 9.90087 2.98558 9.90087 3.04073 9.90471C3.1486 9.90471 3.30848 9.92205 3.51459 9.92205C4.09632 9.92065 4.6742 9.82769 5.22702 9.6466C5.60803 9.52114 5.9763 9.3599 6.32692 9.16503C6.51954 9.05909 6.71217 8.94544 6.90479 8.81638C7.10132 8.69148 7.272 8.52995 7.40754 8.3406C7.54596 8.14354 7.60258 7.9005 7.56549 7.66256C7.53487 7.54252 7.47709 7.43111 7.3966 7.33693C7.31611 7.24275 7.21507 7.16831 7.10127 7.11936C6.85837 7.01498 6.59482 6.96754 6.33077 6.98067C6.05917 6.98067 5.77986 6.99993 5.49863 7.01534C4.37947 7.08083 3.3027 7.27538 2.45322 7.74731C2.24501 7.84261 2.08297 8.01643 2.00248 8.2308C1.98006 8.33361 1.98383 8.44041 2.01345 8.54139C2.04307 8.64236 2.09758 8.73427 2.17199 8.80868C2.31391 8.95408 2.49544 9.05456 2.69401 9.09761C2.87979 9.14046 3.06967 9.16307 3.26032 9.16503C3.8422 9.17974 4.42039 9.0687 4.95542 8.8395C5.10033 8.77642 5.24179 8.70569 5.3792 8.62761C5.42194 8.60047 5.46633 8.57602 5.51211 8.55441Z" fill="black"/>
<path opacity="0.2" d="M16.353 9.13236C16.3127 9.13615 16.2721 9.13615 16.2317 9.13236C16.1148 9.12542 15.9988 9.10802 15.885 9.08035C15.4674 8.97149 15.0713 8.79236 14.7138 8.55063C14.2515 8.26555 13.7507 7.84563 13.1189 7.52972C12.4188 7.20243 11.632 7.10922 10.8748 7.2639C10.1174 7.4141 9.39357 7.70062 8.73858 8.10952C8.20183 8.44452 7.68415 8.80915 7.18795 9.20171C6.75839 9.5311 6.40396 9.79114 6.15162 9.95872C6.02642 10.0435 5.92625 10.107 5.85883 10.1513C5.82491 10.1747 5.78878 10.1947 5.75096 10.2111C5.78043 10.1822 5.81269 10.1564 5.84727 10.134L6.13043 9.92983C6.37507 9.75261 6.71987 9.48486 7.14364 9.1497C7.63456 8.74747 8.14915 8.37503 8.68464 8.0344C9.34744 7.61487 10.0822 7.32163 10.8517 7.16951C11.2525 7.09514 11.6621 7.08086 12.0671 7.12713C12.4453 7.17126 12.8129 7.28076 13.1535 7.45074C13.8008 7.77821 14.2939 8.20584 14.7466 8.49477C15.0984 8.73449 15.4858 8.91716 15.8946 9.03605C16.1855 9.1208 16.355 9.1208 16.353 9.13236Z" fill="black"/>
<path opacity="0.2" d="M11.9304 9.11694C11.89 9.1194 11.8494 9.1194 11.809 9.11694C11.73 9.11694 11.6164 9.11694 11.4623 9.1285C11.3082 9.14006 11.1271 9.15161 10.9152 9.17858C10.8093 9.19206 10.6957 9.2094 10.5762 9.23059C10.4531 9.24004 10.3339 9.27761 10.2276 9.34039C10.204 9.35335 10.1856 9.374 10.1755 9.39889C10.1653 9.42378 10.164 9.4514 10.1717 9.47715C10.187 9.50328 10.2082 9.52544 10.2336 9.54184C10.2591 9.55823 10.288 9.56841 10.3181 9.57154C10.4549 9.5985 10.6128 9.61584 10.7688 9.63318C11.0828 9.66785 11.4218 9.69096 11.7763 9.69482C12.1491 9.70164 12.522 9.68879 12.8935 9.65629C13.0837 9.65442 13.2707 9.60686 13.4386 9.5176C13.4764 9.49534 13.509 9.46527 13.5343 9.42939C13.5595 9.39352 13.5768 9.35266 13.585 9.30957C13.5899 9.26553 13.5853 9.22096 13.5717 9.1788C13.5581 9.13663 13.5357 9.09783 13.506 9.06493C13.3679 8.92573 13.1999 8.81969 13.0149 8.75481C12.8352 8.67631 12.6497 8.6119 12.4601 8.56218C12.1026 8.4671 11.734 8.42045 11.3641 8.42349C10.7342 8.43066 10.1149 8.58712 9.55723 8.88001C9.18072 9.07628 8.83644 9.32897 8.53632 9.62932C8.32444 9.84314 8.22234 9.97798 8.21464 9.9722C8.23459 9.93612 8.25781 9.90195 8.28399 9.87011C8.35308 9.77649 8.42769 9.68708 8.50743 9.60236C8.87416 9.21044 9.31574 8.89602 9.80606 8.67766C10.2964 8.4593 10.8255 8.34143 11.3621 8.33103C11.7409 8.32467 12.1187 8.37004 12.4851 8.46587C12.6792 8.51562 12.8691 8.58001 13.0534 8.65849C13.2537 8.72913 13.435 8.84517 13.5831 8.99751C13.6223 9.04094 13.6516 9.09238 13.6689 9.14827C13.6862 9.20416 13.6911 9.26315 13.6833 9.32112C13.6741 9.37861 13.6519 9.43326 13.6186 9.48097C13.5852 9.52867 13.5415 9.5682 13.4906 9.59658C13.3088 9.69483 13.1059 9.7477 12.8993 9.75068C12.5252 9.78232 12.1496 9.79325 11.7744 9.78342C11.4141 9.78342 11.0732 9.75068 10.7573 9.71215C10.5974 9.69096 10.4491 9.67363 10.2969 9.64281C10.2557 9.63624 10.2167 9.61986 10.1832 9.59505C10.1497 9.57024 10.1226 9.53773 10.1043 9.50027C10.0915 9.45939 10.0927 9.41541 10.1077 9.3753C10.1227 9.33518 10.1506 9.30121 10.1871 9.27875C10.3045 9.21001 10.4366 9.17038 10.5724 9.16317C10.6918 9.14391 10.8074 9.13043 10.9152 9.11887C11.1291 9.09768 11.314 9.08805 11.4661 9.08612C11.6183 9.0842 11.7358 9.08612 11.8148 9.08612C11.8546 9.09088 11.8935 9.10126 11.9304 9.11694Z" fill="black"/>
</g>
</svg>
