<svg width="111" height="302" viewBox="0 0 111 302" fill="none" xmlns="http://www.w3.org/2000/svg">
<path d="M60.0494 2.77351C59.9995 2.35449 59.8428 1.95531 59.5944 1.61423C59.3459 1.27315 59.014 1.0016 58.6305 0.825609C57.5568 0.289609 56.3732 0.0105896 55.1733 0.0105896C53.9733 0.0105896 52.7897 0.289609 51.7161 0.825609C51.3308 1.0009 50.997 1.27199 50.7463 1.61299C50.4956 1.95399 50.3365 2.35354 50.2842 2.77351V247.654C50.2842 249.176 52.4643 250.415 55.1604 250.415C57.8565 250.415 60.0494 249.125 60.0494 247.654V2.77351Z" fill="#37474F"/>
<path d="M55.1604 5.54702C57.8605 5.54702 60.0494 4.30529 60.0494 2.77353C60.0494 1.24177 57.8605 3.05176e-05 55.1604 3.05176e-05C52.4602 3.05176e-05 50.2712 1.24177 50.2712 2.77353C50.2712 4.30529 52.4602 5.54702 55.1604 5.54702Z" fill="#455A64"/>
<path d="M110.411 96.0663L100.826 79.4511L37.0746 42.6732L32.25 45.4596V67.596L96.0018 104.374L100.917 101.665L110.411 96.0663Z" fill="#3BEAA8"/>
<path d="M32.25 45.4596L96.0018 82.2375L105.587 98.8398L96.0018 104.374L32.25 67.596V45.4596Z" fill="#3BEAA8"/>
<g opacity="0.3">
<path opacity="0.3" d="M32.25 45.4596L96.0018 82.2375L105.612 98.8914L96.0018 104.374L32.25 67.596V45.4596Z" fill="black"/>
</g>
<path opacity="0.1" d="M100.826 79.4511L96.0018 82.2375L32.25 45.4596L37.0746 42.6732L100.826 79.4511Z" fill="black"/>
<path opacity="0.2" d="M96.002 82.2375L100.827 79.4511L110.411 96.0663L105.612 98.8914L96.002 82.2375Z" fill="black"/>
<path d="M89.4486 39.6547L25.6968 2.81229L16.1121 8.34638L25.6968 24.9616L89.4486 61.7911V39.6547Z" fill="#3BEAA8"/>
<path d="M25.6968 2.81223L30.3794 3.05176e-05L94.2344 36.894L89.4486 39.6546L25.6968 2.81223Z" fill="#3BEAA8"/>
<g opacity="0.4">
<path opacity="0.4" d="M25.6968 2.81223L30.3794 3.05176e-05L94.2344 36.894L89.4486 39.6546L25.6968 2.81223Z" fill="white"/>
</g>
<path d="M94.2344 59.0304L89.4485 61.791V39.6546L94.2344 36.894V59.0304Z" fill="#3BEAA8"/>
<path opacity="0.1" d="M94.2344 59.0304L89.4485 61.791V39.6546L94.2344 36.894V59.0304Z" fill="black"/>
<path d="M73.3365 108.076L9.58469 71.2338L0 76.7679L9.58469 93.3831L73.3365 130.213V108.076Z" fill="#3BEAA8"/>
<path d="M9.58472 71.2339L14.2803 68.4217L78.1224 105.316L73.3365 108.076L9.58472 71.2339Z" fill="#3BEAA8"/>
<g opacity="0.4">
<path opacity="0.4" d="M9.58472 71.2339L14.2803 68.4217L78.1224 105.316L73.3365 108.076L9.58472 71.2339Z" fill="white"/>
</g>
<path d="M78.1223 127.452L73.3364 130.213V108.076L78.1223 105.316V127.452Z" fill="#3BEAA8"/>
<path opacity="0.1" d="M78.1223 127.452L73.3364 130.213V108.076L78.1223 105.316V127.452Z" fill="black"/>
<path d="M66.7436 289.101L74.303 284.78C74.303 284.78 77.9279 264.811 75.2189 247.641C71.3489 223.505 54.9788 215.184 49.0061 217.584C43.0334 219.983 41.6402 227.13 52.4117 241.075C58.7714 249.305 67.0016 266.746 66.7436 289.101Z" fill="#3BEAA8"/>
<path opacity="0.3" d="M66.7436 289.101L74.303 284.78C74.303 284.78 77.9279 264.811 75.2189 247.641C71.3489 223.505 54.9788 215.184 49.0061 217.584C43.0334 219.983 41.6402 227.13 52.4117 241.075C58.7714 249.305 67.0016 266.746 66.7436 289.101Z" fill="black"/>
<path d="M69.4912 279.517H69.4138C69.2721 279.497 69.1437 279.423 69.0567 279.309C68.9697 279.196 68.9311 279.052 68.9494 278.91C72.0712 256.309 62.9897 231.554 52.7729 221.583C52.6728 221.481 52.6167 221.345 52.6167 221.202C52.6167 221.06 52.6728 220.923 52.7729 220.822C52.8222 220.77 52.8813 220.73 52.9467 220.702C53.0121 220.674 53.0824 220.66 53.1534 220.66C53.2244 220.66 53.2947 220.674 53.3601 220.702C53.4255 220.73 53.4846 220.77 53.5339 220.822C63.9313 230.987 73.1935 256.142 70.0201 279.078C69.9941 279.2 69.9277 279.309 69.8318 279.389C69.7358 279.469 69.6159 279.513 69.4912 279.517Z" fill="white"/>
<path d="M45.7811 301.201C44.5943 301.898 42.1304 300.389 41.1887 299.757C39.5708 298.659 38.2643 297.161 37.3961 295.409C36.4153 293.411 36.0859 291.155 36.4544 288.959C36.6412 287.806 36.9128 286.667 37.2671 285.554C37.5767 284.444 37.8992 283.348 38.2088 282.238C38.6013 281.171 38.7683 280.033 38.699 278.897C38.4152 276.64 36.4028 275.027 34.571 273.737C32.7392 272.447 30.443 270.229 30.4559 267.507C30.6045 265.389 31.448 263.381 32.8553 261.792C34.1453 260.141 35.7062 258.683 36.893 256.942C37.8175 255.728 38.2999 254.235 38.2604 252.71C38.1294 251.778 37.8183 250.88 37.3445 250.066C36.235 248.38 35.2643 246.607 34.442 244.764C34.0474 243.831 33.924 242.806 34.086 241.807C34.248 240.807 34.6889 239.874 35.3579 239.114C36.025 238.62 36.7835 238.262 37.5894 238.063C38.3954 237.864 39.2329 237.826 40.0535 237.953C41.6007 238.143 43.0883 238.667 44.4137 239.488C48.7352 241.887 51.212 247.021 55.8044 248.866C57.6209 249.442 59.474 249.894 61.3514 250.221C62.2937 250.397 63.1889 250.768 63.9797 251.31C64.7705 251.852 65.4394 252.553 65.9438 253.368C67.6208 256.735 64.499 260.876 65.6858 264.449C66.7307 267.61 69.8009 268.822 71.5295 271.673C72.2317 272.933 72.512 274.384 72.3293 275.814C72.177 278.231 71.5869 280.6 70.5878 282.806C69.4586 285.003 68.1649 287.112 66.7178 289.114C66.6791 289.166 45.9746 301.098 45.7811 301.201Z" fill="#3BEAA8"/>
<path opacity="0.15" d="M45.7811 301.201C44.5943 301.898 42.1304 300.389 41.1887 299.757C39.5708 298.659 38.2643 297.161 37.3961 295.409C36.4153 293.411 36.0859 291.155 36.4544 288.959C36.6412 287.806 36.9128 286.667 37.2671 285.554C37.5767 284.444 37.8992 283.348 38.2088 282.238C38.6013 281.171 38.7683 280.033 38.699 278.897C38.4152 276.64 36.4028 275.027 34.571 273.737C32.7392 272.447 30.443 270.229 30.4559 267.507C30.6045 265.389 31.448 263.381 32.8553 261.792C34.1453 260.141 35.7062 258.683 36.893 256.942C37.8175 255.728 38.2999 254.235 38.2604 252.71C38.1294 251.778 37.8183 250.88 37.3445 250.066C36.235 248.38 35.2643 246.607 34.442 244.764C34.0474 243.831 33.924 242.806 34.086 241.807C34.248 240.807 34.6889 239.874 35.3579 239.114C36.025 238.62 36.7835 238.262 37.5894 238.063C38.3954 237.864 39.2329 237.826 40.0535 237.953C41.6007 238.143 43.0883 238.667 44.4137 239.488C48.7352 241.887 51.212 247.021 55.8044 248.866C57.6209 249.442 59.474 249.894 61.3514 250.221C62.2937 250.397 63.1889 250.768 63.9797 251.31C64.7705 251.852 65.4394 252.553 65.9438 253.368C67.6208 256.735 64.499 260.876 65.6858 264.449C66.7307 267.61 69.8009 268.822 71.5295 271.673C72.2317 272.933 72.512 274.384 72.3293 275.814C72.177 278.231 71.5869 280.6 70.5878 282.806C69.4586 285.003 68.1649 287.112 66.7178 289.114C66.6791 289.166 45.9746 301.098 45.7811 301.201Z" fill="black"/>
<path d="M58.0489 294.674C57.9041 294.667 57.7676 294.604 57.6687 294.498C57.5699 294.392 57.5165 294.251 57.52 294.106C58.4101 272.718 48.3352 249.111 41.008 242.248C40.9569 242.199 40.9163 242.14 40.8885 242.075C40.8608 242.009 40.8464 241.939 40.8464 241.868C40.8464 241.797 40.8608 241.726 40.8885 241.661C40.9163 241.596 40.9569 241.537 41.008 241.487C41.1094 241.387 41.2461 241.331 41.3886 241.331C41.531 241.331 41.6677 241.387 41.7691 241.487C49.2511 248.492 59.5324 272.447 58.6294 294.184C58.6132 294.324 58.5441 294.453 58.4363 294.544C58.3284 294.635 58.1899 294.681 58.0489 294.674Z" fill="white"/>
<path d="M54.8497 269.403C54.7944 269.414 54.7374 269.414 54.682 269.403C49.6275 268.012 44.4373 267.173 39.202 266.9C39.1248 266.912 39.0458 266.908 38.9706 266.886C38.8954 266.865 38.8257 266.827 38.7663 266.777C38.7069 266.726 38.6592 266.663 38.6265 266.591C38.5938 266.52 38.5769 266.443 38.5769 266.365C38.5769 266.287 38.5938 266.21 38.6265 266.138C38.6592 266.067 38.7069 266.004 38.7663 265.953C38.8257 265.903 38.8954 265.865 38.9706 265.844C39.0458 265.822 39.1248 265.818 39.202 265.83C44.5431 266.116 49.8373 266.981 54.9916 268.41C55.1271 268.457 55.2397 268.554 55.3067 268.68C55.3737 268.807 55.3902 268.955 55.3528 269.093C55.3079 269.188 55.2365 269.268 55.1472 269.323C55.0579 269.378 54.9546 269.406 54.8497 269.403Z" fill="white"/>
<path d="M66.2878 288.913L73.8472 284.592C73.8472 284.592 77.4721 264.623 74.7631 247.453C70.8931 223.317 54.523 214.997 48.5503 217.396C42.5776 219.795 41.1844 226.942 51.9559 240.887C58.3156 249.117 66.5458 266.558 66.2878 288.913Z" fill="#3BEAA8"/>
<path opacity="0.3" d="M66.2878 288.913L73.8472 284.592C73.8472 284.592 77.4721 264.623 74.7631 247.453C70.8931 223.317 54.523 214.997 48.5503 217.396C42.5776 219.795 41.1844 226.942 51.9559 240.887C58.3156 249.117 66.5458 266.558 66.2878 288.913Z" fill="black"/>
<path d="M69.0354 279.329H68.958C68.8163 279.31 68.6879 279.235 68.6008 279.121C68.5138 279.008 68.4753 278.864 68.4936 278.722C71.6154 256.122 62.5338 231.367 52.317 221.395C52.217 221.293 52.1609 221.157 52.1609 221.014C52.1609 220.872 52.217 220.735 52.317 220.634C52.3664 220.583 52.4255 220.542 52.4909 220.514C52.5563 220.486 52.6266 220.472 52.6976 220.472C52.7686 220.472 52.8389 220.486 52.9043 220.514C52.9697 220.542 53.0288 220.583 53.0781 220.634C63.4755 230.799 72.7377 255.954 69.5643 278.89C69.5383 279.012 69.4719 279.122 69.376 279.201C69.28 279.281 69.16 279.326 69.0354 279.329Z" fill="white"/>
<path d="M45.3253 301.014C44.1385 301.71 41.6746 300.201 40.7329 299.569C39.115 298.471 37.8085 296.973 36.9403 295.222C35.9595 293.223 35.6301 290.967 35.9986 288.772C36.1854 287.618 36.457 286.48 36.8113 285.366C37.1209 284.257 37.4433 283.16 37.7529 282.051C38.1455 280.983 38.3124 279.845 38.2432 278.71C37.9594 276.452 35.947 274.84 34.1152 273.55C32.2834 272.26 29.9872 270.041 30.0001 267.319C30.1487 265.202 30.9922 263.193 32.3995 261.604C33.6895 259.953 35.2504 258.495 36.4372 256.754C37.3617 255.54 37.8441 254.048 37.8046 252.523C37.6736 251.59 37.3625 250.692 36.8886 249.878C35.7792 248.192 34.8085 246.419 33.9861 244.576C33.5916 243.644 33.4682 242.619 33.6302 241.619C33.7922 240.62 34.2331 239.686 34.9021 238.926C35.5692 238.432 36.3277 238.075 37.1336 237.875C37.9396 237.676 38.7771 237.639 39.5977 237.765C41.1449 237.956 42.6325 238.479 43.9579 239.3C48.2794 241.699 50.7562 246.834 55.3486 248.678C57.1651 249.254 59.0182 249.706 60.8955 250.033C61.8379 250.209 62.7331 250.58 63.5239 251.122C64.3147 251.664 64.9836 252.365 65.4879 253.18C67.1649 256.547 64.0432 260.688 65.2299 264.262C66.2748 267.422 69.345 268.635 71.0736 271.486C71.7759 272.745 72.0562 274.196 71.8735 275.626C71.7211 278.043 71.1311 280.412 70.132 282.618C69.0027 284.816 67.7091 286.924 66.262 288.926C66.2233 288.978 45.5188 300.91 45.3253 301.014Z" fill="#3BEAA8"/>
<path opacity="0.15" d="M45.3253 301.014C44.1385 301.71 41.6746 300.201 40.7329 299.569C39.115 298.471 37.8085 296.973 36.9403 295.222C35.9595 293.223 35.6301 290.967 35.9986 288.772C36.1854 287.618 36.457 286.48 36.8113 285.366C37.1209 284.257 37.4433 283.16 37.7529 282.051C38.1455 280.983 38.3124 279.845 38.2432 278.71C37.9594 276.452 35.947 274.84 34.1152 273.55C32.2834 272.26 29.9872 270.041 30.0001 267.319C30.1487 265.202 30.9922 263.193 32.3995 261.604C33.6895 259.953 35.2504 258.495 36.4372 256.754C37.3617 255.54 37.8441 254.048 37.8046 252.523C37.6736 251.59 37.3625 250.692 36.8886 249.878C35.7792 248.192 34.8085 246.419 33.9861 244.576C33.5916 243.644 33.4682 242.619 33.6302 241.619C33.7922 240.62 34.2331 239.686 34.9021 238.926C35.5692 238.432 36.3277 238.075 37.1336 237.875C37.9396 237.676 38.7771 237.639 39.5977 237.765C41.1449 237.956 42.6325 238.479 43.9579 239.3C48.2794 241.699 50.7562 246.834 55.3486 248.678C57.1651 249.254 59.0182 249.706 60.8955 250.033C61.8379 250.209 62.7331 250.58 63.5239 251.122C64.3147 251.664 64.9836 252.365 65.4879 253.18C67.1649 256.547 64.0432 260.688 65.2299 264.262C66.2748 267.422 69.345 268.635 71.0736 271.486C71.7759 272.745 72.0562 274.196 71.8735 275.626C71.7211 278.043 71.1311 280.412 70.132 282.618C69.0027 284.816 67.7091 286.924 66.262 288.926C66.2233 288.978 45.5188 300.91 45.3253 301.014Z" fill="black"/>
<path d="M57.5931 294.486C57.4483 294.48 57.3118 294.416 57.2129 294.31C57.1141 294.204 57.0607 294.064 57.0642 293.919C57.9543 272.53 47.8794 248.923 40.5522 242.061C40.5011 242.011 40.4605 241.952 40.4327 241.887C40.4049 241.821 40.3906 241.751 40.3906 241.68C40.3906 241.609 40.4049 241.539 40.4327 241.473C40.4605 241.408 40.5011 241.349 40.5522 241.3C40.6536 241.2 40.7903 241.143 40.9328 241.143C41.0752 241.143 41.2119 241.2 41.3133 241.3C48.7953 248.304 59.0766 272.26 58.1736 293.996C58.1574 294.136 58.0883 294.265 57.9805 294.356C57.8726 294.447 57.7341 294.494 57.5931 294.486Z" fill="white"/>
<path d="M54.3939 269.215C54.3386 269.227 54.2815 269.227 54.2262 269.215C49.1717 267.825 43.9815 266.985 38.7462 266.713C38.669 266.725 38.59 266.72 38.5148 266.698C38.4396 266.677 38.3699 266.64 38.3105 266.589C38.2511 266.538 38.2034 266.475 38.1707 266.404C38.138 266.333 38.1211 266.255 38.1211 266.177C38.1211 266.099 38.138 266.022 38.1707 265.951C38.2034 265.88 38.2511 265.817 38.3105 265.766C38.3699 265.715 38.4396 265.677 38.5148 265.656C38.59 265.635 38.669 265.63 38.7462 265.642C44.0873 265.928 49.3815 266.793 54.5358 268.222C54.6713 268.269 54.7838 268.366 54.8509 268.493C54.9179 268.62 54.9344 268.767 54.897 268.906C54.8521 269 54.7807 269.08 54.6914 269.135C54.6021 269.19 54.4988 269.218 54.3939 269.215Z" fill="white"/>
</svg>
