<svg width="792" height="697" viewBox="0 0 792 697" fill="none" xmlns="http://www.w3.org/2000/svg">
<path d="M580.61 71.0186C645.037 106.448 707.675 144.013 745.258 198.651C782.393 252.863 794.474 323.723 791.342 392.875C788.21 462.027 769.418 529.045 736.31 590.086C702.754 651.128 654.88 706.194 593.585 736.074C532.736 765.955 458.466 770.65 391.353 759.125C324.241 748.026 264.288 720.28 200.307 692.107C136.327 663.934 68.7676 634.907 32.9745 585.391C-2.81865 535.448 -6.84538 465.015 8.36671 402.693C23.1314 340.797 57.1349 286.585 88.4539 229.812C120.22 173.466 149.75 114.132 198.518 70.1649C247.733 26.1978 316.188 -2.40219 383.3 0.158995C450.412 2.29332 516.182 35.5888 580.61 71.0186Z" fill="#F6F6F9"/>
<path d="M394.755 402.886C421.999 402.886 444.084 390.134 444.084 374.403C444.084 358.672 421.999 345.92 394.755 345.92C367.511 345.92 345.425 358.672 345.425 374.403C345.425 390.134 367.511 402.886 394.755 402.886Z" fill="#E0E0E0"/>
<path opacity="0.05" d="M549.052 570.934C589.056 570.934 621.485 552.21 621.485 529.113C621.485 506.015 589.056 487.291 549.052 487.291C509.048 487.291 476.618 506.015 476.618 529.113C476.618 552.21 509.048 570.934 549.052 570.934Z" fill="black"/>
<path d="M261.704 543.844C293.18 543.844 318.696 529.111 318.696 510.937C318.696 492.762 293.18 478.029 261.704 478.029C230.228 478.029 204.712 492.762 204.712 510.937C204.712 529.111 230.228 543.844 261.704 543.844Z" fill="#E0E0E0"/>
<path d="M383.39 236.115V374.145C383.39 375.796 384.487 377.46 386.68 378.725C389.136 379.965 391.849 380.611 394.6 380.611C397.352 380.611 400.065 379.965 402.521 378.725C404.714 377.435 405.81 375.796 405.81 374.145V236.115H383.39Z" fill="#B16668"/>
<path d="M468.801 307.529L399.386 139.881H389.711L320.283 307.581C319.784 308.792 319.558 310.099 319.622 311.408C319.687 312.717 320.04 313.995 320.656 315.151C321.273 316.308 322.137 317.313 323.188 318.096C324.238 318.88 325.449 319.421 326.733 319.681L327.868 319.9C330.069 320.337 332.022 321.591 333.334 323.41C334.646 325.23 335.219 327.479 334.938 329.704C334.757 331.174 334.947 332.666 335.489 334.044C336.032 335.422 336.91 336.643 338.044 337.595C339.179 338.548 340.533 339.201 341.984 339.497C343.435 339.793 344.938 339.722 346.354 339.289L349.786 338.231C351.847 337.597 354.068 337.735 356.035 338.621C358.001 339.506 359.577 341.079 360.467 343.043L363.924 350.654C364.439 351.79 365.187 352.804 366.12 353.631C367.053 354.458 368.15 355.079 369.339 355.454C370.528 355.829 371.782 355.949 373.021 355.806C374.26 355.664 375.454 355.262 376.527 354.627L389.995 346.642C391.361 345.83 392.921 345.402 394.51 345.402C396.099 345.402 397.659 345.83 399.025 346.642L412.492 354.627C413.565 355.262 414.76 355.664 415.999 355.806C417.237 355.949 418.492 355.829 419.681 355.454C420.87 355.079 421.967 354.458 422.9 353.631C423.833 352.804 424.581 351.79 425.096 350.654L428.54 343.043C429.433 341.078 431.011 339.505 432.979 338.619C434.948 337.734 437.171 337.596 439.234 338.231L442.666 339.276C444.08 339.712 445.582 339.787 447.033 339.493C448.485 339.2 449.839 338.547 450.973 337.595C452.107 336.643 452.985 335.422 453.526 334.044C454.067 332.666 454.253 331.174 454.069 329.704C453.795 327.478 454.372 325.23 455.686 323.412C456.999 321.594 458.951 320.339 461.151 319.9L462.286 319.681C463.584 319.433 464.81 318.898 465.874 318.115C466.939 317.333 467.815 316.322 468.439 315.158C469.064 313.993 469.42 312.704 469.483 311.384C469.545 310.065 469.312 308.748 468.801 307.529Z" fill="#3BEAA8"/>
<path opacity="0.3" d="M468.801 307.529L399.386 139.881H389.711L320.283 307.581C319.784 308.792 319.558 310.099 319.622 311.408C319.687 312.717 320.04 313.995 320.656 315.151C321.273 316.308 322.137 317.313 323.188 318.096C324.238 318.88 325.449 319.421 326.733 319.681L327.868 319.9C330.069 320.337 332.022 321.591 333.334 323.41C334.646 325.23 335.219 327.479 334.938 329.704C334.757 331.174 334.947 332.666 335.489 334.044C336.032 335.422 336.91 336.643 338.044 337.595C339.179 338.548 340.533 339.201 341.984 339.497C343.435 339.793 344.938 339.722 346.354 339.289L349.786 338.231C351.847 337.597 354.068 337.735 356.035 338.621C358.001 339.506 359.577 341.079 360.467 343.043L363.924 350.654C364.439 351.79 365.187 352.804 366.12 353.631C367.053 354.458 368.15 355.079 369.339 355.454C370.528 355.829 371.782 355.949 373.021 355.806C374.26 355.664 375.454 355.262 376.527 354.627L389.995 346.642C391.361 345.83 392.921 345.402 394.51 345.402C396.099 345.402 397.659 345.83 399.025 346.642L412.492 354.627C413.565 355.262 414.76 355.664 415.999 355.806C417.237 355.949 418.492 355.829 419.681 355.454C420.87 355.079 421.967 354.458 422.9 353.631C423.833 352.804 424.581 351.79 425.096 350.654L428.54 343.043C429.433 341.078 431.011 339.505 432.979 338.619C434.948 337.734 437.171 337.596 439.234 338.231L442.666 339.276C444.08 339.712 445.582 339.787 447.033 339.493C448.485 339.2 449.839 338.547 450.973 337.595C452.107 336.643 452.985 335.422 453.526 334.044C454.067 332.666 454.253 331.174 454.069 329.704C453.795 327.478 454.372 325.23 455.686 323.412C456.999 321.594 458.951 320.339 461.151 319.9L462.286 319.681C463.584 319.433 464.81 318.898 465.874 318.115C466.939 317.333 467.815 316.322 468.439 315.158C469.064 313.993 469.42 312.704 469.483 311.384C469.545 310.065 469.312 308.748 468.801 307.529Z" fill="black"/>
<path opacity="0.1" d="M381.958 158.612L389.698 140.99H399.373L412.196 170.854L454.095 272.029C453.894 273.092 453.363 274.065 452.578 274.811C451.794 275.556 450.794 276.036 449.722 276.182C448.021 276.463 446.494 277.387 445.456 278.763C444.418 280.139 443.95 281.862 444.149 283.574L444.291 284.864C444.426 286.007 444.264 287.166 443.821 288.229C443.377 289.291 442.668 290.221 441.76 290.929C440.852 291.637 439.777 292.099 438.639 292.271C437.5 292.442 436.337 292.317 435.261 291.907L431.829 290.617C430.227 290.007 428.452 290.033 426.869 290.691C425.286 291.348 424.014 292.587 423.315 294.152L419.058 303.711C418.67 304.575 418.103 305.348 417.395 305.978C416.687 306.608 415.854 307.082 414.951 307.368C414.047 307.654 413.093 307.746 412.152 307.638C411.21 307.531 410.302 307.225 409.487 306.742L397.98 299.002C396.94 298.382 395.753 298.055 394.542 298.055C393.332 298.055 392.144 298.382 391.104 299.002L378.269 306.742C377.453 307.225 376.545 307.531 375.603 307.638C374.662 307.746 373.708 307.654 372.805 307.368C371.901 307.082 371.068 306.608 370.36 305.978C369.653 305.348 369.086 304.575 368.697 303.711L364.44 294.152C363.741 292.587 362.47 291.348 360.886 290.691C359.303 290.033 357.528 290.007 355.926 290.617L352.495 291.907C351.419 292.313 350.256 292.435 349.12 292.262C347.983 292.089 346.91 291.627 346.003 290.92C345.096 290.213 344.387 289.284 343.942 288.224C343.498 287.163 343.333 286.006 343.465 284.864L343.619 283.574C343.818 281.862 343.35 280.139 342.312 278.763C341.275 277.387 339.747 276.463 338.047 276.182C337.279 276.081 336.545 275.806 335.901 275.376C335.257 274.947 334.72 274.375 334.331 273.706L381.958 158.612Z" fill="black"/>
<path d="M453.321 258.793L399.386 133.186H389.711L334.37 258.793C332.383 262.831 333.519 267.643 337.969 268.378C339.67 268.658 341.197 269.582 342.235 270.959C343.272 272.335 343.74 274.058 343.542 275.77L343.387 277.06C343.257 278.202 343.422 279.359 343.867 280.419C344.311 281.479 345.021 282.408 345.927 283.116C346.833 283.824 347.905 284.288 349.041 284.463C350.178 284.638 351.34 284.518 352.417 284.116L355.848 282.826C357.451 282.216 359.225 282.242 360.809 282.899C362.392 283.556 363.664 284.795 364.362 286.361L368.619 295.92C369.005 296.787 369.57 297.562 370.278 298.194C370.985 298.827 371.819 299.302 372.723 299.589C373.628 299.875 374.583 299.967 375.526 299.857C376.468 299.747 377.377 299.438 378.191 298.951L391.027 291.288C392.066 290.668 393.254 290.34 394.465 290.34C395.675 290.34 396.863 290.668 397.902 291.288L409.409 298.951C410.224 299.438 411.132 299.747 412.075 299.857C413.017 299.967 413.973 299.875 414.877 299.589C415.782 299.302 416.615 298.827 417.323 298.194C418.03 297.562 418.595 296.787 418.981 295.92L423.238 286.361C423.937 284.795 425.208 283.556 426.792 282.899C428.375 282.242 430.15 282.216 431.752 282.826L435.183 284.116C436.261 284.522 437.424 284.645 438.562 284.471C439.7 284.298 440.774 283.834 441.681 283.125C442.588 282.417 443.298 281.486 443.741 280.424C444.185 279.362 444.347 278.203 444.213 277.06L444.072 275.77C443.873 274.056 444.34 272.332 445.378 270.953C446.415 269.575 447.943 268.648 449.644 268.365C454.185 267.643 455.32 262.831 453.321 258.793Z" fill="#3BEAA8"/>
<path opacity="0.2" d="M453.321 258.793L399.386 133.186H389.711L334.37 258.793C332.383 262.831 333.519 267.643 337.969 268.378C339.67 268.658 341.197 269.582 342.235 270.959C343.272 272.335 343.74 274.058 343.542 275.77L343.387 277.06C343.257 278.202 343.422 279.359 343.867 280.419C344.311 281.479 345.021 282.408 345.927 283.116C346.833 283.824 347.905 284.288 349.041 284.463C350.178 284.638 351.34 284.518 352.417 284.116L355.848 282.826C357.451 282.216 359.225 282.242 360.809 282.899C362.392 283.556 363.664 284.795 364.362 286.361L368.619 295.92C369.005 296.787 369.57 297.562 370.278 298.194C370.985 298.827 371.819 299.302 372.723 299.589C373.628 299.875 374.583 299.967 375.526 299.857C376.468 299.747 377.377 299.438 378.191 298.951L391.027 291.288C392.066 290.668 393.254 290.34 394.465 290.34C395.675 290.34 396.863 290.668 397.902 291.288L409.409 298.951C410.224 299.438 411.132 299.747 412.075 299.857C413.017 299.967 413.973 299.875 414.877 299.589C415.782 299.302 416.615 298.827 417.323 298.194C418.03 297.562 418.595 296.787 418.981 295.92L423.238 286.361C423.937 284.795 425.208 283.556 426.792 282.899C428.375 282.242 430.15 282.216 431.752 282.826L435.183 284.116C436.261 284.522 437.424 284.645 438.562 284.471C439.7 284.298 440.774 283.834 441.681 283.125C442.588 282.417 443.298 281.486 443.741 280.424C444.185 279.362 444.347 278.203 444.213 277.06L444.072 275.77C443.873 274.056 444.34 272.332 445.378 270.953C446.415 269.575 447.943 268.648 449.644 268.365C454.185 267.643 455.32 262.831 453.321 258.793Z" fill="black"/>
<path opacity="0.1" d="M389.711 133.186H399.386L438.692 224.712C438.388 224.98 438.055 225.213 437.699 225.408L437.402 225.576C436.391 226.148 435.565 226.997 435.021 228.023C434.477 229.05 434.238 230.21 434.332 231.368C434.416 232.333 434.267 233.304 433.896 234.199C433.526 235.095 432.946 235.888 432.204 236.511C431.463 237.135 430.582 237.571 429.637 237.783C428.692 237.994 427.709 237.976 426.773 237.728L424.425 237.108C423.111 236.762 421.719 236.869 420.474 237.413C419.228 237.956 418.202 238.903 417.562 240.101L414.35 246.1C413.595 247.5 412.319 248.547 410.799 249.015C409.279 249.483 407.635 249.335 406.223 248.602L397.348 243.958C396.484 243.507 395.523 243.272 394.549 243.272C393.574 243.272 392.613 243.507 391.749 243.958L382.874 248.602C381.462 249.335 379.819 249.483 378.298 249.015C376.778 248.547 375.503 247.5 374.747 246.1L371.535 240.101C370.892 238.902 369.864 237.954 368.617 237.411C367.369 236.868 365.975 236.761 364.659 237.108L362.324 237.728C361.388 237.976 360.405 237.994 359.46 237.783C358.515 237.571 357.634 237.135 356.893 236.511C356.151 235.888 355.571 235.095 355.201 234.199C354.83 233.304 354.681 232.333 354.765 231.368C354.861 230.212 354.623 229.052 354.079 228.027C353.534 227.003 352.707 226.156 351.695 225.589L351.398 225.421C350.763 225.056 350.2 224.58 349.734 224.015L389.711 133.186Z" fill="black"/>
<path d="M439.892 209.386L399.347 124.156L399.025 123.64C398.573 122.852 397.921 122.197 397.135 121.742C396.349 121.287 395.457 121.047 394.548 121.047C393.64 121.047 392.748 121.287 391.962 121.742C391.176 122.197 390.524 122.852 390.072 123.64L389.75 124.169L349.205 209.386C348.776 210.08 348.491 210.854 348.369 211.66C348.247 212.467 348.29 213.29 348.495 214.08C348.7 214.87 349.063 215.61 349.562 216.255C350.061 216.901 350.685 217.438 351.398 217.836L351.695 218.003C352.706 218.572 353.532 219.419 354.076 220.443C354.621 221.468 354.86 222.627 354.765 223.783C354.681 224.748 354.83 225.719 355.201 226.614C355.571 227.509 356.151 228.302 356.893 228.926C357.634 229.55 358.515 229.986 359.46 230.197C360.405 230.409 361.388 230.39 362.324 230.142L364.659 229.523C365.975 229.179 367.368 229.286 368.615 229.829C369.862 230.372 370.891 231.318 371.535 232.516L374.747 238.514C375.5 239.917 376.775 240.966 378.297 241.434C379.818 241.903 381.463 241.753 382.874 241.017L391.749 236.386C392.613 235.935 393.574 235.699 394.548 235.699C395.523 235.699 396.484 235.935 397.348 236.386L406.223 241.017C407.634 241.753 409.279 241.903 410.8 241.434C412.322 240.966 413.597 239.917 414.35 238.514L417.562 232.516C418.204 231.319 419.23 230.373 420.475 229.831C421.72 229.288 423.111 229.179 424.425 229.523L426.773 230.142C427.709 230.39 428.692 230.409 429.637 230.197C430.582 229.986 431.463 229.55 432.204 228.926C432.946 228.302 433.526 227.509 433.896 226.614C434.267 225.719 434.416 224.748 434.332 223.783C434.237 222.627 434.476 221.468 435.021 220.443C435.565 219.419 436.391 218.572 437.402 218.003L437.699 217.836C438.412 217.438 439.036 216.901 439.535 216.255C440.034 215.61 440.397 214.87 440.602 214.08C440.807 213.29 440.85 212.467 440.728 211.66C440.606 210.854 440.321 210.08 439.892 209.386Z" fill="#3BEAA8"/>
<path opacity="0.1" d="M439.892 209.386L399.347 124.156L399.025 123.64C398.573 122.852 397.921 122.197 397.135 121.742C396.349 121.287 395.457 121.047 394.548 121.047C393.64 121.047 392.748 121.287 391.962 121.742C391.176 122.197 390.524 122.852 390.072 123.64L389.75 124.169L349.205 209.386C348.776 210.08 348.491 210.854 348.369 211.66C348.247 212.467 348.29 213.29 348.495 214.08C348.7 214.87 349.063 215.61 349.562 216.255C350.061 216.901 350.685 217.438 351.398 217.836L351.695 218.003C352.706 218.572 353.532 219.419 354.076 220.443C354.621 221.468 354.86 222.627 354.765 223.783C354.681 224.748 354.83 225.719 355.201 226.614C355.571 227.509 356.151 228.302 356.893 228.926C357.634 229.55 358.515 229.986 359.46 230.197C360.405 230.409 361.388 230.39 362.324 230.142L364.659 229.523C365.975 229.179 367.368 229.286 368.615 229.829C369.862 230.372 370.891 231.318 371.535 232.516L374.747 238.514C375.5 239.917 376.775 240.966 378.297 241.434C379.818 241.903 381.463 241.753 382.874 241.017L391.749 236.386C392.613 235.935 393.574 235.699 394.548 235.699C395.523 235.699 396.484 235.935 397.348 236.386L406.223 241.017C407.634 241.753 409.279 241.903 410.8 241.434C412.322 240.966 413.597 239.917 414.35 238.514L417.562 232.516C418.204 231.319 419.23 230.373 420.475 229.831C421.72 229.288 423.111 229.179 424.425 229.523L426.773 230.142C427.709 230.39 428.692 230.409 429.637 230.197C430.582 229.986 431.463 229.55 432.204 228.926C432.946 228.302 433.526 227.509 433.896 226.614C434.267 225.719 434.416 224.748 434.332 223.783C434.237 222.627 434.476 221.468 435.021 220.443C435.565 219.419 436.391 218.572 437.402 218.003L437.699 217.836C438.412 217.438 439.036 216.901 439.535 216.255C440.034 215.61 440.397 214.87 440.602 214.08C440.807 213.29 440.85 212.467 440.728 211.66C440.606 210.854 440.321 210.08 439.892 209.386Z" fill="black"/>
<path d="M389.143 378.428C389.067 376.654 388.308 374.979 387.026 373.751C385.743 372.523 384.037 371.837 382.261 371.837C380.486 371.837 378.779 372.523 377.497 373.751C376.215 374.979 375.456 376.654 375.379 378.428V378.815C375.481 379.376 375.717 379.903 376.068 380.353C376.418 380.802 376.872 381.16 377.392 381.395C378.901 382.158 380.57 382.555 382.261 382.555C383.953 382.555 385.621 382.158 387.131 381.395C387.649 381.158 388.102 380.8 388.452 380.351C388.803 379.902 389.04 379.375 389.143 378.815V378.428Z" fill="#37474F"/>
<path d="M387.131 381.434C387.649 381.197 388.102 380.839 388.452 380.389C388.803 379.94 389.04 379.414 389.143 378.854V378.467C389.109 377.264 388.76 376.091 388.131 375.066C387.501 374.04 386.614 373.198 385.557 372.623C385.557 372.7 388.989 376.944 386.486 379.782C384.757 381.743 378.746 382.104 376.166 380.556C376.51 380.924 376.91 381.233 377.353 381.472C378.871 382.236 380.547 382.63 382.247 382.623C383.946 382.617 385.619 382.209 387.131 381.434Z" fill="#263238"/>
<path d="M378.011 381.898C377.947 380.653 377.407 379.481 376.503 378.622C375.599 377.764 374.4 377.285 373.154 377.285C371.907 377.285 370.709 377.764 369.805 378.622C368.901 379.481 368.361 380.653 368.297 381.898V382.169C368.365 382.569 368.53 382.946 368.778 383.267C369.025 383.589 369.347 383.845 369.716 384.014C370.781 384.554 371.959 384.836 373.154 384.836C374.349 384.836 375.526 384.554 376.592 384.014C376.961 383.845 377.283 383.589 377.53 383.267C377.777 382.946 377.942 382.569 378.011 382.169C378.017 382.122 378.017 382.074 378.011 382.027C378.017 381.984 378.017 381.941 378.011 381.898Z" fill="#455A64"/>
<path d="M376.592 384.013C376.961 383.845 377.283 383.589 377.53 383.267C377.777 382.946 377.942 382.569 378.011 382.169C378.017 382.122 378.017 382.074 378.011 382.027C378.017 381.984 378.017 381.941 378.011 381.898C377.997 381.346 377.888 380.8 377.688 380.285C377.804 382.362 376.824 383.627 373.754 384.026C370.683 384.426 368.671 383.11 368.413 382.633C368.667 383.231 369.124 383.719 369.703 384.013C370.77 384.556 371.95 384.839 373.147 384.839C374.344 384.839 375.525 384.556 376.592 384.013Z" fill="#37474F"/>
<path d="M413.653 377.035C413.59 375.8 413.054 374.637 412.157 373.785C411.261 372.934 410.072 372.459 408.835 372.459C407.599 372.459 406.41 372.934 405.513 373.785C404.617 374.637 404.081 375.8 404.017 377.035C404.011 377.077 404.011 377.121 404.017 377.164C404.011 377.211 404.011 377.258 404.017 377.306C404.081 377.704 404.243 378.08 404.488 378.4C404.734 378.719 405.055 378.973 405.423 379.137C406.481 379.671 407.65 379.95 408.835 379.95C410.021 379.95 411.189 379.671 412.247 379.137C412.613 378.97 412.933 378.716 413.178 378.396C413.423 378.077 413.587 377.703 413.653 377.306V377.035Z" fill="#455A64"/>
<path d="M412.247 379.137C412.614 378.97 412.933 378.716 413.178 378.396C413.423 378.077 413.587 377.703 413.653 377.306V377.035C413.641 376.487 413.532 375.945 413.331 375.435C413.447 377.499 412.467 378.75 409.461 379.137C406.455 379.524 404.417 378.234 404.159 377.77C404.418 378.361 404.874 378.845 405.449 379.137C406.504 379.667 407.668 379.943 408.848 379.943C410.029 379.943 411.193 379.667 412.247 379.137Z" fill="#37474F"/>
<path d="M273.095 362.625V511.736C273.095 513.53 271.908 515.323 269.548 516.69C266.892 518.032 263.958 518.732 260.982 518.732C258.006 518.732 255.072 518.032 252.416 516.69C250.056 515.323 248.882 513.53 248.882 511.736V362.625H273.095Z" fill="#B16668"/>
<path d="M180.744 439.806L255.757 258.69H266.206L341.233 439.883C341.775 441.193 342.02 442.607 341.95 444.023C341.88 445.438 341.497 446.821 340.828 448.071C340.159 449.321 339.222 450.407 338.083 451.251C336.944 452.095 335.631 452.675 334.241 452.951L332.951 453.196C330.574 453.67 328.465 455.025 327.046 456.989C325.627 458.954 325.004 461.382 325.301 463.787C325.495 465.373 325.288 466.983 324.701 468.469C324.113 469.955 323.164 471.271 321.938 472.297C320.712 473.322 319.25 474.025 317.683 474.341C316.117 474.657 314.496 474.577 312.969 474.107L309.267 472.972C307.035 472.266 304.623 472.401 302.484 473.352C300.345 474.302 298.628 476.003 297.657 478.132L293.929 486.362C293.372 487.589 292.563 488.685 291.554 489.579C290.545 490.472 289.36 491.143 288.074 491.547C286.789 491.951 285.432 492.08 284.094 491.924C282.755 491.769 281.465 491.333 280.306 490.645L265.871 482.015C264.39 481.141 262.702 480.68 260.982 480.68C259.262 480.68 257.574 481.141 256.093 482.015L241.49 490.645C240.331 491.333 239.041 491.769 237.702 491.924C236.364 492.08 235.007 491.951 233.722 491.547C232.437 491.143 231.251 490.472 230.242 489.579C229.233 488.685 228.424 487.589 227.868 486.362L224.14 478.132C223.168 476.003 221.451 474.302 219.312 473.352C217.174 472.401 214.761 472.266 212.53 472.972L208.814 474.107C207.287 474.577 205.666 474.657 204.1 474.341C202.533 474.025 201.071 473.322 199.845 472.297C198.62 471.271 197.67 469.955 197.083 468.469C196.495 466.983 196.289 465.373 196.482 463.787C196.786 461.383 196.167 458.953 194.75 456.987C193.332 455.022 191.222 453.667 188.845 453.196L187.555 452.951C186.171 452.656 184.869 452.057 183.744 451.199C182.618 450.341 181.696 449.244 181.045 447.987C180.394 446.73 180.029 445.345 179.977 443.93C179.925 442.516 180.187 441.107 180.744 439.806Z" fill="#3BEAA8"/>
<path opacity="0.3" d="M180.744 439.806L255.757 258.69H266.206L341.233 439.883C341.775 441.193 342.02 442.607 341.95 444.023C341.88 445.438 341.497 446.821 340.828 448.071C340.159 449.321 339.222 450.407 338.083 451.251C336.944 452.095 335.631 452.675 334.241 452.951L332.951 453.196C330.574 453.67 328.465 455.025 327.046 456.989C325.627 458.954 325.004 461.382 325.301 463.787C325.495 465.373 325.288 466.983 324.701 468.469C324.113 469.955 323.164 471.271 321.938 472.297C320.712 473.322 319.25 474.025 317.683 474.341C316.117 474.657 314.496 474.577 312.969 474.107L309.267 472.972C307.035 472.266 304.623 472.401 302.484 473.352C300.345 474.302 298.628 476.003 297.657 478.132L293.929 486.362C293.372 487.589 292.563 488.685 291.554 489.579C290.545 490.472 289.36 491.143 288.074 491.547C286.789 491.951 285.432 492.08 284.094 491.924C282.755 491.769 281.465 491.333 280.306 490.645L265.871 482.015C264.39 481.141 262.702 480.68 260.982 480.68C259.262 480.68 257.574 481.141 256.093 482.015L241.49 490.645C240.331 491.333 239.041 491.769 237.702 491.924C236.364 492.08 235.007 491.951 233.722 491.547C232.437 491.143 231.251 490.472 230.242 489.579C229.233 488.685 228.424 487.589 227.868 486.362L224.14 478.132C223.168 476.003 221.451 474.302 219.312 473.352C217.174 472.401 214.761 472.266 212.53 472.972L208.814 474.107C207.287 474.577 205.666 474.657 204.1 474.341C202.533 474.025 201.071 473.322 199.845 472.297C198.62 471.271 197.67 469.955 197.083 468.469C196.495 466.983 196.289 465.373 196.482 463.787C196.786 461.383 196.167 458.953 194.75 456.987C193.332 455.022 191.222 453.667 188.845 453.196L187.555 452.951C186.171 452.656 184.869 452.057 183.744 451.199C182.618 450.341 181.696 449.244 181.045 447.987C180.394 446.73 180.029 445.345 179.977 443.93C179.925 442.516 180.187 441.107 180.744 439.806Z" fill="black"/>
<path opacity="0.1" d="M274.591 278.866L266.206 259.825H255.757L241.903 292.075L196.624 401.416C196.843 402.562 197.416 403.611 198.263 404.414C199.111 405.218 200.189 405.734 201.345 405.892C203.184 406.197 204.835 407.198 205.956 408.687C207.077 410.176 207.583 412.039 207.369 413.89L207.215 415.283C207.071 416.52 207.249 417.773 207.73 418.921C208.212 420.069 208.981 421.074 209.963 421.839C210.946 422.603 212.109 423.102 213.34 423.287C214.571 423.472 215.829 423.337 216.993 422.894L220.695 421.475C222.434 420.819 224.358 420.855 226.072 421.575C227.785 422.295 229.157 423.644 229.906 425.345L234.498 435.665C234.914 436.6 235.523 437.437 236.285 438.119C237.048 438.801 237.946 439.314 238.921 439.624C239.897 439.934 240.927 440.033 241.943 439.915C242.959 439.798 243.939 439.466 244.818 438.942L257.267 430.66C258.388 429.989 259.669 429.635 260.975 429.635C262.282 429.635 263.563 429.989 264.684 430.66L278.577 438.942C279.457 439.464 280.437 439.794 281.453 439.91C282.468 440.027 283.498 439.927 284.472 439.618C285.447 439.308 286.345 438.796 287.108 438.115C287.87 437.434 288.48 436.599 288.897 435.665L293.49 425.345C294.238 423.644 295.611 422.295 297.324 421.575C299.037 420.855 300.962 420.819 302.7 421.475L306.403 422.894C307.567 423.337 308.825 423.472 310.056 423.287C311.287 423.102 312.45 422.603 313.432 421.839C314.415 421.074 315.184 420.069 315.665 418.921C316.147 417.773 316.324 416.52 316.181 415.283L316.026 413.89C315.812 412.039 316.318 410.176 317.44 408.687C318.561 407.198 320.212 406.197 322.05 405.892C322.879 405.785 323.672 405.488 324.368 405.025C325.064 404.562 325.644 403.945 326.062 403.222L274.591 278.866Z" fill="black"/>
<path d="M197.462 387.122L255.757 251.389H266.206L325.959 387.122C328.101 391.496 326.875 396.694 322.089 397.442C320.251 397.748 318.6 398.749 317.478 400.237C316.357 401.726 315.851 403.589 316.065 405.441L316.22 406.821C316.363 408.058 316.185 409.31 315.704 410.459C315.223 411.607 314.454 412.612 313.471 413.376C312.489 414.141 311.326 414.64 310.095 414.825C308.863 415.01 307.605 414.874 306.442 414.432L302.739 413.026C301 412.37 299.076 412.405 297.363 413.125C295.649 413.845 294.277 415.195 293.529 416.896L288.936 427.216C288.517 428.148 287.907 428.981 287.144 429.661C286.381 430.341 285.483 430.853 284.509 431.162C283.535 431.471 282.507 431.571 281.491 431.456C280.476 431.341 279.496 431.012 278.616 430.492L264.71 422.198C263.589 421.527 262.307 421.173 261.001 421.173C259.695 421.173 258.413 421.527 257.293 422.198L244.844 430.492C243.964 431.012 242.985 431.341 241.969 431.456C240.954 431.571 239.925 431.471 238.951 431.162C237.977 430.853 237.079 430.341 236.316 429.661C235.554 428.981 234.943 428.148 234.524 427.216L229.932 416.896C229.183 415.195 227.811 413.845 226.097 413.125C224.384 412.405 222.46 412.37 220.721 413.026L216.98 414.471C215.816 414.913 214.558 415.048 213.327 414.863C212.096 414.679 210.933 414.18 209.95 413.415C208.968 412.65 208.199 411.645 207.718 410.497C207.236 409.349 207.059 408.096 207.202 406.859L207.357 405.466C207.57 403.616 207.064 401.755 205.942 400.268C204.821 398.782 203.17 397.784 201.332 397.481C196.546 396.72 195.308 391.483 197.462 387.122Z" fill="#3BEAA8"/>
<path opacity="0.2" d="M197.462 387.122L255.757 251.389H266.206L325.959 387.122C328.101 391.496 326.875 396.694 322.089 397.442C320.251 397.748 318.6 398.749 317.478 400.237C316.357 401.726 315.851 403.589 316.065 405.441L316.22 406.821C316.363 408.058 316.185 409.31 315.704 410.459C315.223 411.607 314.454 412.612 313.471 413.376C312.489 414.141 311.326 414.64 310.095 414.825C308.863 415.01 307.605 414.874 306.442 414.432L302.739 413.026C301 412.37 299.076 412.405 297.363 413.125C295.649 413.845 294.277 415.195 293.529 416.896L288.936 427.216C288.517 428.148 287.907 428.981 287.144 429.661C286.381 430.341 285.483 430.853 284.509 431.162C283.535 431.471 282.507 431.571 281.491 431.456C280.476 431.341 279.496 431.012 278.616 430.492L264.71 422.198C263.589 421.527 262.307 421.173 261.001 421.173C259.695 421.173 258.413 421.527 257.293 422.198L244.844 430.492C243.964 431.012 242.985 431.341 241.969 431.456C240.954 431.571 239.925 431.471 238.951 431.162C237.977 430.853 237.079 430.341 236.316 429.661C235.554 428.981 234.943 428.148 234.524 427.216L229.932 416.896C229.183 415.195 227.811 413.845 226.097 413.125C224.384 412.405 222.46 412.37 220.721 413.026L216.98 414.471C215.816 414.913 214.558 415.048 213.327 414.863C212.096 414.679 210.933 414.18 209.95 413.415C208.968 412.65 208.199 411.645 207.718 410.497C207.236 409.349 207.059 408.096 207.202 406.859L207.357 405.466C207.57 403.616 207.064 401.755 205.942 400.268C204.821 398.782 203.17 397.784 201.332 397.481C196.546 396.72 195.308 391.483 197.462 387.122Z" fill="black"/>
<path opacity="0.1" d="M266.206 251.389H255.757L213.278 350.28C213.608 350.566 213.967 350.816 214.348 351.028L214.671 351.209C215.767 351.822 216.663 352.739 217.251 353.849C217.839 354.958 218.094 356.214 217.986 357.465C217.898 358.509 218.062 359.558 218.464 360.525C218.865 361.492 219.493 362.348 220.295 363.022C221.096 363.695 222.047 364.167 223.069 364.396C224.09 364.626 225.152 364.607 226.165 364.341L228.745 363.67C230.164 363.293 231.668 363.407 233.015 363.992C234.361 364.578 235.47 365.601 236.162 366.895L239.645 373.345C240.456 374.861 241.833 375.995 243.476 376.5C245.119 377.005 246.895 376.84 248.417 376.041L258.015 371.036C258.946 370.541 259.985 370.283 261.04 370.283C262.095 370.283 263.133 370.541 264.065 371.036L273.65 376.041C275.174 376.837 276.951 377.001 278.595 376.496C280.24 375.991 281.619 374.86 282.435 373.345L285.905 366.895C286.601 365.601 287.713 364.579 289.061 363.994C290.409 363.409 291.914 363.295 293.335 363.67L295.915 364.341C296.927 364.608 297.988 364.627 299.01 364.397C300.031 364.168 300.982 363.696 301.782 363.022C302.583 362.348 303.209 361.491 303.609 360.524C304.01 359.557 304.171 358.508 304.081 357.465C303.977 356.216 304.234 354.964 304.822 353.857C305.41 352.75 306.303 351.835 307.396 351.222L307.732 351.028C308.416 350.644 309.02 350.131 309.512 349.519L266.206 251.389Z" fill="black"/>
<path d="M211.988 333.742L255.848 241.636L256.183 241.082C256.671 240.229 257.375 239.521 258.224 239.028C259.074 238.535 260.039 238.276 261.021 238.276C262.003 238.276 262.967 238.535 263.817 239.028C264.666 239.521 265.371 240.229 265.858 241.082L266.219 241.649L310.079 333.742C310.542 334.492 310.848 335.328 310.979 336.199C311.111 337.07 311.065 337.959 310.844 338.812C310.624 339.665 310.234 340.464 309.696 341.163C309.159 341.861 308.486 342.444 307.719 342.875L307.383 343.056C306.291 343.67 305.397 344.584 304.809 345.691C304.222 346.798 303.964 348.051 304.068 349.3C304.158 350.342 303.997 351.391 303.597 352.359C303.196 353.326 302.57 354.182 301.769 354.856C300.969 355.53 300.018 356.002 298.997 356.232C297.976 356.461 296.914 356.442 295.902 356.175L293.322 355.505C291.901 355.129 290.396 355.243 289.048 355.828C287.7 356.413 286.588 357.435 285.892 358.73L282.422 365.18C281.606 366.694 280.227 367.826 278.583 368.33C276.938 368.835 275.161 368.672 273.637 367.876L264.052 362.87C263.121 362.376 262.082 362.117 261.027 362.117C259.972 362.117 258.934 362.376 258.002 362.87L248.404 367.876C246.882 368.675 245.106 368.839 243.463 368.334C241.82 367.829 240.443 366.695 239.632 365.18L236.149 358.73C235.457 357.435 234.348 356.412 233.002 355.827C231.655 355.241 230.151 355.128 228.732 355.505L226.152 356.175C225.139 356.441 224.078 356.46 223.056 356.231C222.035 356.001 221.083 355.53 220.282 354.856C219.48 354.182 218.852 353.326 218.451 352.359C218.049 351.392 217.885 350.343 217.973 349.3C218.089 348.049 217.836 346.792 217.247 345.683C216.658 344.574 215.758 343.661 214.658 343.056L214.336 342.863C213.569 342.431 212.898 341.849 212.362 341.151C211.826 340.453 211.437 339.655 211.218 338.803C210.999 337.951 210.954 337.064 211.086 336.194C211.218 335.324 211.525 334.49 211.988 333.742Z" fill="#3BEAA8"/>
<path opacity="0.1" d="M211.988 333.742L255.848 241.636L256.183 241.082C256.671 240.229 257.375 239.521 258.224 239.028C259.074 238.535 260.039 238.276 261.021 238.276C262.003 238.276 262.967 238.535 263.817 239.028C264.666 239.521 265.371 240.229 265.858 241.082L266.219 241.649L310.079 333.742C310.542 334.492 310.848 335.328 310.979 336.199C311.111 337.07 311.065 337.959 310.844 338.812C310.624 339.665 310.234 340.464 309.696 341.163C309.159 341.861 308.486 342.444 307.719 342.875L307.383 343.056C306.291 343.67 305.397 344.584 304.809 345.691C304.222 346.798 303.964 348.051 304.068 349.3C304.158 350.342 303.997 351.391 303.597 352.359C303.196 353.326 302.57 354.182 301.769 354.856C300.969 355.53 300.018 356.002 298.997 356.232C297.976 356.461 296.914 356.442 295.902 356.175L293.322 355.505C291.901 355.129 290.396 355.243 289.048 355.828C287.7 356.413 286.588 357.435 285.892 358.73L282.422 365.18C281.606 366.694 280.227 367.826 278.583 368.33C276.938 368.835 275.161 368.672 273.637 367.876L264.052 362.87C263.121 362.376 262.082 362.117 261.027 362.117C259.972 362.117 258.934 362.376 258.002 362.87L248.404 367.876C246.882 368.675 245.106 368.839 243.463 368.334C241.82 367.829 240.443 366.695 239.632 365.18L236.149 358.73C235.457 357.435 234.348 356.412 233.002 355.827C231.655 355.241 230.151 355.128 228.732 355.505L226.152 356.175C225.139 356.441 224.078 356.46 223.056 356.231C222.035 356.001 221.083 355.53 220.282 354.856C219.48 354.182 218.852 353.326 218.451 352.359C218.049 351.392 217.885 350.343 217.973 349.3C218.089 348.049 217.836 346.792 217.247 345.683C216.658 344.574 215.758 343.661 214.658 343.056L214.336 342.863C213.569 342.431 212.898 341.849 212.362 341.151C211.826 340.453 211.437 339.655 211.218 338.803C210.999 337.951 210.954 337.064 211.086 336.194C211.218 335.324 211.525 334.49 211.988 333.742Z" fill="black"/>
<path d="M266.826 516.419C266.906 514.5 267.724 512.687 269.11 511.357C270.496 510.028 272.342 509.286 274.263 509.286C276.183 509.286 278.029 510.028 279.415 511.357C280.801 512.687 281.619 514.5 281.699 516.419V516.832C281.593 517.444 281.34 518.022 280.963 518.516C280.585 519.01 280.095 519.406 279.532 519.67C277.902 520.499 276.098 520.932 274.269 520.932C272.44 520.932 270.636 520.499 269.006 519.67C268.441 519.407 267.948 519.012 267.568 518.518C267.188 518.024 266.934 517.446 266.826 516.832V516.419Z" fill="#37474F"/>
<path d="M269.006 519.67C268.441 519.407 267.948 519.012 267.568 518.518C267.188 518.024 266.934 517.446 266.826 516.832V516.419C266.863 515.121 267.24 513.856 267.919 512.749C268.598 511.642 269.556 510.733 270.696 510.111C270.696 510.176 266.993 514.768 269.702 517.851C271.573 519.967 277.997 520.354 280.809 518.69C280.425 519.076 279.991 519.41 279.519 519.683C277.889 520.508 276.088 520.937 274.261 520.935C272.434 520.932 270.634 520.499 269.006 519.67Z" fill="#263238"/>
<path d="M278.9 520.16C278.9 518.768 279.453 517.432 280.438 516.448C281.422 515.463 282.758 514.91 284.15 514.91C285.543 514.91 286.878 515.463 287.863 516.448C288.847 517.432 289.401 518.768 289.401 520.16C289.406 520.207 289.406 520.255 289.401 520.302C289.407 520.354 289.407 520.406 289.401 520.457C289.329 520.891 289.152 521.3 288.884 521.649C288.616 521.998 288.266 522.275 287.866 522.456C286.714 523.041 285.441 523.346 284.15 523.346C282.859 523.346 281.586 523.041 280.435 522.456C280.038 522.271 279.691 521.992 279.423 521.644C279.156 521.296 278.977 520.889 278.9 520.457V520.16Z" fill="#455A64"/>
<path d="M280.383 522.456C279.986 522.271 279.639 521.992 279.372 521.644C279.105 521.296 278.925 520.889 278.848 520.457V520.16C278.869 519.563 278.991 518.974 279.21 518.419C279.081 520.676 280.138 522.031 283.467 522.456C286.795 522.882 288.949 521.476 289.233 520.96C288.951 521.611 288.449 522.141 287.814 522.456C286.663 523.041 285.39 523.346 284.099 523.346C282.808 523.346 281.535 523.041 280.383 522.456Z" fill="#37474F"/>
<path d="M240.342 514.91C240.342 513.529 240.89 512.205 241.866 511.229C242.843 510.253 244.167 509.705 245.547 509.705C246.928 509.705 248.251 510.253 249.228 511.229C250.204 512.205 250.752 513.529 250.752 514.91C250.769 515.004 250.769 515.1 250.752 515.194C250.688 515.627 250.514 516.036 250.248 516.384C249.982 516.731 249.631 517.006 249.23 517.18C248.089 517.759 246.827 518.061 245.547 518.061C244.267 518.061 243.005 517.759 241.864 517.18C241.467 516.999 241.121 516.723 240.856 516.376C240.59 516.03 240.414 515.624 240.342 515.194C240.325 515.1 240.325 515.004 240.342 514.91Z" fill="#455A64"/>
<path d="M241.864 517.18C241.467 516.999 241.121 516.723 240.856 516.376C240.59 516.03 240.414 515.624 240.342 515.194C240.325 515.1 240.325 515.004 240.342 514.91C240.355 514.318 240.473 513.732 240.69 513.181C240.561 515.413 241.619 516.767 244.908 517.193C248.198 517.619 250.352 516.213 250.636 515.697C250.355 516.34 249.858 516.865 249.23 517.18C248.089 517.759 246.827 518.061 245.547 518.061C244.267 518.061 243.005 517.759 241.864 517.18Z" fill="#37474F"/>
<path d="M421.832 528.726L429.391 524.404C429.391 524.404 433.016 504.435 430.307 487.265C426.437 463.129 410.067 454.809 404.095 457.208C398.122 459.608 396.729 466.754 407.5 480.699C413.86 488.929 422.09 506.37 421.832 528.726Z" fill="#3BEAA8"/>
<path opacity="0.3" d="M421.832 528.726L429.391 524.404C429.391 524.404 433.016 504.435 430.307 487.265C426.437 463.129 410.067 454.809 404.095 457.208C398.122 459.608 396.729 466.754 407.5 480.699C413.86 488.929 422.09 506.37 421.832 528.726Z" fill="black"/>
<path d="M424.58 519.141H424.502C424.361 519.122 424.232 519.047 424.145 518.934C424.058 518.82 424.02 518.677 424.038 518.535C427.16 495.934 418.078 471.179 407.861 461.207C407.761 461.106 407.705 460.969 407.705 460.827C407.705 460.684 407.761 460.547 407.861 460.446C407.911 460.395 407.97 460.354 408.035 460.326C408.101 460.299 408.171 460.284 408.242 460.284C408.313 460.284 408.383 460.299 408.449 460.326C408.514 460.354 408.573 460.395 408.622 460.446C419.02 470.611 428.282 495.766 425.109 518.702C425.083 518.824 425.016 518.934 424.92 519.013C424.824 519.093 424.704 519.138 424.58 519.141Z" fill="white"/>
<path d="M400.87 540.826C399.683 541.523 397.219 540.013 396.277 539.381C394.659 538.283 393.353 536.786 392.485 535.034C391.504 533.035 391.174 530.779 391.543 528.584C391.73 527.43 392.001 526.292 392.356 525.178C392.665 524.069 392.988 522.972 393.297 521.863C393.69 520.795 393.857 519.657 393.787 518.522C393.504 516.264 391.491 514.652 389.659 513.362C387.828 512.072 385.531 509.853 385.544 507.131C385.693 505.014 386.536 503.005 387.944 501.416C389.234 499.765 390.795 498.308 391.981 496.566C392.906 495.353 393.388 493.86 393.349 492.335C393.218 491.402 392.907 490.504 392.433 489.69C391.323 488.005 390.353 486.231 389.53 484.388C389.136 483.456 389.012 482.431 389.174 481.431C389.336 480.432 389.777 479.498 390.446 478.738C391.113 478.244 391.872 477.887 392.678 477.688C393.484 477.488 394.321 477.451 395.142 477.577C396.689 477.768 398.177 478.291 399.502 479.112C403.824 481.512 406.3 486.646 410.893 488.491C412.709 489.066 414.562 489.519 416.44 489.845C417.382 490.021 418.277 490.392 419.068 490.934C419.859 491.476 420.528 492.177 421.032 492.993C422.709 496.36 419.587 500.501 420.774 504.074C421.819 507.234 424.889 508.447 426.618 511.298C427.32 512.557 427.6 514.008 427.418 515.439C427.265 517.856 426.675 520.225 425.676 522.431C424.547 524.628 423.253 526.736 421.806 528.739C421.768 528.79 401.063 540.723 400.87 540.826Z" fill="#3BEAA8"/>
<path opacity="0.15" d="M400.87 540.826C399.683 541.523 397.219 540.013 396.277 539.381C394.659 538.283 393.353 536.786 392.485 535.034C391.504 533.035 391.174 530.779 391.543 528.584C391.73 527.43 392.001 526.292 392.356 525.178C392.665 524.069 392.988 522.972 393.297 521.863C393.69 520.795 393.857 519.657 393.787 518.522C393.504 516.264 391.491 514.652 389.659 513.362C387.828 512.072 385.531 509.853 385.544 507.131C385.693 505.014 386.536 503.005 387.944 501.416C389.234 499.765 390.795 498.308 391.981 496.566C392.906 495.353 393.388 493.86 393.349 492.335C393.218 491.402 392.907 490.504 392.433 489.69C391.323 488.005 390.353 486.231 389.53 484.388C389.136 483.456 389.012 482.431 389.174 481.431C389.336 480.432 389.777 479.498 390.446 478.738C391.113 478.244 391.872 477.887 392.678 477.688C393.484 477.488 394.321 477.451 395.142 477.577C396.689 477.768 398.177 478.291 399.502 479.112C403.824 481.512 406.3 486.646 410.893 488.491C412.709 489.066 414.562 489.519 416.44 489.845C417.382 490.021 418.277 490.392 419.068 490.934C419.859 491.476 420.528 492.177 421.032 492.993C422.709 496.36 419.587 500.501 420.774 504.074C421.819 507.234 424.889 508.447 426.618 511.298C427.32 512.557 427.6 514.008 427.418 515.439C427.265 517.856 426.675 520.225 425.676 522.431C424.547 524.628 423.253 526.736 421.806 528.739C421.768 528.79 401.063 540.723 400.87 540.826Z" fill="black"/>
<path d="M413.137 534.299C412.993 534.292 412.856 534.229 412.757 534.123C412.658 534.017 412.605 533.876 412.609 533.731C413.499 512.343 403.424 488.736 396.097 481.873C396.045 481.824 396.005 481.764 395.977 481.699C395.949 481.634 395.935 481.563 395.935 481.492C395.935 481.421 395.949 481.351 395.977 481.286C396.005 481.22 396.045 481.161 396.097 481.112C396.198 481.012 396.335 480.956 396.477 480.956C396.62 480.956 396.756 481.012 396.858 481.112C404.34 488.117 414.621 512.072 413.718 533.808C413.702 533.949 413.633 534.077 413.525 534.168C413.417 534.26 413.278 534.306 413.137 534.299Z" fill="white"/>
<path d="M409.938 509.027C409.883 509.039 409.826 509.039 409.77 509.027C404.716 507.637 399.526 506.798 394.29 506.525C394.213 506.537 394.134 506.532 394.059 506.511C393.984 506.489 393.914 506.452 393.855 506.401C393.795 506.35 393.748 506.287 393.715 506.216C393.682 506.145 393.665 506.068 393.665 505.99C393.665 505.911 393.682 505.834 393.715 505.763C393.748 505.692 393.795 505.629 393.855 505.578C393.914 505.527 393.984 505.49 394.059 505.468C394.134 505.447 394.213 505.442 394.29 505.454C399.632 505.74 404.926 506.605 410.08 508.034C410.216 508.081 410.328 508.178 410.395 508.305C410.462 508.432 410.479 508.579 410.441 508.718C410.396 508.813 410.325 508.892 410.236 508.947C410.146 509.002 410.043 509.03 409.938 509.027Z" fill="white"/>
<path d="M704.019 213.682C703.969 213.263 703.813 212.864 703.564 212.523C703.316 212.182 702.984 211.91 702.6 211.734C701.527 211.198 700.343 210.919 699.143 210.919C697.943 210.919 696.76 211.198 695.686 211.734C695.301 211.909 694.967 212.18 694.716 212.521C694.466 212.862 694.307 213.262 694.254 213.682V458.563C694.254 460.085 696.434 461.323 699.13 461.323C701.826 461.323 704.019 460.033 704.019 458.563V213.682Z" fill="#37474F"/>
<path d="M699.13 216.455C701.83 216.455 704.019 215.214 704.019 213.682C704.019 212.15 701.83 210.908 699.13 210.908C696.43 210.908 694.241 212.15 694.241 213.682C694.241 215.214 696.43 216.455 699.13 216.455Z" fill="#455A64"/>
<path d="M754.381 306.975L744.796 290.359L681.045 253.582L676.22 256.368V278.504L739.972 315.282L744.887 312.573L754.381 306.975Z" fill="#3BEAA8"/>
<path d="M676.22 256.368L739.972 293.146L749.556 309.748L739.972 315.282L676.22 278.504V256.368Z" fill="#3BEAA8"/>
<g opacity="0.3">
<path opacity="0.3" d="M676.22 256.368L739.972 293.146L749.582 309.8L739.972 315.282L676.22 278.504V256.368Z" fill="black"/>
</g>
<path opacity="0.1" d="M744.796 290.359L739.972 293.146L676.22 256.368L681.045 253.582L744.796 290.359Z" fill="black"/>
<path opacity="0.2" d="M739.972 293.146L744.796 290.359L754.381 306.975L749.582 309.8L739.972 293.146Z" fill="black"/>
<path d="M733.419 250.563L669.667 213.721L660.082 219.255L669.667 235.87L733.419 272.699V250.563Z" fill="#3BEAA8"/>
<path d="M669.667 213.721L674.35 210.908L738.205 247.802L733.419 250.563L669.667 213.721Z" fill="#3BEAA8"/>
<g opacity="0.4">
<path opacity="0.4" d="M669.667 213.721L674.35 210.908L738.205 247.802L733.419 250.563L669.667 213.721Z" fill="white"/>
</g>
<path d="M738.204 269.939L733.419 272.699V250.563L738.204 247.802V269.939Z" fill="#3BEAA8"/>
<path opacity="0.1" d="M738.204 269.939L733.419 272.699V250.563L738.204 247.802V269.939Z" fill="black"/>
<path d="M717.306 318.985L653.555 282.142L643.97 287.676L653.555 304.291L717.306 341.121V318.985Z" fill="#3BEAA8"/>
<path d="M653.555 282.142L658.25 279.33L722.092 316.224L717.307 318.985L653.555 282.142Z" fill="#3BEAA8"/>
<g opacity="0.4">
<path opacity="0.4" d="M653.555 282.142L658.25 279.33L722.092 316.224L717.307 318.985L653.555 282.142Z" fill="white"/>
</g>
<path d="M722.092 338.36L717.307 341.121V318.985L722.092 316.224V338.36Z" fill="#3BEAA8"/>
<path opacity="0.1" d="M722.092 338.36L717.307 341.121V318.985L722.092 316.224V338.36Z" fill="black"/>
<path d="M540.331 154.084C542.494 153.367 544.749 152.963 547.026 152.884C549.211 152.788 551.395 153.08 553.476 153.748C555.463 154.396 557.288 155.461 558.83 156.87C560.232 158.27 561.328 159.946 562.05 161.791C562.771 163.636 563.103 165.611 563.022 167.59C562.907 169.116 562.563 170.616 562.003 172.041C561.468 173.427 560.808 174.761 560.03 176.027C559.256 177.317 558.52 178.491 557.837 179.626C557.175 180.703 556.614 181.839 556.16 183.019C555.742 184.062 555.622 185.2 555.811 186.308C555.892 186.828 555.825 187.36 555.618 187.843C555.528 188.078 555.384 188.289 555.198 188.46C555.012 188.63 554.789 188.754 554.547 188.824L549.232 190.578C548.979 190.661 548.712 190.694 548.447 190.674C548.181 190.654 547.922 190.582 547.684 190.462C547.443 190.361 547.23 190.205 547.061 190.005C546.893 189.805 546.775 189.568 546.717 189.314C546.228 187.64 546.083 185.885 546.291 184.154C546.499 182.601 546.911 181.083 547.517 179.639C548.096 178.248 548.796 176.91 549.606 175.64C550.415 174.401 551.15 173.215 551.812 172.079C552.423 171.065 552.925 169.988 553.309 168.867C553.638 167.897 553.638 166.845 553.309 165.874C553.035 165.016 552.555 164.237 551.912 163.606C551.27 162.974 550.483 162.509 549.619 162.25C547.481 161.602 545.188 161.688 543.105 162.495C539.149 163.802 536.891 166.747 536.332 171.331C536.3 171.814 536.178 172.287 535.971 172.724C535.842 172.931 535.673 173.11 535.474 173.249C535.274 173.389 535.048 173.487 534.81 173.537L529.16 175.395C528.763 175.535 528.327 175.512 527.947 175.33C527.748 175.238 527.571 175.104 527.429 174.937C527.286 174.77 527.181 174.574 527.122 174.363C526.62 172.571 526.567 170.684 526.967 168.867C527.393 166.782 528.179 164.788 529.289 162.972C530.517 160.986 532.054 159.21 533.843 157.709C535.747 156.087 537.952 154.855 540.331 154.084ZM556.25 192.9C556.753 192.748 557.295 192.798 557.762 193.039C558.229 193.28 558.584 193.692 558.753 194.19L560.791 200.356C560.875 200.602 560.908 200.863 560.888 201.123C560.868 201.382 560.795 201.635 560.675 201.865C560.56 202.101 560.4 202.312 560.203 202.485C560.005 202.658 559.776 202.789 559.527 202.872L553.515 204.858C553.01 205.014 552.465 204.966 551.995 204.725C551.525 204.484 551.168 204.069 551 203.568L548.961 197.415C548.803 196.91 548.849 196.363 549.09 195.893C549.332 195.422 549.749 195.065 550.251 194.899L556.25 192.9Z" fill="#3BEAA8"/>
<path d="M582.94 211.102C584.338 210.371 585.832 209.841 587.378 209.528C588.846 209.218 590.357 209.17 591.841 209.386C593.265 209.606 594.624 210.129 595.827 210.921C597.105 211.771 598.137 212.94 598.82 214.314C599.408 215.373 599.776 216.54 599.904 217.745C599.994 218.794 599.933 219.849 599.723 220.88C599.512 221.899 599.21 222.896 598.82 223.86L597.736 226.556C597.412 227.367 597.157 228.204 596.975 229.059C596.807 229.818 596.856 230.609 597.117 231.342C597.22 231.691 597.22 232.063 597.117 232.413C597.08 232.582 597.005 232.741 596.898 232.877C596.791 233.013 596.654 233.124 596.498 233.2L593.079 234.993C592.749 235.162 592.366 235.199 592.009 235.096C591.832 235.055 591.667 234.971 591.53 234.852C591.393 234.733 591.287 234.582 591.222 234.412C590.694 233.328 590.395 232.147 590.345 230.942C590.313 229.862 590.422 228.782 590.667 227.73C590.904 226.718 591.232 225.729 591.648 224.776C592.047 223.834 592.409 222.944 592.744 222.093C593.044 221.335 593.264 220.548 593.402 219.745C593.513 219.044 593.4 218.326 593.079 217.694C592.792 217.142 592.376 216.667 591.866 216.31C591.357 215.953 590.768 215.724 590.151 215.643C588.621 215.444 587.068 215.762 585.739 216.546C584.512 217.167 583.506 218.153 582.86 219.367C582.214 220.581 581.958 221.966 582.127 223.331C582.162 223.665 582.131 224.002 582.037 224.324C581.903 224.635 581.653 224.88 581.34 225.008L577.69 226.93C577.433 227.069 577.132 227.102 576.851 227.02C576.706 226.979 576.571 226.906 576.455 226.809C576.339 226.711 576.246 226.59 576.18 226.453C575.641 225.287 575.394 224.008 575.458 222.725C575.509 221.259 575.819 219.813 576.374 218.455C576.981 216.961 577.826 215.576 578.877 214.353C580.005 213.013 581.385 211.908 582.94 211.102ZM598.175 235.741C598.335 235.652 598.512 235.597 598.694 235.582C598.877 235.566 599.06 235.59 599.233 235.651C599.405 235.7 599.566 235.786 599.704 235.901C599.841 236.017 599.953 236.16 600.033 236.321L602.122 240.282C602.287 240.605 602.32 240.98 602.213 241.327C602.103 241.674 601.862 241.966 601.542 242.139L597.672 244.165C597.514 244.252 597.339 244.305 597.159 244.321C596.979 244.336 596.798 244.314 596.627 244.255C596.453 244.208 596.291 244.125 596.151 244.012C596.011 243.899 595.896 243.757 595.814 243.597L593.737 239.624C593.572 239.303 593.539 238.93 593.645 238.586C593.751 238.241 593.988 237.951 594.305 237.779L598.175 235.741Z" fill="#3BEAA8"/>
<g opacity="0.2">
<path opacity="0.2" d="M582.94 211.102C584.338 210.371 585.832 209.841 587.378 209.528C588.846 209.218 590.357 209.17 591.841 209.386C593.265 209.606 594.624 210.129 595.827 210.921C597.105 211.771 598.137 212.94 598.82 214.314C599.408 215.373 599.776 216.54 599.904 217.745C599.994 218.794 599.933 219.849 599.723 220.88C599.512 221.899 599.21 222.896 598.82 223.86L597.736 226.556C597.412 227.367 597.157 228.204 596.975 229.059C596.807 229.818 596.856 230.609 597.117 231.342C597.22 231.691 597.22 232.063 597.117 232.413C597.08 232.582 597.005 232.741 596.898 232.877C596.791 233.013 596.654 233.124 596.498 233.2L593.079 234.993C592.749 235.162 592.366 235.199 592.009 235.096C591.832 235.055 591.667 234.971 591.53 234.852C591.393 234.733 591.287 234.582 591.222 234.412C590.694 233.328 590.395 232.147 590.345 230.942C590.313 229.862 590.422 228.782 590.667 227.73C590.904 226.718 591.232 225.729 591.648 224.776C592.047 223.834 592.409 222.944 592.744 222.093C593.044 221.335 593.264 220.548 593.402 219.745C593.513 219.044 593.4 218.326 593.079 217.694C592.792 217.142 592.376 216.667 591.866 216.31C591.357 215.953 590.768 215.724 590.151 215.643C588.621 215.444 587.068 215.762 585.739 216.546C584.512 217.167 583.506 218.153 582.86 219.367C582.214 220.581 581.958 221.966 582.127 223.331C582.162 223.665 582.131 224.002 582.037 224.324C581.903 224.635 581.653 224.88 581.34 225.008L577.69 226.93C577.433 227.069 577.132 227.102 576.851 227.02C576.706 226.979 576.571 226.906 576.455 226.809C576.339 226.711 576.246 226.59 576.18 226.453C575.641 225.287 575.394 224.008 575.458 222.725C575.509 221.259 575.819 219.813 576.374 218.455C576.981 216.961 577.826 215.576 578.877 214.353C580.005 213.013 581.385 211.908 582.94 211.102ZM598.175 235.741C598.335 235.652 598.512 235.597 598.694 235.582C598.877 235.566 599.06 235.59 599.233 235.651C599.405 235.7 599.566 235.786 599.704 235.901C599.841 236.017 599.953 236.16 600.033 236.321L602.122 240.282C602.287 240.605 602.32 240.98 602.213 241.327C602.103 241.674 601.862 241.966 601.542 242.139L597.672 244.165C597.514 244.252 597.339 244.305 597.159 244.321C596.979 244.336 596.798 244.314 596.627 244.255C596.453 244.208 596.291 244.125 596.151 244.012C596.011 243.899 595.896 243.757 595.814 243.597L593.737 239.624C593.572 239.303 593.539 238.93 593.645 238.586C593.751 238.241 593.988 237.951 594.305 237.779L598.175 235.741Z" fill="black"/>
</g>
<path d="M611.72 193.274C611.924 193.333 612.114 193.434 612.279 193.569C612.443 193.704 612.577 193.872 612.675 194.061C612.785 194.255 612.853 194.47 612.876 194.692C612.898 194.914 612.873 195.139 612.804 195.351L611.256 200.421C611.122 200.83 610.835 201.171 610.455 201.373C610.075 201.575 609.631 201.622 609.217 201.504L604.264 199.995C604.059 199.933 603.869 199.83 603.705 199.693C603.541 199.555 603.406 199.386 603.309 199.195C603.196 199.002 603.125 198.787 603.103 198.564C603.081 198.342 603.107 198.117 603.18 197.905L604.728 192.835C604.79 192.631 604.893 192.44 605.031 192.276C605.168 192.112 605.337 191.978 605.528 191.881C605.722 191.771 605.937 191.702 606.159 191.68C606.382 191.658 606.606 191.682 606.818 191.752L611.72 193.274ZM619.46 159.824C621.245 160.367 622.943 161.162 624.504 162.185C625.999 163.148 627.31 164.372 628.374 165.797C629.388 167.167 630.101 168.737 630.464 170.402C630.82 172.184 630.714 174.027 630.154 175.756C629.763 177.133 629.1 178.418 628.206 179.536C627.407 180.499 626.473 181.342 625.433 182.038C624.413 182.704 623.338 183.283 622.221 183.767L619.021 185.16C618.073 185.561 617.166 186.054 616.312 186.631C615.532 187.125 614.91 187.832 614.519 188.669C614.328 189.052 614.033 189.374 613.668 189.598C613.499 189.715 613.304 189.791 613.1 189.818C612.896 189.845 612.688 189.822 612.494 189.752L608.108 188.462C607.689 188.335 607.336 188.048 607.128 187.663C607.005 187.473 606.932 187.256 606.914 187.031C606.896 186.805 606.934 186.579 607.024 186.373C607.491 185.024 608.223 183.782 609.179 182.722C610.052 181.783 611.045 180.963 612.133 180.284C613.175 179.623 614.276 179.062 615.422 178.607C616.545 178.155 617.589 177.704 618.57 177.317C619.455 176.926 620.297 176.446 621.085 175.885C621.767 175.392 622.27 174.69 622.517 173.885C622.737 173.184 622.784 172.44 622.653 171.717C622.523 170.993 622.22 170.312 621.769 169.732C620.649 168.288 619.078 167.261 617.306 166.816C615.753 166.316 614.084 166.306 612.526 166.789C610.968 167.271 609.596 168.222 608.598 169.512C608.347 169.819 608.047 170.081 607.708 170.286C607.331 170.436 606.911 170.436 606.534 170.286L601.864 168.867C601.537 168.761 601.258 168.542 601.077 168.248C600.99 168.09 600.937 167.915 600.921 167.735C600.906 167.555 600.928 167.374 600.987 167.203C601.502 165.77 602.361 164.485 603.49 163.462C604.756 162.268 606.223 161.307 607.824 160.624C609.579 159.875 611.444 159.413 613.345 159.257C615.401 159.045 617.478 159.237 619.46 159.824Z" fill="#3BEAA8"/>
<g opacity="0.6">
<path opacity="0.6" d="M611.72 193.274C611.924 193.333 612.114 193.434 612.279 193.569C612.443 193.704 612.577 193.872 612.675 194.061C612.785 194.255 612.853 194.47 612.876 194.692C612.898 194.914 612.873 195.139 612.804 195.351L611.256 200.421C611.122 200.83 610.835 201.171 610.455 201.373C610.075 201.575 609.631 201.622 609.217 201.504L604.264 199.995C604.059 199.933 603.869 199.83 603.705 199.693C603.541 199.555 603.406 199.386 603.309 199.195C603.196 199.002 603.125 198.787 603.103 198.564C603.081 198.342 603.107 198.117 603.18 197.905L604.728 192.835C604.79 192.631 604.893 192.44 605.031 192.276C605.168 192.112 605.337 191.978 605.528 191.881C605.722 191.771 605.937 191.702 606.159 191.68C606.382 191.658 606.606 191.682 606.818 191.752L611.72 193.274ZM619.46 159.824C621.245 160.367 622.943 161.162 624.504 162.185C625.999 163.148 627.31 164.372 628.374 165.797C629.388 167.167 630.101 168.737 630.464 170.402C630.82 172.184 630.714 174.027 630.154 175.756C629.763 177.133 629.1 178.418 628.206 179.536C627.407 180.499 626.473 181.342 625.433 182.038C624.413 182.704 623.338 183.283 622.221 183.767L619.021 185.16C618.073 185.561 617.166 186.054 616.312 186.631C615.532 187.125 614.91 187.832 614.519 188.669C614.328 189.052 614.033 189.374 613.668 189.598C613.499 189.715 613.304 189.791 613.1 189.818C612.896 189.845 612.688 189.822 612.494 189.752L608.108 188.462C607.689 188.335 607.336 188.048 607.128 187.663C607.005 187.473 606.932 187.256 606.914 187.031C606.896 186.805 606.934 186.579 607.024 186.373C607.491 185.024 608.223 183.782 609.179 182.722C610.052 181.783 611.045 180.963 612.133 180.284C613.175 179.623 614.276 179.062 615.422 178.607C616.545 178.155 617.589 177.704 618.57 177.317C619.455 176.926 620.297 176.446 621.085 175.885C621.767 175.392 622.27 174.69 622.517 173.885C622.737 173.184 622.784 172.44 622.653 171.717C622.523 170.993 622.22 170.312 621.769 169.732C620.649 168.288 619.078 167.261 617.306 166.816C615.753 166.316 614.084 166.306 612.526 166.789C610.968 167.271 609.596 168.222 608.598 169.512C608.347 169.819 608.047 170.081 607.708 170.286C607.331 170.436 606.911 170.436 606.534 170.286L601.864 168.867C601.537 168.761 601.258 168.542 601.077 168.248C600.99 168.09 600.937 167.915 600.921 167.735C600.906 167.555 600.928 167.374 600.987 167.203C601.502 165.77 602.361 164.485 603.49 163.462C604.756 162.268 606.223 161.307 607.824 160.624C609.579 159.875 611.444 159.413 613.345 159.257C615.401 159.045 617.478 159.237 619.46 159.824Z" fill="white"/>
</g>
<path d="M541.673 500.746C542.015 503.077 541.821 505.455 541.105 507.699C539.738 511.337 536.977 512.949 535.339 514.368C533.503 516.004 531.893 517.879 530.553 519.941C529.23 522.205 527.539 524.233 525.548 525.94C524 527.23 519.717 527.23 517.666 526.352C515.615 525.475 514.931 524.65 515.086 521.347C515.241 518.045 525.316 517.116 525.316 517.116L541.673 500.746Z" fill="#455A64"/>
<path d="M516.621 511.53C515.757 511.84 515.512 513.465 515.331 516.69C515.176 519.141 514.041 522.701 517.421 524.314C520.117 525.604 524.477 524.881 526.374 522.598C528.721 519.773 530.321 517.27 533.662 513.813C536.565 510.82 539.545 509.853 540.925 503.79C541.815 499.92 541.209 498.243 538.603 497.069C535.004 495.457 529.212 500.384 526.348 501.12C523.884 501.752 517.55 511.207 516.621 511.53Z" fill="#3BEAA8"/>
<path opacity="0.2" d="M516.621 511.53C515.757 511.84 515.512 513.465 515.331 516.69C515.176 519.141 514.041 522.701 517.421 524.314C520.117 525.604 524.477 524.881 526.374 522.598C528.721 519.773 530.321 517.27 533.662 513.813C536.565 510.82 539.545 509.853 540.925 503.79C541.815 499.92 541.209 498.243 538.603 497.069C535.004 495.457 529.212 500.384 526.348 501.12C523.884 501.752 517.55 511.207 516.621 511.53Z" fill="black"/>
<path d="M526.335 501.107L526.825 500.952C528.468 501.076 530.049 501.631 531.408 502.562C532.767 503.493 533.856 504.767 534.565 506.254C535.03 507.338 533.52 508.137 532.656 507.286C531.895 505.841 530.791 504.605 529.442 503.685C528.093 502.766 526.539 502.19 524.916 502.01C525.323 501.616 525.806 501.309 526.335 501.107Z" fill="#FAFAFA"/>
<path d="M524 502.913C525.541 503.118 527.006 503.706 528.261 504.623C529.517 505.54 530.522 506.757 531.185 508.163C531.65 509.234 530.14 510.034 529.276 509.195C528.639 507.934 527.73 506.83 526.614 505.962C525.499 505.094 524.205 504.485 522.826 504.177C523.187 503.79 523.587 503.287 524 502.913Z" fill="#FAFAFA"/>
<path d="M586.23 551.727C586.733 554.487 585.701 555.893 582.127 557.867C578.554 559.841 572.968 560.447 567.163 558.615C561.358 556.783 558.611 554.19 556.198 553.533C553.786 552.875 547.775 552.707 545.388 551.959C543.002 551.211 543.066 549.972 543.131 547.083L586.23 551.727Z" fill="#455A64"/>
<path d="M545.762 533.228C545.026 535.345 544.397 537.497 543.879 539.678C543.337 542.077 542.589 546.128 543.363 547.895C544.137 549.663 547.426 550.952 552.522 551.017C555.811 551.017 560.907 553.403 564.377 555.429C567.847 557.454 571.911 557.622 575.755 557.248C580.296 556.796 585.043 554.268 585.804 552.41C586.565 550.553 586.797 549.146 576.219 544.386C576.116 544.386 563.926 539.575 558.882 533.77L545.762 533.228Z" fill="#3BEAA8"/>
<g opacity="0.2">
<path opacity="0.2" d="M545.762 533.228C545.026 535.345 544.397 537.497 543.879 539.678C543.337 542.077 542.589 546.128 543.363 547.895C544.137 549.663 547.426 550.952 552.522 551.017C555.811 551.017 560.907 553.403 564.377 555.429C567.847 557.454 571.911 557.622 575.755 557.248C580.296 556.796 585.043 554.268 585.804 552.41C586.565 550.553 586.797 549.146 576.219 544.386C576.116 544.386 563.926 539.575 558.882 533.77L545.762 533.228Z" fill="black"/>
</g>
<path d="M565.822 556.151C565.822 556.151 566.918 547.005 574.413 544.541C581.199 542.309 586.965 547.405 586.23 551.727C585.727 554.642 577.406 561.092 565.822 556.151Z" fill="#FAFAFA"/>
<path d="M572.569 542.787C570.658 542.916 568.844 543.674 567.409 544.941C565.228 546.695 565.138 547.895 565.138 547.895C564.972 548.071 564.754 548.189 564.516 548.231C564.278 548.274 564.032 548.238 563.816 548.129C563.6 548.02 563.425 547.844 563.317 547.628C563.209 547.411 563.173 547.166 563.216 546.928C563.216 546.928 563.809 542.322 569.911 541.497C570.434 541.402 570.973 541.476 571.45 541.708C571.928 541.94 572.32 542.318 572.569 542.787Z" fill="#FAFAFA"/>
<path d="M568.35 540.658C566.448 540.634 564.607 541.324 563.19 542.593C561.01 544.361 560.971 545.78 560.971 545.78C560.806 545.956 560.587 546.074 560.349 546.116C560.111 546.158 559.865 546.122 559.649 546.013C559.433 545.904 559.258 545.729 559.15 545.512C559.042 545.296 559.007 545.05 559.049 544.812C559.049 544.812 559.63 540.194 565.732 539.381C566.247 539.29 566.778 539.365 567.249 539.594C567.719 539.823 568.105 540.196 568.35 540.658Z" fill="#FAFAFA"/>
<path d="M564.171 538.169C562.273 538.012 560.385 538.573 558.882 539.742C556.585 541.355 556.444 542.761 556.444 542.761C556.264 542.919 556.039 543.016 555.801 543.038C555.563 543.06 555.324 543.007 555.118 542.885C554.912 542.764 554.75 542.58 554.654 542.361C554.559 542.142 554.535 541.898 554.586 541.664C554.586 541.664 555.502 537.111 561.642 536.698C562.165 536.643 562.692 536.756 563.147 537.02C563.601 537.285 563.96 537.687 564.171 538.169Z" fill="#FAFAFA"/>
<path d="M516.724 506.28L516.595 512.498C518.068 513.48 519.781 514.042 521.549 514.124C523.317 514.206 525.074 513.804 526.632 512.962C526.812 512.588 527.444 506.512 527.444 506.512L516.724 506.28Z" fill="#FFA8A7"/>
<path d="M545.853 528.932C545.853 528.932 545.853 531.873 545.749 533.563C545.646 535.253 547.646 537.794 552.806 537.717C556.418 537.717 558.972 536.737 558.882 533.757L558.972 529.461L545.853 528.932Z" fill="#FFA8A7"/>
<path d="M511.1 453.48C511.706 440.374 514.519 434.685 514.519 434.685C514.519 434.685 513.835 418.47 512.055 398.565C509.346 368.314 511.745 363.838 517.963 350.383C517.963 350.383 568.105 344.914 569.227 366.057C570.634 392.386 569.795 445.856 568.905 455.067C568.015 464.277 568.208 455.763 565.577 474.52C563.487 489.342 558.998 529.41 558.998 529.41C556.936 530.406 554.66 530.88 552.372 530.787C550.084 530.695 547.853 530.04 545.878 528.881C545.878 528.881 542.705 479.68 543.363 468.973C544.15 455.905 544.963 452.59 544.963 452.59C544.963 452.59 539.803 410.11 539.093 403.273C539.093 403.273 538.022 415.464 537.132 424.739C536.242 434.014 536.152 441.509 533.817 460.653C531.985 475.694 527.612 508.137 527.612 508.137C525.815 508.831 523.881 509.098 521.963 508.919C520.045 508.74 518.195 508.119 516.557 507.105C516.557 507.105 510.597 464.019 511.1 453.48Z" fill="#455A64"/>
<path d="M539.158 508.254C539.158 508.254 539.029 500.991 529.237 499.778L528.67 500.088C529.799 498.314 531.545 497.022 533.572 496.463C536.848 495.65 539.403 496.54 541.067 498.785C542.731 501.03 540.886 506.873 539.158 508.254Z" fill="#FAFAFA"/>
<path d="M539.067 403.325L538.422 394.643C532.963 392.71 527.764 390.111 522.942 386.903C525.712 391.566 530.192 394.964 535.429 396.372L536.99 404.899L537.119 424.829L539.067 403.325Z" fill="#37474F"/>
<path d="M521.059 232.968C518.311 236.399 497.994 269.088 495.027 275.241C492.06 281.394 491.337 285.342 496.033 290.295C503.089 297.738 520.878 315.695 520.878 315.695L530.837 291.933L512.364 280.323L530.424 242.101L521.059 232.968Z" fill="#FFA8A7"/>
<path d="M512.39 280.336C512.39 280.336 507.333 278.556 503.115 281.291C503.115 281.291 506.443 276.595 513.332 278.363L512.39 280.336Z" fill="#F28F8F"/>
<path d="M531.314 290.063L514.97 281.91C508.946 281.046 501.103 290.463 501.322 297.687L515.654 310.329L531.314 290.063Z" fill="#455A64"/>
<path d="M533.688 277.95L532.656 289.315C530.076 290.114 530.553 293.714 532.063 295.932L531.766 299.273L548.536 300.783L551.051 281.6L533.688 277.95Z" fill="#FFA8A7"/>
<path d="M515.293 297.571C517.15 292.527 524.477 288.644 528.928 288.992L532.656 289.315C531.624 291.379 533.12 292.849 535.829 293.636C539.312 294.642 545.724 295.21 549.503 292.978L549.619 292.011C549.619 292.011 556.753 294.049 558.856 294.836C564.764 297.055 566.712 298.203 572.827 314.083C575.407 320.881 573.833 327.924 566.789 331.769C566.26 335.974 565.667 342.592 565.667 342.592C567.611 351.606 569.036 360.724 569.937 369.901C569.937 369.901 566.222 378.325 540.486 376.906C520.556 375.809 511.281 365.721 511.281 365.721C511.771 360.832 514.867 353.028 521.214 338.296C513.68 317.114 512.532 305.13 515.293 297.571Z" fill="#37474F"/>
<path d="M621.692 287.07H621.627C620.725 286.608 620.014 285.844 619.617 284.912C619.219 283.98 619.161 282.937 619.453 281.967C619.744 280.996 620.366 280.158 621.211 279.599C622.056 279.039 623.071 278.794 624.078 278.904C624.101 278.906 624.124 278.912 624.145 278.923C624.166 278.934 624.184 278.949 624.198 278.967C624.213 278.985 624.224 279.006 624.23 279.029C624.235 279.051 624.237 279.075 624.233 279.098C624.232 279.12 624.226 279.141 624.215 279.16C624.205 279.179 624.191 279.196 624.174 279.209C624.157 279.222 624.138 279.232 624.117 279.237C624.096 279.243 624.074 279.243 624.052 279.24C623.128 279.147 622.201 279.378 621.429 279.894C620.657 280.411 620.089 281.18 619.822 282.069C619.555 282.958 619.605 283.913 619.965 284.769C620.326 285.625 620.972 286.329 621.795 286.761C621.815 286.771 621.832 286.786 621.846 286.803C621.86 286.821 621.87 286.841 621.876 286.863C621.882 286.885 621.884 286.907 621.881 286.93C621.878 286.952 621.871 286.973 621.859 286.993C621.844 287.022 621.819 287.045 621.788 287.059C621.758 287.073 621.724 287.077 621.692 287.07Z" fill="#E0E0E0"/>
<path d="M619.06 283.561L620.041 284.774C620.413 285.695 621.05 286.485 621.872 287.044L622.84 288.244L623.575 287.663C623.798 287.489 623.964 287.253 624.051 286.984C624.138 286.715 624.143 286.426 624.065 286.154C623.912 285.431 623.59 284.753 623.126 284.177C622.662 283.601 622.069 283.143 621.395 282.839C621.144 282.706 620.859 282.651 620.576 282.681C620.294 282.711 620.026 282.824 619.808 283.006L619.06 283.561Z" fill="#455A64"/>
<path d="M621.331 288.36C622.621 288.85 623.459 288.154 623.253 286.812C623.094 286.091 622.769 285.416 622.303 284.843C621.837 284.269 621.243 283.813 620.569 283.51C619.279 283.02 618.454 283.716 618.66 285.058C618.816 285.779 619.138 286.454 619.602 287.027C620.066 287.601 620.658 288.057 621.331 288.36Z" fill="#263238"/>
<path d="M618.08 285.47L620.776 288.812L621.924 287.883C622.081 287.755 622.197 287.585 622.259 287.392C622.32 287.2 622.325 286.994 622.272 286.799C622.154 286.293 621.92 285.821 621.589 285.42C621.257 285.02 620.838 284.701 620.363 284.49C620.184 284.395 619.982 284.355 619.78 284.373C619.579 284.392 619.387 284.468 619.228 284.593L618.08 285.47Z" fill="#37474F"/>
<path d="M593.234 297.3L594.524 301.441C595.182 303.466 597.182 305.078 600.355 305.775C606.805 307.181 615.5 304.421 619.912 299.596C622.105 297.197 622.814 294.733 622.195 292.694L620.905 288.554L619.267 289.379C618.357 288.897 617.384 288.545 616.377 288.334C609.927 286.928 601.232 289.689 596.821 294.513C596.125 295.264 595.534 296.106 595.066 297.016L593.234 297.3Z" fill="#3BEAA8"/>
<path opacity="0.3" d="M593.234 297.3L594.524 301.441C595.182 303.466 597.182 305.078 600.355 305.775C606.805 307.181 615.5 304.421 619.912 299.596C622.105 297.197 622.814 294.733 622.195 292.694L620.905 288.554L619.267 289.379C618.357 288.897 617.384 288.545 616.377 288.334C609.927 286.928 601.232 289.689 596.821 294.513C596.125 295.264 595.534 296.106 595.066 297.016L593.234 297.3Z" fill="black"/>
<path d="M623.175 287.534C622.636 287.482 622.111 287.328 621.627 287.083C621.607 287.072 621.59 287.058 621.576 287.04C621.562 287.022 621.552 287.002 621.546 286.981C621.54 286.959 621.538 286.936 621.541 286.914C621.544 286.892 621.551 286.87 621.563 286.851C621.572 286.83 621.586 286.811 621.603 286.796C621.62 286.781 621.64 286.769 621.662 286.762C621.684 286.755 621.707 286.752 621.73 286.754C621.753 286.756 621.775 286.762 621.795 286.773C622.236 287.005 622.718 287.15 623.214 287.199C624.243 287.263 625.256 286.927 626.043 286.261C626.83 285.596 627.33 284.652 627.438 283.627C627.546 282.602 627.254 281.575 626.624 280.76C625.993 279.945 625.072 279.405 624.052 279.253C624.03 279.253 624.007 279.248 623.987 279.239C623.966 279.23 623.947 279.216 623.933 279.199C623.918 279.181 623.907 279.161 623.901 279.139C623.895 279.117 623.894 279.094 623.898 279.072C623.899 279.05 623.905 279.029 623.915 279.009C623.925 278.989 623.939 278.972 623.956 278.957C623.973 278.943 623.992 278.932 624.013 278.925C624.034 278.918 624.056 278.916 624.078 278.917C624.658 278.959 625.223 279.117 625.74 279.382C626.257 279.647 626.715 280.013 627.088 280.458C627.461 280.904 627.74 281.419 627.91 281.975C628.079 282.53 628.136 283.114 628.075 283.692C628.015 284.27 627.839 284.829 627.557 285.338C627.276 285.846 626.896 286.293 626.439 286.651C625.982 287.009 625.457 287.272 624.897 287.424C624.336 287.576 623.751 287.613 623.175 287.534Z" fill="#E0E0E0"/>
<path d="M615.048 284.155C608.663 282.736 599.904 285.445 595.479 290.334C591.054 295.223 592.667 300.215 599.052 301.634C605.438 303.053 614.197 300.267 618.622 295.442C623.046 290.617 621.434 285.561 615.048 284.155Z" fill="#3BEAA8"/>
<path opacity="0.2" d="M615.048 284.155C608.663 282.736 599.904 285.445 595.479 290.334C591.054 295.223 592.667 300.215 599.052 301.634C605.438 303.053 614.197 300.267 618.622 295.442C623.046 290.617 621.434 285.561 615.048 284.155Z" fill="black"/>
<path d="M597.53 292.23C599.74 290.095 602.416 288.502 605.345 287.575C608.275 286.649 611.38 286.414 614.416 286.889C615.532 287.091 616.579 287.57 617.461 288.283C617.77 288.552 618.004 288.896 618.14 289.283C618.276 289.67 618.308 290.085 618.235 290.489C617.949 291.644 617.356 292.7 616.519 293.546C614.309 295.681 611.633 297.274 608.703 298.201C605.774 299.127 602.669 299.362 599.633 298.886C598.52 298.695 597.476 298.219 596.601 297.506L596.472 297.39C594.795 295.636 596.653 293.21 597.53 292.23Z" fill="#3BEAA8"/>
<path opacity="0.5" d="M597.53 292.23C599.74 290.095 602.416 288.502 605.345 287.575C608.275 286.649 611.38 286.414 614.416 286.889C615.532 287.091 616.579 287.57 617.461 288.283C617.77 288.552 618.004 288.896 618.14 289.283C618.276 289.67 618.308 290.085 618.235 290.489C617.949 291.644 617.356 292.7 616.519 293.546C614.309 295.681 611.633 297.274 608.703 298.201C605.774 299.127 602.669 299.362 599.633 298.886C598.52 298.695 597.476 298.219 596.601 297.506L596.472 297.39C594.795 295.636 596.653 293.21 597.53 292.23Z" fill="black"/>
<path d="M598.214 294.32C600.426 292.188 603.102 290.597 606.031 289.671C608.96 288.744 612.064 288.508 615.1 288.979C616.215 289.181 617.262 289.66 618.144 290.372L618.26 290.489C617.975 291.644 617.382 292.7 616.545 293.546C614.334 295.681 611.659 297.274 608.729 298.201C605.799 299.127 602.695 299.362 599.659 298.886C598.546 298.695 597.502 298.219 596.627 297.506L596.498 297.39C596.781 296.23 597.374 295.169 598.214 294.32Z" fill="#F0F0F0"/>
<path d="M605.502 293.946L601.774 296.732C601.477 296.952 601.774 297.171 602.226 297.003L607.192 294.965L605.502 293.946Z" fill="#455A64"/>
<path d="M608.508 294.23L612.236 291.443C612.533 291.224 612.236 291.005 611.785 291.172L606.818 293.211L608.508 294.23Z" fill="#455A64"/>
<path d="M608.547 295.004C608 295.323 607.388 295.511 606.756 295.554C606.125 295.596 605.493 295.492 604.909 295.249C604.07 294.746 604.315 293.804 605.463 293.172C606.01 292.852 606.622 292.664 607.254 292.621C607.885 292.579 608.517 292.683 609.101 292.927C609.94 293.43 609.695 294.371 608.547 295.004Z" fill="#3BEAA8"/>
<path d="M607.992 294.681C607.642 294.889 607.249 295.011 606.843 295.038C606.437 295.065 606.031 294.996 605.657 294.836C605.102 294.513 605.27 293.907 606.018 293.546C606.368 293.338 606.761 293.215 607.167 293.189C607.573 293.162 607.979 293.231 608.353 293.391C608.908 293.662 608.74 294.268 607.992 294.681Z" fill="#37474F"/>
<path d="M623.33 291.443C622.738 290.464 621.947 289.621 621.008 288.966L622.079 292.372C622.917 294.888 621.085 298.19 619.267 300.112C618.041 301.402 615.745 302.886 615.551 302.421C615.293 301.763 615.68 298.551 615.022 295.636C614.223 292.153 612.159 293.843 611.617 296.461C611.32 297.893 609.772 301.544 609.333 304.317C608.792 307.71 609.488 310.613 608.469 313.064C607.682 314.986 599.439 325.332 594.615 330.879C589.661 324.274 583.005 315.669 577.187 308.278C569.073 297.88 567.408 295.7 560.907 295.494C555.747 310.38 564.583 325.37 564.583 325.37C564.583 325.37 576.787 340.192 584.385 347.984C591.712 355.505 594.292 354.86 597.814 351.854C601.336 348.848 610.43 335.368 614.3 327.899C618.17 320.43 622.311 314.779 624.62 310.819C628.49 304.163 627.368 297.171 623.33 291.443Z" fill="#FFA8A7"/>
<path d="M558.83 294.81C558.83 294.81 564.919 293.946 569.034 297.235C571.618 299.578 573.964 302.171 576.039 304.975C581.727 312.586 592.331 326.725 592.331 326.725C590.582 329.885 588.21 332.657 585.358 334.874C582.507 337.092 579.235 338.708 575.742 339.625C575.742 339.625 565.319 328.724 561.423 323.319C554.534 313.786 555.244 300.138 558.83 294.81Z" fill="#455A64"/>
<path d="M532.656 289.315C532.656 289.315 524.322 293.004 522.645 298.345L514.815 297.364C517.055 293.573 520.586 290.715 524.761 289.315C527.341 288.579 530.076 288.579 532.656 289.315Z" fill="#3BEAA8"/>
<path opacity="0.2" d="M532.656 289.315C532.656 289.315 524.322 293.004 522.645 298.345L514.815 297.364C517.055 293.573 520.586 290.715 524.761 289.315C527.341 288.579 530.076 288.579 532.656 289.315Z" fill="black"/>
<path d="M550.755 305.969C550.755 305.969 554.005 296.1 558.83 294.81C556.188 293.207 553.184 292.297 550.097 292.166C546.854 294.522 544.276 297.677 542.615 301.325L550.755 305.969Z" fill="#3BEAA8"/>
<path opacity="0.2" d="M550.755 305.969C550.755 305.969 554.005 296.1 558.83 294.81C556.188 293.207 553.184 292.297 550.097 292.166C546.854 294.522 544.276 297.677 542.615 301.325L550.755 305.969Z" fill="black"/>
<path d="M519.472 294.81C514.828 294.746 505.682 300.628 504.057 304.253C502.431 307.878 496.02 355.724 500.006 360.523C504.998 366.534 527.934 380.156 538.706 379.769C547.555 379.46 556.25 372.752 557.592 370.378C559.785 366.508 556.818 313.618 553.992 309.116C549.374 301.944 525.406 294.913 519.472 294.81Z" fill="#3BEAA8"/>
<path opacity="0.2" d="M548.936 304.73L544.343 307.826C539.712 310.497 537.21 317.527 537.287 334.362C537.364 351.196 537.042 374.003 539.738 376.416C542.434 378.828 547.865 377.177 548.188 377.086C553.025 375.022 556.689 371.926 557.553 370.404C559.746 366.534 556.779 313.644 553.954 309.142C552.614 307.332 550.903 305.828 548.936 304.73Z" fill="black"/>
<path opacity="0.1" d="M555.979 372.21C552.819 375.151 545.788 379.55 538.667 379.808C527.947 380.182 504.998 366.56 499.967 360.548C495.994 355.763 502.315 308.084 504.018 304.279C505.721 300.473 514.789 294.784 519.433 294.836C524.077 294.887 540.538 299.557 548.897 304.73L544.305 307.826C539.686 310.496 537.171 317.527 537.261 334.374C537.352 351.222 537.003 374.016 539.699 376.415C542.395 378.815 547.826 377.176 548.149 377.086C551.007 375.899 553.652 374.252 555.979 372.21Z" fill="black"/>
<path d="M518.995 294.81C513.835 294.81 506.172 298.964 503.579 302.989C500.987 307.013 499.129 318.714 500.999 322.158C502.87 325.602 515.564 332.478 524.219 335.961C531.121 338.786 534.733 338.051 537.119 336.309C538.667 335.2 538.938 331.898 539.054 329.447C539.364 323.151 538.848 319.784 542.641 316.082C546.433 312.38 553.206 309.271 554.354 312.057C554.354 312.057 555.889 307.865 548.033 303.814C535.094 297.132 525.29 294.81 518.995 294.81Z" fill="#3BEAA8"/>
<path d="M526.309 327.989L530.876 329.717C530.876 329.717 530.269 343.611 530.295 349.067C530.295 349.067 529.225 351.402 528.231 351.789C527.238 352.176 525.935 349.558 525.729 347.584C525.522 345.61 525.832 332.697 526.309 327.989Z" fill="#455A64"/>
<path d="M526.18 329.073L530.824 330.672C530.944 330.723 531.074 330.744 531.204 330.732C531.333 330.721 531.458 330.677 531.567 330.606C531.675 330.534 531.765 330.437 531.826 330.322C531.888 330.208 531.921 330.08 531.921 329.95L532.101 327.718C532.102 327.466 532.029 327.22 531.892 327.009C531.754 326.798 531.558 326.632 531.327 326.531L526.67 324.854C526.554 324.803 526.426 324.782 526.299 324.792C526.172 324.802 526.049 324.844 525.942 324.912C525.835 324.981 525.746 325.076 525.684 325.187C525.622 325.298 525.589 325.423 525.587 325.551L525.419 327.899C525.42 328.147 525.492 328.389 525.627 328.598C525.762 328.806 525.954 328.971 526.18 329.073Z" fill="#37474F"/>
<path d="M527.935 345.262C528.308 345.434 528.626 345.705 528.853 346.047C529.081 346.389 529.21 346.787 529.225 347.197C529.248 347.36 529.227 347.526 529.164 347.677C529.1 347.829 528.996 347.96 528.863 348.057C528.731 348.154 528.574 348.212 528.41 348.227C528.247 348.241 528.082 348.211 527.935 348.139C527.56 347.97 527.24 347.698 527.012 347.356C526.784 347.014 526.657 346.615 526.645 346.204C526.67 345.391 527.238 344.978 527.935 345.262Z" fill="#E0E0E0"/>
<path d="M507.23 318.03L511.693 320.004C511.693 320.004 510.403 333.845 510.12 339.276C510.12 339.276 508.933 341.56 507.927 341.856C506.92 342.153 505.747 339.509 505.63 337.535C505.514 335.561 506.521 322.7 507.23 318.03Z" fill="#455A64"/>
<path d="M507.062 319.088L511.603 320.933C511.72 320.99 511.848 321.018 511.978 321.014C512.108 321.01 512.235 320.974 512.347 320.909C512.46 320.843 512.554 320.751 512.623 320.641C512.691 320.53 512.731 320.404 512.738 320.275L513.035 318.043C513.048 317.795 512.989 317.549 512.865 317.334C512.742 317.119 512.559 316.944 512.338 316.83L507.772 314.908C507.657 314.85 507.53 314.822 507.402 314.825C507.273 314.828 507.148 314.864 507.037 314.928C506.925 314.992 506.832 315.082 506.764 315.192C506.696 315.301 506.657 315.425 506.65 315.553L506.353 317.888C506.331 318.137 506.388 318.387 506.516 318.602C506.643 318.817 506.834 318.987 507.062 319.088Z" fill="#37474F"/>
<path d="M507.978 335.355C508.337 335.55 508.636 335.839 508.843 336.191C509.05 336.544 509.157 336.946 509.152 337.354C509.163 337.512 509.132 337.669 509.063 337.811C508.995 337.953 508.89 338.075 508.759 338.163C508.629 338.252 508.477 338.305 508.32 338.317C508.162 338.329 508.005 338.299 507.862 338.231C507.5 338.042 507.198 337.753 506.993 337.399C506.787 337.046 506.686 336.641 506.701 336.232C506.701 335.419 507.294 335.032 507.978 335.355Z" fill="#E0E0E0"/>
<path d="M502.328 344.527C502.328 350.087 502.173 352.383 502.418 355.053C502.453 356.149 502.765 357.218 503.327 358.159C503.889 359.1 504.682 359.883 505.63 360.432C508.327 362.342 519.949 368.456 523.381 370.095C527.586 372.081 532.166 373.41 532.101 370.095C532.101 367.244 532.101 361.181 532.101 359.104C532.101 356.524 530.811 354.885 525.651 352.473C520.711 350.19 509.707 343.998 506.662 342.618C504.082 341.495 502.341 342.863 502.328 344.527Z" fill="#3BEAA8"/>
<path d="M561.849 255.865C561.849 255.865 570.634 244.539 564.106 238.398C556.366 231.136 546.111 231.291 532.708 235.96C526.438 238.153 517.318 244.513 516.505 256.82C515.886 266.327 542.383 273.332 541.776 279.833L561.849 255.865Z" fill="#263238"/>
<path d="M564.106 260.806C564.106 260.806 567.692 266.559 567.189 267.152C566.297 267.705 565.314 268.098 564.287 268.313L564.106 260.806Z" fill="#F28F8F"/>
<path d="M553.141 242.539C556.727 244.526 562.932 248.176 564.184 261.631C565.474 275.447 562.287 280.156 560.314 281.91C559.024 283.084 552.47 283.355 549.091 282.207C544.846 280.762 535.726 275.95 531.585 268.726C526.709 260.225 525.961 249.041 531.959 244.835C540.448 238.914 550.097 240.875 553.141 242.539Z" fill="#FFA8A7"/>
<path d="M550.858 282.632C553.771 283.16 556.763 283.05 559.63 282.31C556.572 282.32 553.575 281.461 550.987 279.833L550.858 282.632Z" fill="#F28F8F"/>
<path d="M552.961 258.806C555.286 257.934 557.331 256.446 558.877 254.5C560.422 252.555 561.409 250.227 561.733 247.764C563.087 239.005 552.135 235.29 552.135 235.29L552.961 258.806Z" fill="#263238"/>
<path d="M551.8 270.855C551.077 272.003 548.252 273.086 545.272 269.99C542.292 266.894 542.395 261.27 546.678 259.967C550.961 258.664 553.012 263.631 553.012 263.631C557.037 255.8 554.199 243.146 554.199 243.146C554.199 243.146 544.859 233.535 529.689 238.127C521.549 240.591 517.369 249.092 516.466 255.426C515.563 261.76 513.125 273.074 516.286 277.176C519.446 281.278 531.65 287.625 542.615 287.096C553.58 286.567 553.606 284.4 553.606 284.4L551.929 270.558C551.929 270.558 551.903 270.674 551.8 270.855Z" fill="#263238"/>
<path d="M521.059 232.967C525.316 227.807 532.063 229.007 537.313 229.871C542.563 230.736 550.213 231.471 548.923 235.031C547.633 238.592 543.763 241.778 534.733 240.901C525.703 240.024 524.039 240.901 522.013 243.287C521.962 243.21 516.054 240.836 521.059 232.967Z" fill="#FFA8A7"/>
</svg>
