<svg width="150" height="264" viewBox="0 0 150 264" fill="none" xmlns="http://www.w3.org/2000/svg">
<path d="M63.7786 115.068V253.098C63.7786 254.749 64.8751 256.414 67.0681 257.678C69.5241 258.918 72.2372 259.564 74.9887 259.564C77.7402 259.564 80.4532 258.918 82.9093 257.678C85.1023 256.388 86.1988 254.749 86.1988 253.098V115.068H63.7786Z" fill="#B16668"/>
<path d="M149.189 186.483L79.7744 18.8343H70.0994L0.671641 186.534C0.17195 187.746 -0.0537256 189.052 0.0107753 190.361C0.0752762 191.67 0.42835 192.948 1.04473 194.105C1.66111 195.261 2.52553 196.267 3.57611 197.05C4.62669 197.833 5.83743 198.374 7.12164 198.634L8.25685 198.854C10.4571 199.29 12.4102 200.544 13.7221 202.364C15.034 204.183 15.6072 206.432 15.326 208.658C15.1454 210.128 15.3351 211.62 15.8776 212.998C16.4202 214.376 17.2986 215.596 18.4329 216.549C19.5672 217.501 20.9214 218.155 22.3727 218.451C23.8239 218.746 25.326 218.675 26.7425 218.242L30.1739 217.185C32.2349 216.55 34.4567 216.688 36.423 217.574C38.3892 218.46 39.965 220.032 40.8551 221.996L44.3123 229.607C44.8272 230.743 45.5754 231.757 46.5084 232.584C47.4413 233.411 48.5381 234.032 49.7271 234.407C50.9162 234.782 52.1709 234.902 53.4095 234.76C54.648 234.617 55.8427 234.216 56.9156 233.581L70.3832 225.595C71.7493 224.783 73.3091 224.355 74.8982 224.355C76.4874 224.355 78.0472 224.783 79.4132 225.595L92.8808 233.581C93.9538 234.216 95.1485 234.617 96.387 234.76C97.6256 234.902 98.8803 234.782 100.069 234.407C101.258 234.032 102.355 233.411 103.288 232.584C104.221 231.757 104.969 230.743 105.484 229.607L108.928 221.996C109.821 220.031 111.399 218.458 113.368 217.573C115.336 216.687 117.56 216.549 119.623 217.185L123.054 218.23C124.469 218.666 125.971 218.74 127.422 218.447C128.873 218.153 130.228 217.5 131.362 216.548C132.496 215.596 133.373 214.376 133.914 212.997C134.455 211.619 134.642 210.127 134.458 208.658C134.183 206.432 134.76 204.184 136.074 202.365C137.387 200.547 139.34 199.293 141.54 198.854L142.675 198.634C143.972 198.386 145.198 197.851 146.263 197.068C147.327 196.286 148.204 195.275 148.828 194.111C149.452 192.947 149.809 191.657 149.871 190.338C149.934 189.018 149.701 187.701 149.189 186.483Z" fill="#3BEAA8"/>
<path opacity="0.3" d="M149.189 186.483L79.7744 18.8343H70.0994L0.671641 186.534C0.17195 187.746 -0.0537256 189.052 0.0107753 190.361C0.0752762 191.67 0.42835 192.948 1.04473 194.105C1.66111 195.261 2.52553 196.267 3.57611 197.05C4.62669 197.833 5.83743 198.374 7.12164 198.634L8.25685 198.854C10.4571 199.29 12.4102 200.544 13.7221 202.364C15.034 204.183 15.6072 206.432 15.326 208.658C15.1454 210.128 15.3351 211.62 15.8776 212.998C16.4202 214.376 17.2986 215.596 18.4329 216.549C19.5672 217.501 20.9214 218.155 22.3727 218.451C23.8239 218.746 25.326 218.675 26.7425 218.242L30.1739 217.185C32.2349 216.55 34.4567 216.688 36.423 217.574C38.3892 218.46 39.965 220.032 40.8551 221.996L44.3123 229.607C44.8272 230.743 45.5754 231.757 46.5084 232.584C47.4413 233.411 48.5381 234.032 49.7271 234.407C50.9162 234.782 52.1709 234.902 53.4095 234.76C54.648 234.617 55.8427 234.216 56.9156 233.581L70.3832 225.595C71.7493 224.783 73.3091 224.355 74.8982 224.355C76.4874 224.355 78.0472 224.783 79.4132 225.595L92.8808 233.581C93.9538 234.216 95.1485 234.617 96.387 234.76C97.6256 234.902 98.8803 234.782 100.069 234.407C101.258 234.032 102.355 233.411 103.288 232.584C104.221 231.757 104.969 230.743 105.484 229.607L108.928 221.996C109.821 220.031 111.399 218.458 113.368 217.573C115.336 216.687 117.56 216.549 119.623 217.185L123.054 218.23C124.469 218.666 125.971 218.74 127.422 218.447C128.873 218.153 130.228 217.5 131.362 216.548C132.496 215.596 133.373 214.376 133.914 212.997C134.455 211.619 134.642 210.127 134.458 208.658C134.183 206.432 134.76 204.184 136.074 202.365C137.387 200.547 139.34 199.293 141.54 198.854L142.675 198.634C143.972 198.386 145.198 197.851 146.263 197.068C147.327 196.286 148.204 195.275 148.828 194.111C149.452 192.947 149.809 191.657 149.871 190.338C149.934 189.018 149.701 187.701 149.189 186.483Z" fill="black"/>
<path opacity="0.1" d="M62.3465 37.5651L70.0865 19.9437H79.7615L92.5841 49.8072L134.483 150.982C134.282 152.045 133.752 153.019 132.967 153.764C132.182 154.51 131.183 154.989 130.11 155.136C128.41 155.416 126.882 156.34 125.844 157.716C124.807 159.092 124.339 160.815 124.537 162.527L124.679 163.817C124.814 164.961 124.653 166.119 124.209 167.182C123.766 168.244 123.056 169.174 122.148 169.883C121.24 170.591 120.165 171.053 119.027 171.224C117.889 171.395 116.725 171.27 115.649 170.861L112.218 169.571C110.616 168.96 108.841 168.987 107.258 169.644C105.674 170.301 104.403 171.54 103.704 173.105L99.4469 182.664C99.0581 183.529 98.4912 184.301 97.7834 184.931C97.0755 185.561 96.2426 186.035 95.3391 186.321C94.4356 186.607 93.4819 186.699 92.5404 186.592C91.5988 186.484 90.6906 186.179 89.8751 185.696L78.3683 177.956C77.3289 177.335 76.141 177.008 74.9305 177.008C73.72 177.008 72.532 177.335 71.4926 177.956L58.6571 185.696C57.8416 186.179 56.9334 186.484 55.9919 186.592C55.0503 186.699 54.0966 186.607 53.1931 186.321C52.2896 186.035 51.4567 185.561 50.7489 184.931C50.041 184.301 49.4742 183.529 49.0853 182.664L44.8283 173.105C44.1296 171.54 42.858 170.301 41.2747 169.644C39.6913 168.987 37.9164 168.96 36.3143 169.571L32.8829 170.861C31.807 171.266 30.6448 171.388 29.508 171.216C28.3713 171.043 27.298 170.58 26.3914 169.873C25.4847 169.166 24.775 168.238 24.3305 167.177C23.886 166.117 23.7215 164.96 23.8529 163.817L24.0077 162.527C24.2063 160.815 23.7383 159.092 22.7007 157.716C21.6631 156.34 20.1356 155.416 18.4349 155.136C17.6674 155.035 16.9333 154.759 16.2891 154.33C15.645 153.9 15.1081 153.329 14.7197 152.659L62.3465 37.5651Z" fill="black"/>
<path d="M133.709 137.747L79.7744 12.1393H70.0994L14.7584 137.747C12.7718 141.784 13.907 146.596 18.3575 147.331C20.0581 147.611 21.5857 148.536 22.6233 149.912C23.6609 151.288 24.1289 153.011 23.9303 154.723L23.7755 156.013C23.6454 157.155 23.8106 158.312 24.2552 159.372C24.6998 160.433 25.409 161.361 26.315 162.069C27.221 162.777 28.2934 163.241 29.4298 163.416C30.5662 163.591 31.7285 163.472 32.8055 163.069L36.2369 161.779C37.8389 161.169 39.6139 161.195 41.1973 161.852C42.7806 162.51 44.0522 163.748 44.7509 165.314L49.0079 174.873C49.3935 175.74 49.9587 176.515 50.6661 177.148C51.3736 177.78 52.2071 178.255 53.1118 178.542C54.0165 178.828 54.9716 178.92 55.9142 178.81C56.8568 178.7 57.7653 178.391 58.5797 177.904L71.4152 170.242C72.4546 169.621 73.6426 169.294 74.8531 169.294C76.0636 169.294 77.2515 169.621 78.2909 170.242L89.7977 177.904C90.6122 178.391 91.5207 178.7 92.4632 178.81C93.4058 178.92 94.361 178.828 95.2656 178.542C96.1703 178.255 97.0039 177.78 97.7113 177.148C98.4187 176.515 98.9839 175.74 99.3695 174.873L103.627 165.314C104.325 163.748 105.597 162.51 107.18 161.852C108.764 161.195 110.538 161.169 112.141 161.779L115.572 163.069C116.649 163.476 117.812 163.598 118.95 163.424C120.088 163.251 121.163 162.787 122.07 162.079C122.977 161.37 123.686 160.439 124.13 159.377C124.573 158.315 124.736 157.156 124.602 156.013L124.46 154.723C124.261 153.009 124.729 151.285 125.766 149.907C126.803 148.528 128.331 147.602 130.033 147.318C134.574 146.596 135.709 141.784 133.709 137.747Z" fill="#3BEAA8"/>
<path opacity="0.2" d="M133.709 137.747L79.7744 12.1393H70.0994L14.7584 137.747C12.7718 141.784 13.907 146.596 18.3575 147.331C20.0581 147.611 21.5857 148.536 22.6233 149.912C23.6609 151.288 24.1289 153.011 23.9303 154.723L23.7755 156.013C23.6454 157.155 23.8106 158.312 24.2552 159.372C24.6998 160.433 25.409 161.361 26.315 162.069C27.221 162.777 28.2934 163.241 29.4298 163.416C30.5662 163.591 31.7285 163.472 32.8055 163.069L36.2369 161.779C37.8389 161.169 39.6139 161.195 41.1973 161.852C42.7806 162.51 44.0522 163.748 44.7509 165.314L49.0079 174.873C49.3935 175.74 49.9587 176.515 50.6661 177.148C51.3736 177.78 52.2071 178.255 53.1118 178.542C54.0165 178.828 54.9716 178.92 55.9142 178.81C56.8568 178.7 57.7653 178.391 58.5797 177.904L71.4152 170.242C72.4546 169.621 73.6426 169.294 74.8531 169.294C76.0636 169.294 77.2515 169.621 78.2909 170.242L89.7977 177.904C90.6122 178.391 91.5207 178.7 92.4632 178.81C93.4058 178.92 94.361 178.828 95.2656 178.542C96.1703 178.255 97.0039 177.78 97.7113 177.148C98.4187 176.515 98.9839 175.74 99.3695 174.873L103.627 165.314C104.325 163.748 105.597 162.51 107.18 161.852C108.764 161.195 110.538 161.169 112.141 161.779L115.572 163.069C116.649 163.476 117.812 163.598 118.95 163.424C120.088 163.251 121.163 162.787 122.07 162.079C122.977 161.37 123.686 160.439 124.13 159.377C124.573 158.315 124.736 157.156 124.602 156.013L124.46 154.723C124.261 153.009 124.729 151.285 125.766 149.907C126.803 148.528 128.331 147.602 130.033 147.318C134.574 146.596 135.709 141.784 133.709 137.747Z" fill="black"/>
<path opacity="0.1" d="M70.0994 12.1393H79.7744L119.081 103.665C118.776 103.933 118.443 104.167 118.087 104.361L117.791 104.529C116.78 105.101 115.954 105.95 115.41 106.977C114.866 108.003 114.626 109.163 114.721 110.321C114.805 111.286 114.655 112.257 114.285 113.153C113.914 114.048 113.334 114.841 112.593 115.464C111.851 116.088 110.971 116.524 110.025 116.736C109.08 116.948 108.098 116.929 107.161 116.681L104.813 116.062C103.499 115.716 102.107 115.823 100.862 116.366C99.6166 116.909 98.5908 117.856 97.9505 119.054L94.7384 125.053C93.9829 126.453 92.7075 127.5 91.1872 127.968C89.6669 128.436 88.0235 128.288 86.6114 127.556L77.7362 122.912C76.8721 122.461 75.9117 122.225 74.9369 122.225C73.9621 122.225 73.0018 122.461 72.1376 122.912L63.2624 127.556C61.8503 128.288 60.2069 128.436 58.6866 127.968C57.1663 127.5 55.8909 126.453 55.1354 125.053L51.9233 119.054C51.2807 117.855 50.2526 116.907 49.005 116.364C47.7575 115.821 46.3633 115.715 45.0476 116.062L42.7127 116.681C41.7762 116.929 40.7938 116.948 39.8484 116.736C38.903 116.524 38.0225 116.088 37.2812 115.464C36.5398 114.841 35.9595 114.048 35.5891 113.153C35.2188 112.257 35.0693 111.286 35.1533 110.321C35.2496 109.165 35.0114 108.005 34.467 106.981C33.9227 105.956 33.0951 105.109 32.0831 104.542L31.7864 104.374C31.1518 104.009 30.5882 103.533 30.1223 102.968L70.0994 12.1393Z" fill="black"/>
<path d="M120.28 88.3395L79.7357 3.10922L79.4132 2.59322C78.9614 1.80522 78.3095 1.15047 77.5235 0.695126C76.7375 0.239785 75.8453 -3.8147e-06 74.9369 -3.8147e-06C74.0286 -3.8147e-06 73.1363 0.239785 72.3503 0.695126C71.5643 1.15047 70.9125 1.80522 70.4606 2.59322L70.1381 3.12212L29.5934 88.3395C29.1641 89.0333 28.8798 89.8069 28.7578 90.6136C28.6358 91.4203 28.6786 92.2434 28.8836 93.0331C29.0885 93.8228 29.4514 94.5628 29.9504 95.2084C30.4493 95.8539 31.0739 96.3916 31.7864 96.789L32.0831 96.9567C33.0941 97.5254 33.9207 98.3722 34.4649 99.3965C35.0091 100.421 35.248 101.58 35.1533 102.736C35.0693 103.701 35.2188 104.672 35.5892 105.567C35.9595 106.463 36.5399 107.256 37.2812 107.879C38.0225 108.503 38.9031 108.939 39.8484 109.151C40.7938 109.362 41.7762 109.344 42.7127 109.096L45.0476 108.476C46.3633 108.132 47.7566 108.24 49.0037 108.782C50.2507 109.325 51.279 110.271 51.9233 111.469L55.1354 117.468C55.8885 118.87 57.1638 119.919 58.6851 120.388C60.2064 120.856 61.851 120.706 63.2624 119.97L72.1376 115.339C73.0018 114.888 73.9621 114.653 74.9369 114.653C75.9117 114.653 76.8721 114.888 77.7362 115.339L86.6114 119.97C88.0229 120.706 89.6675 120.856 91.1887 120.388C92.71 119.919 93.9854 118.87 94.7384 117.468L97.9505 111.469C98.5926 110.273 99.6186 109.327 100.863 108.784C102.108 108.241 103.5 108.133 104.813 108.476L107.161 109.096C108.098 109.344 109.08 109.362 110.025 109.151C110.971 108.939 111.851 108.503 112.593 107.879C113.334 107.256 113.914 106.463 114.285 105.567C114.655 104.672 114.805 103.701 114.721 102.736C114.626 101.58 114.865 100.421 115.409 99.3965C115.953 98.3722 116.78 97.5254 117.791 96.9567L118.087 96.789C118.8 96.3916 119.425 95.8539 119.924 95.2084C120.422 94.5628 120.785 93.8228 120.99 93.0331C121.195 92.2434 121.238 91.4203 121.116 90.6136C120.994 89.8069 120.71 89.0333 120.28 88.3395Z" fill="#3BEAA8"/>
<path opacity="0.1" d="M120.28 88.3395L79.7357 3.10922L79.4132 2.59322C78.9614 1.80522 78.3095 1.15047 77.5235 0.695126C76.7375 0.239785 75.8453 -3.8147e-06 74.9369 -3.8147e-06C74.0286 -3.8147e-06 73.1363 0.239785 72.3503 0.695126C71.5643 1.15047 70.9125 1.80522 70.4606 2.59322L70.1381 3.12212L29.5934 88.3395C29.1641 89.0333 28.8798 89.8069 28.7578 90.6136C28.6358 91.4203 28.6786 92.2434 28.8836 93.0331C29.0885 93.8228 29.4514 94.5628 29.9504 95.2084C30.4493 95.8539 31.0739 96.3916 31.7864 96.789L32.0831 96.9567C33.0941 97.5254 33.9207 98.3722 34.4649 99.3965C35.0091 100.421 35.248 101.58 35.1533 102.736C35.0693 103.701 35.2188 104.672 35.5892 105.567C35.9595 106.463 36.5399 107.256 37.2812 107.879C38.0225 108.503 38.9031 108.939 39.8484 109.151C40.7938 109.362 41.7762 109.344 42.7127 109.096L45.0476 108.476C46.3633 108.132 47.7566 108.24 49.0037 108.782C50.2507 109.325 51.279 110.271 51.9233 111.469L55.1354 117.468C55.8885 118.87 57.1638 119.919 58.6851 120.388C60.2064 120.856 61.851 120.706 63.2624 119.97L72.1376 115.339C73.0018 114.888 73.9621 114.653 74.9369 114.653C75.9117 114.653 76.8721 114.888 77.7362 115.339L86.6114 119.97C88.0229 120.706 89.6675 120.856 91.1887 120.388C92.71 119.919 93.9854 118.87 94.7384 117.468L97.9505 111.469C98.5926 110.273 99.6186 109.327 100.863 108.784C102.108 108.241 103.5 108.133 104.813 108.476L107.161 109.096C108.098 109.344 109.08 109.362 110.025 109.151C110.971 108.939 111.851 108.503 112.593 107.879C113.334 107.256 113.914 106.463 114.285 105.567C114.655 104.672 114.805 103.701 114.721 102.736C114.626 101.58 114.865 100.421 115.409 99.3965C115.953 98.3722 116.78 97.5254 117.791 96.9567L118.087 96.789C118.8 96.3916 119.425 95.8539 119.924 95.2084C120.422 94.5628 120.785 93.8228 120.99 93.0331C121.195 92.2434 121.238 91.4203 121.116 90.6136C120.994 89.8069 120.71 89.0333 120.28 88.3395Z" fill="black"/>
<path d="M69.5319 257.381C69.4551 255.607 68.6964 253.932 67.4142 252.704C66.1319 251.476 64.4251 250.791 62.6497 250.791C60.8744 250.791 59.1675 251.476 57.8853 252.704C56.6031 253.932 55.8444 255.607 55.7676 257.381V257.768C55.8692 258.329 56.1054 258.857 56.456 259.306C56.8065 259.755 57.2608 260.113 57.78 260.348C59.2899 261.111 60.958 261.509 62.6497 261.509C64.3415 261.509 66.0096 261.111 67.5195 260.348C68.0374 260.111 68.4906 259.753 68.8409 259.304C69.1912 258.855 69.4282 258.328 69.5319 257.768V257.381Z" fill="#37474F"/>
<path d="M67.5194 260.387C68.0373 260.15 68.4906 259.792 68.8409 259.343C69.1912 258.894 69.4282 258.367 69.5319 257.807V257.42C69.4976 256.217 69.1484 255.045 68.5191 254.019C67.8898 252.994 67.0024 252.151 65.9456 251.576C65.9456 251.654 69.377 255.898 66.8744 258.736C65.1458 260.696 59.1344 261.058 56.5544 259.51C56.898 259.877 57.2988 260.186 57.7413 260.426C59.2592 261.189 60.9359 261.583 62.635 261.577C64.3341 261.57 66.0076 261.162 67.5194 260.387Z" fill="#263238"/>
<path d="M58.3992 260.851C58.3351 259.606 57.7954 258.434 56.8916 257.575C55.9878 256.717 54.7889 256.238 53.5424 256.238C52.2959 256.238 51.097 256.717 50.1932 257.575C49.2894 258.434 48.7497 259.606 48.6855 260.851V261.122C48.7539 261.522 48.9189 261.899 49.1662 262.221C49.4135 262.542 49.7356 262.798 50.1045 262.967C51.1699 263.507 52.3477 263.789 53.5424 263.789C54.7371 263.789 55.9149 263.507 56.9802 262.967C57.3491 262.798 57.6713 262.542 57.9186 262.221C58.1659 261.899 58.3309 261.522 58.3992 261.122C58.4056 261.075 58.4056 261.027 58.3992 260.98C58.4056 260.938 58.4056 260.894 58.3992 260.851Z" fill="#455A64"/>
<path d="M56.9801 262.967C57.349 262.798 57.6711 262.542 57.9184 262.22C58.1657 261.899 58.3308 261.522 58.3991 261.122C58.4055 261.075 58.4055 261.027 58.3991 260.98C58.4055 260.937 58.4055 260.894 58.3991 260.851C58.3855 260.299 58.2763 259.754 58.0766 259.239C58.1927 261.316 57.2123 262.58 54.1421 262.98C51.0719 263.38 49.0595 262.064 48.8015 261.586C49.0558 262.184 49.5126 262.673 50.0915 262.967C51.1586 263.509 52.3387 263.792 53.5358 263.792C54.7329 263.792 55.9131 263.509 56.9801 262.967Z" fill="#37474F"/>
<path d="M94.042 255.988C93.9781 254.753 93.4425 253.59 92.546 252.739C91.6494 251.887 90.4602 251.413 89.2238 251.413C87.9874 251.413 86.7982 251.887 85.9016 252.739C85.0051 253.59 84.4696 254.753 84.4057 255.988C84.3993 256.031 84.3993 256.074 84.4057 256.117C84.3993 256.164 84.3993 256.212 84.4057 256.259C84.4693 256.657 84.6312 257.033 84.8767 257.353C85.1222 257.673 85.4436 257.926 85.8118 258.091C86.8699 258.625 88.0386 258.903 89.2238 258.903C90.4091 258.903 91.5777 258.625 92.6358 258.091C93.002 257.923 93.3217 257.669 93.5668 257.35C93.8119 257.03 93.9751 256.656 94.042 256.259V255.988Z" fill="#455A64"/>
<path d="M92.6356 258.091C93.0018 257.923 93.3215 257.669 93.5666 257.35C93.8117 257.03 93.9749 256.656 94.0418 256.259V255.988C94.0295 255.44 93.9203 254.898 93.7193 254.388C93.8354 256.452 92.855 257.704 89.8493 258.091C86.8436 258.478 84.8054 257.188 84.5474 256.723C84.806 257.315 85.2619 257.798 85.8374 258.091C86.8921 258.62 88.0561 258.896 89.2365 258.896C90.4169 258.896 91.5809 258.62 92.6356 258.091Z" fill="#37474F"/>
</svg>
