<svg width="792" height="697" viewBox="0 0 792 697" fill="none" xmlns="http://www.w3.org/2000/svg">
<path d="M580.61 71.0186C645.037 106.448 707.675 144.013 745.258 198.651C782.393 252.863 794.474 323.723 791.342 392.875C788.21 462.027 769.418 529.045 736.31 590.086C702.754 651.128 654.88 706.194 593.585 736.074C532.736 765.955 458.466 770.65 391.353 759.125C324.241 748.026 264.288 720.28 200.307 692.107C136.327 663.934 68.7676 634.907 32.9745 585.391C-2.81865 535.448 -6.84538 465.015 8.36671 402.693C23.1314 340.797 57.1349 286.585 88.4539 229.812C120.22 173.466 149.75 114.132 198.518 70.1649C247.733 26.1978 316.188 -2.40219 383.3 0.158995C450.412 2.29332 516.182 35.5888 580.61 71.0186Z" fill="#F6F6F9"/>
</svg>
