<svg width="527" height="160" viewBox="0 0 527 160" fill="none" xmlns="http://www.w3.org/2000/svg">
<path d="M-47.9165 91.1087C-112.843 56.6017 -176.011 19.935 -214.369 -34.162C-252.274 -87.8385 -265.364 -158.519 -263.219 -227.708C-261.074 -296.898 -243.241 -364.177 -211.006 -425.685C-178.324 -487.199 -131.242 -542.942 -70.3783 -573.694C-9.96247 -604.44 64.2338 -610.194 131.504 -599.628C198.767 -589.488 259.11 -562.6 323.486 -535.342C387.862 -508.085 455.829 -480.025 492.325 -431.024C528.827 -381.597 533.858 -311.229 519.536 -248.696C505.656 -186.596 472.43 -131.904 441.924 -74.6904C410.964 -17.8967 382.285 41.8528 334.149 86.5111C285.565 131.176 217.526 160.75 150.384 159.146C83.2483 157.969 17.0101 125.616 -47.9165 91.1087Z" fill="#F6F6F9"/>
</svg>
