<svg width="696" height="295" viewBox="0 0 696 295" fill="none" xmlns="http://www.w3.org/2000/svg">
<path d="M614.917 90.3875C676.009 131.302 735.132 174.186 767.806 231.894C800.072 289.138 805.926 360.781 796.775 429.397C787.623 498.012 763.058 563.136 724.752 621.057C686 678.94 633.506 729.62 569.838 754.041C506.615 778.5 432.218 776.7 366.367 759.365C300.478 742.456 243.173 709.586 181.894 675.94C120.615 642.294 55.8445 607.486 24.5065 555.036C-6.79434 502.161 -4.66272 431.646 15.927 370.888C36.0338 310.516 74.636 259.477 110.787 205.651C147.347 152.291 181.939 95.7579 234.356 56.2118C287.219 16.7047 357.907 -5.81579 424.54 2.58903C491.21 10.5686 553.825 49.4735 614.917 90.3875Z" fill="#F6F6F9"/>
</svg>
